<svg width="2801" height="973" xmlns="http://www.w3.org/2000/svg" xmlns:xlink="http://www.w3.org/1999/xlink" overflow="hidden"><defs><clipPath id="clip0"><rect x="47" y="1185" width="2801" height="973"/></clipPath><clipPath id="clip1"><rect x="2164" y="1754" width="142" height="142"/></clipPath><clipPath id="clip2"><rect x="2164" y="1754" width="142" height="142"/></clipPath><clipPath id="clip3"><rect x="2164" y="1754" width="142" height="142"/></clipPath><clipPath id="clip4"><rect x="580" y="1434" width="142" height="143"/></clipPath><clipPath id="clip5"><rect x="580" y="1434" width="142" height="143"/></clipPath><clipPath id="clip6"><rect x="580" y="1434" width="142" height="143"/></clipPath><clipPath id="clip7"><rect x="1435" y="1237" width="142" height="142"/></clipPath><clipPath id="clip8"><rect x="1435" y="1237" width="142" height="142"/></clipPath><clipPath id="clip9"><rect x="1435" y="1237" width="142" height="142"/></clipPath><clipPath id="clip10"><rect x="1314" y="1963" width="142" height="142"/></clipPath><clipPath id="clip11"><rect x="1314" y="1963" width="142" height="142"/></clipPath><clipPath id="clip12"><rect x="1314" y="1963" width="142" height="142"/></clipPath></defs><g clip-path="url(#clip0)" transform="translate(-47 -1185)"><path d="M0.0820767-6.87451 290.169-3.41107 290.005 10.3379-0.0820767 6.87451ZM283.459-17.2422 324.46 3.87382 282.967 24.0049Z" fill="#FF0000" transform="matrix(-1 0 0 1 1434.46 1307)"/><path d="M0 0C76.8116 0 153.623 137.624 153.623 275.249" stroke="#FF0000" stroke-width="13.75" stroke-miterlimit="8" fill="none" fill-rule="evenodd" transform="matrix(-1.83697e-16 -1 -1 1.83697e-16 1851.25 1460.62)"/><path d="M1978.68 1654.66C1982.13 1654.66 1984.62 1655.55 1986.15 1657.35 1987.68 1659.14 1988.44 1661.55 1988.44 1664.56 1988.44 1666.86 1988.04 1669.49 1987.22 1672.46 1986.41 1675.42 1985.26 1678.56 1983.78 1681.86 1982.3 1685.16 1980.52 1688.55 1978.47 1692.02 1976.41 1695.49 1974.14 1698.86 1971.65 1702.14 1969.16 1705.41 1966.5 1708.5 1963.68 1711.4 1960.86 1714.29 1957.93 1716.81 1954.89 1718.97 1951.85 1721.12 1948.76 1722.83 1945.63 1724.1 1942.49 1725.37 1939.37 1726 1936.26 1726 1934.87 1726 1933.71 1725.66 1932.78 1724.96 1931.85 1724.27 1931.09 1723.29 1930.52 1722.02 1929.95 1720.75 1929.54 1719.26 1929.3 1717.53 1929.06 1715.81 1928.94 1713.92 1928.94 1711.86 1928.94 1709.13 1929.11 1706.22 1929.44 1703.11 1929.78 1700 1930.21 1696.86 1930.73 1693.7L1933.75 1673.82C1933.94 1672.67 1934.1 1671.58 1934.22 1670.55 1934.34 1669.53 1934.4 1668.77 1934.4 1668.29 1934.4 1666.81 1934.16 1665.59 1933.68 1664.63 1933.2 1663.68 1932.39 1663.2 1931.24 1663.2 1930.33 1663.2 1929.35 1663.47 1928.29 1664.02 1927.24 1664.57 1926.18 1665.28 1925.1 1666.14 1924.02 1667 1922.98 1667.92 1921.98 1668.9 1920.97 1669.88 1920.04 1670.81 1919.18 1671.67L1915.73 1667.65C1917.22 1666.12 1918.8 1664.6 1920.47 1663.09 1922.15 1661.58 1923.92 1660.22 1925.78 1659 1927.65 1657.78 1929.61 1656.8 1931.67 1656.06 1933.73 1655.31 1935.83 1654.94 1937.98 1654.94 1939.8 1654.94 1941.29 1655.24 1942.43 1655.84 1943.58 1656.44 1944.48 1657.23 1945.13 1658.21 1945.77 1659.19 1946.21 1660.27 1946.45 1661.44 1946.69 1662.61 1946.81 1663.77 1946.81 1664.92 1946.81 1665.59 1946.79 1666.24 1946.74 1666.86 1946.69 1667.48 1946.62 1668.05 1946.53 1668.58L1942.51 1694.56C1942.08 1697.29 1941.72 1699.96 1941.43 1702.57 1941.14 1705.18 1941 1707.48 1941 1709.49 1941 1711.5 1941.12 1713.13 1941.36 1714.37 1941.6 1715.62 1942.05 1716.24 1942.72 1716.24 1944.3 1716.24 1946.29 1715.61 1948.68 1714.34 1951.07 1713.07 1953.58 1711.32 1956.22 1709.1 1958.85 1706.87 1961.48 1704.24 1964.11 1701.2 1966.74 1698.16 1969.11 1694.88 1971.22 1691.33 1973.32 1687.79 1975.03 1684.06 1976.35 1680.14 1977.67 1676.21 1978.32 1672.27 1978.32 1668.29 1978.32 1666.57 1977.95 1665.24 1977.21 1664.31 1976.47 1663.38 1975.31 1662.91 1973.73 1662.91 1971.72 1662.91 1969.87 1663.69 1968.17 1665.24 1966.47 1666.8 1964.71 1668.84 1962.89 1671.38L1958.8 1667.72C1959.95 1666 1961.3 1664.35 1962.86 1662.77 1964.41 1661.19 1966.06 1659.8 1967.81 1658.6 1969.55 1657.41 1971.36 1656.45 1973.23 1655.73 1975.09 1655.01 1976.91 1654.66 1978.68 1654.66Z" fill="#FFFFFF" fill-rule="evenodd"/><text fill="#000000" fill-opacity="0" font-family="Arial,Arial_MSFontService,sans-serif" font-size="71.3467" x="1915.73" y="1717.08">ğ‘£</text><path d="M775.5 1676.5C775.5 1557.76 871.759 1461.5 990.5 1461.5 1109.24 1461.5 1205.5 1557.76 1205.5 1676.5 1205.5 1795.24 1109.24 1891.5 990.5 1891.5 871.759 1891.5 775.5 1795.24 775.5 1676.5Z" stroke="#000000" stroke-width="4.58333" stroke-miterlimit="8" fill="#F2F2F2" fill-rule="evenodd"/><text font-family="Calibri,Calibri_MSFontService,sans-serif" font-weight="400" font-size="50" transform="matrix(1 0 0 1 894.685 1567)">Neuronal<tspan font-size="50" x="-15.4688" y="42">Population </tspan><tspan font-size="220" x="37.2396" y="191">u</tspan></text><path d="M5.02316-4.69399 33.1871 25.4449 23.1408 34.8329-5.02316 4.69399ZM42.5751 35.4913 70.739 65.6302 60.6927 75.0182 32.5287 44.8792ZM80.127 75.6765 82.021 77.7033 71.9746 87.0913 70.0807 85.0645ZM87.3733 63.2922 100.468 107.513 57.2344 91.4561Z" fill="#FF0000" transform="matrix(-1 0 0 1 837.468 1828)"/><path d="M695.342 1914.52 675.898 1963.46C678.118 1964.42 680.625 1964.91 683.418 1964.91 689.577 1964.91 694.241 1962.57 697.41 1957.9 700.578 1953.22 702.163 1946.36 702.163 1937.3 702.163 1926.81 699.889 1919.22 695.342 1914.52ZM682.934 1909.69C676.776 1909.69 672.121 1912.02 668.97 1916.67 665.819 1921.33 664.243 1928.2 664.243 1937.3 664.243 1947.86 666.499 1955.47 671.011 1960.13L690.454 1911.14C688.127 1910.17 685.62 1909.69 682.934 1909.69ZM697.436 1893.58 703.667 1893.58 698.564 1906.36C702.682 1909.05 705.815 1913.04 707.964 1918.34 710.112 1923.64 711.186 1929.96 711.186 1937.3 711.186 1944.46 710.121 1950.68 707.991 1955.96 705.86 1961.24 702.673 1965.3 698.43 1968.13 694.187 1970.96 689.022 1972.37 682.934 1972.37 679.282 1972.37 675.97 1971.85 672.998 1970.81L668.97 1980.96 662.739 1980.96 667.788 1968.29C663.706 1965.6 660.591 1961.63 658.442 1956.37 656.294 1951.1 655.22 1944.75 655.22 1937.3 655.22 1930.14 656.285 1923.92 658.415 1918.63 660.546 1913.35 663.733 1909.3 667.976 1906.47 672.219 1903.64 677.384 1902.22 683.472 1902.22 687.16 1902.22 690.454 1902.74 693.354 1903.78Z" fill-rule="evenodd"/><text fill="#000000" fill-opacity="0" font-family="Arial,Arial_MSFontService,sans-serif" font-size="87.3877" x="655.22" y="1970.04">âˆ…</text><path d="M661.849 1269.67C660.166 1277.44 659.324 1283.97 659.324 1289.27 659.324 1293.28 659.933 1296.23 661.151 1298.11 662.368 1299.99 664.337 1300.93 667.059 1300.93 671.069 1300.93 674.874 1298.23 678.472 1292.84 682.071 1287.46 685.124 1279.73 687.63 1269.67ZM683.87 1233.47C679.681 1233.47 675.805 1236.12 672.242 1241.42 668.679 1246.72 665.644 1254.31 663.138 1264.19L688.865 1264.19C690.548 1256.63 691.39 1250.14 691.39 1244.69 691.39 1240.93 690.781 1238.12 689.564 1236.26 688.346 1234.4 686.448 1233.47 683.87 1233.47ZM684.515 1229.12C694.899 1229.12 700.091 1235.71 700.091 1248.88 700.091 1252.61 699.67 1257.06 698.829 1262.23 697.987 1267.4 696.654 1272.68 694.827 1278.05 693.001 1283.42 690.692 1288.17 687.899 1292.31 685.106 1296.44 681.883 1299.64 678.231 1301.89 674.578 1304.15 670.64 1305.28 666.414 1305.28 661.079 1305.28 657.104 1303.65 654.49 1300.39 651.877 1297.13 650.57 1292.24 650.57 1285.73 650.57 1282.18 650.963 1277.81 651.751 1272.62 652.539 1267.43 653.837 1262.12 655.645 1256.7 657.454 1251.27 659.781 1246.46 662.628 1242.25 665.474 1238.04 668.751 1234.8 672.457 1232.53 676.163 1230.25 680.182 1229.12 684.515 1229.12Z" fill="#0070C0" fill-rule="evenodd"/><text fill="#000000" fill-opacity="0" font-family="Arial,Arial_MSFontService,sans-serif" font-size="76.1621" x="650.57" y="1295.76">ğœƒ</text><path d="M714.242 1286.99C716.117 1286.99 717.615 1287.63 718.734 1288.89 719.854 1290.15 720.414 1291.84 720.414 1293.95 720.414 1295.09 720.31 1296.37 720.102 1297.78 719.893 1299.18 719.542 1300.76 719.047 1302.5 718.057 1306.07 717.276 1309.2 716.703 1311.88 716.13 1314.56 715.844 1316.53 715.844 1317.78 715.844 1319.34 716.15 1320.5 716.762 1321.27 717.374 1322.04 718.357 1322.42 719.711 1322.42 720.935 1322.42 722.244 1321.97 723.637 1321.06 725.03 1320.15 726.365 1318.97 727.641 1317.52 728.917 1316.08 730.056 1314.46 731.059 1312.68 732.061 1310.89 732.797 1309.13 733.266 1307.39L737.563 1287.82 745.258 1287.82 739.242 1313.32C738.93 1314.65 738.708 1315.84 738.578 1316.88 738.448 1317.92 738.383 1318.8 738.383 1319.53 738.383 1320.52 738.565 1321.24 738.93 1321.68 739.294 1322.13 739.88 1322.35 740.688 1322.35 741.182 1322.35 741.664 1322.26 742.133 1322.07 742.602 1321.89 743.103 1321.6 743.637 1321.21 744.171 1320.82 744.75 1320.32 745.375 1319.71 746 1319.1 746.703 1318.36 747.484 1317.5L750.18 1320.08C748.878 1321.41 747.68 1322.55 746.586 1323.5 745.492 1324.45 744.451 1325.23 743.461 1325.84 742.471 1326.45 741.488 1326.9 740.512 1327.17 739.535 1327.44 738.526 1327.58 737.484 1327.58 735.609 1327.58 734.145 1326.98 733.09 1325.76 732.035 1324.55 731.508 1322.89 731.508 1320.78 731.508 1320.24 731.547 1319.68 731.625 1319.12 731.703 1318.56 731.846 1318.02 732.055 1317.5L731.586 1317.35C729.008 1320.76 726.501 1323.32 724.067 1325.02 721.632 1326.73 719.099 1327.58 716.469 1327.58 713.708 1327.58 711.632 1326.85 710.238 1325.39 708.845 1323.93 708.149 1321.84 708.149 1319.1 708.149 1318.4 708.272 1317.42 708.52 1316.17 708.767 1314.92 709.073 1313.53 709.438 1311.99 709.802 1310.46 710.193 1308.85 710.609 1307.17 711.026 1305.49 711.417 1303.88 711.781 1302.33 712.146 1300.78 712.452 1299.37 712.699 1298.11 712.947 1296.85 713.07 1295.86 713.07 1295.16 713.07 1293.26 712.289 1292.31 710.727 1292.31 710.232 1292.31 709.75 1292.41 709.281 1292.6 708.813 1292.8 708.311 1293.09 707.777 1293.48 707.244 1293.87 706.664 1294.36 706.039 1294.96 705.414 1295.56 704.711 1296.27 703.93 1297.07L701.274 1294.53C702.68 1293.13 703.936 1291.94 705.043 1290.98 706.15 1290.02 707.198 1289.24 708.188 1288.66 709.177 1288.07 710.154 1287.65 711.117 1287.39 712.081 1287.13 713.122 1286.99 714.242 1286.99Z" fill="#0070C0" fill-rule="evenodd"/><text fill="#000000" fill-opacity="0" font-family="Arial,Arial_MSFontService,sans-serif" font-size="40.5859" x="701.274" y="1322.51">ğ‘¢</text><path d="M0 215C-2.73724e-14 96.2588 96.2588-2.73724e-14 215-5.47447e-14 333.741-1.09489e-13 430 96.2588 430 215 430 333.741 333.741 430 215 430 96.2588 430-1.36862e-13 333.741 0 215Z" stroke="#000000" stroke-width="4.58333" stroke-miterlimit="8" fill="#F2F2F2" fill-rule="evenodd" transform="matrix(-1 0 0 1 2066.5 1461.5)"/><text font-family="Calibri,Calibri_MSFontService,sans-serif" font-weight="400" font-size="50" transform="matrix(1 0 0 1 1756.11 1567)">Neuronal<tspan font-size="50" x="-15.4688" y="42">Population</tspan><tspan font-size="220" x="45.5584" y="191">v</tspan></text><path d="M6.8721-0.199544 8.2007 45.5559-5.54351 45.955-6.8721 0.199544ZM21.7454 38.2847 2.32631 80.1159-19.4873 39.482Z" fill="#92D050" transform="matrix(-1 0 0 1 992.326 1381)"/><path d="M34.647-5.46705 42.8145-5.10961 63.8244-2.9515 84.3393-0.102206 104.178 3.51063 123.201 7.75909 141.241 12.5866 158.116 17.9358 173.671 23.7371 180.988 26.8449 187.893 30.0717 194.366 33.3727 200.445 36.7721 206.099 40.3221 211.252 43.8897 216.064 47.6176 220.329 51.5381 224.038 55.4567 227.303 59.666 229.941 64.0362 231.876 68.5269 233.172 73.2228 233.538 77.5445 219.837 78.7055 219.525 75.018 219.748 76.2658 218.748 72.6408 219.062 73.5338 217.499 69.9088 217.926 70.7396 215.739 67.1146 216.193 67.7768 213.381 64.1518 213.819 64.6633 210.507 61.1633 210.847 61.4986 206.972 57.9361 207.415 58.31 202.977 54.8725 203.274 55.0901 198.399 51.7151 198.657 51.8849 193.282 48.5099 193.582 48.6882 187.77 45.4382 188.002 45.562 181.752 42.3745 181.964 42.4785 175.277 39.3535 175.5 39.4528 168.437 36.4528 168.723 36.5666 153.473 30.8791 153.798 30.9911 137.235 25.7411 137.535 25.8288 119.785 21.0788 120.064 21.1472 101.314 16.9597 101.581 17.0138 82.0183 13.4513 82.3042 13.4971 62.0542 10.6846 62.2975 10.714 41.61 8.58902 42.0119 8.61843 34.0458 8.2698ZM40.3749 22.2895 0 0 42.0565-18.9262Z" fill="#92D050" transform="matrix(-1 1.22465e-16 1.22465e-16 1 878.644 1356)"/><path d="M0 0C50.0501 0 100.1 61.5778 100.1 123.156" stroke="#92D050" stroke-width="13.75" stroke-miterlimit="8" fill="none" fill-rule="evenodd" transform="matrix(1.83697e-16 1 1 -1.83697e-16 652 1576)"/><path d="M839.52 1276.28 766.867 1274.87 767.133 1261.13 839.786 1262.53ZM833.179 1248.65 874.022 1270.07 832.38 1289.9Z" fill="#92D050"/><path d="M1455.03 2027.12 1698.83 2028.02 1698.78 2041.77 1454.97 2040.88ZM1692 2014.25 1733.18 2035.03 1691.85 2055.5Z" fill="#92D050"/><path d="M2144.96 2076.49C2143.27 2084.26 2142.43 2090.8 2142.43 2096.1 2142.43 2100.11 2143.04 2103.05 2144.26 2104.93 2145.48 2106.81 2147.45 2107.75 2150.17 2107.75 2154.18 2107.75 2157.98 2105.06 2161.58 2099.67 2165.18 2094.28 2168.23 2086.55 2170.74 2076.49ZM2166.98 2040.29C2162.79 2040.29 2158.91 2042.94 2155.35 2048.24 2151.79 2053.54 2148.75 2061.13 2146.25 2071.01L2171.97 2071.01C2173.66 2063.46 2174.5 2056.96 2174.5 2051.52 2174.5 2047.76 2173.89 2044.94 2172.67 2043.08 2171.45 2041.22 2169.56 2040.29 2166.98 2040.29ZM2167.62 2035.94C2178.01 2035.94 2183.2 2042.53 2183.2 2055.7 2183.2 2059.43 2182.78 2063.88 2181.94 2069.05 2181.1 2074.23 2179.76 2079.5 2177.94 2084.87 2176.11 2090.24 2173.8 2094.99 2171.01 2099.13 2168.21 2103.27 2164.99 2106.46 2161.34 2108.72 2157.69 2110.97 2153.75 2112.1 2149.52 2112.1 2144.19 2112.1 2140.21 2110.47 2137.6 2107.21 2134.98 2103.96 2133.68 2099.07 2133.68 2092.55 2133.68 2089.01 2134.07 2084.64 2134.86 2079.45 2135.65 2074.25 2136.95 2068.94 2138.75 2063.52 2140.56 2058.09 2142.89 2053.28 2145.74 2049.07 2148.58 2044.86 2151.86 2041.62 2155.57 2039.35 2159.27 2037.08 2163.29 2035.94 2167.62 2035.94Z" fill="#0070C0" fill-rule="evenodd"/><text fill="#000000" fill-opacity="0" font-family="Arial,Arial_MSFontService,sans-serif" font-size="76.1621" x="2133.68" y="2102.58">ğœƒ</text><path d="M2197.82 2093.82C2198.94 2093.82 2199.84 2094.04 2200.53 2094.48 2201.22 2094.92 2201.77 2095.5 2202.18 2096.22 2202.58 2096.94 2202.85 2097.72 2203 2098.58 2203.14 2099.44 2203.21 2100.29 2203.21 2101.12 2203.21 2101.62 2203.16 2102.28 2203.05 2103.11L2200.59 2117.25C2200.36 2118.61 2200.16 2119.94 2200.01 2121.24 2199.85 2122.54 2199.77 2123.69 2199.77 2124.68 2199.77 2125.67 2199.84 2126.47 2199.97 2127.1 2200.1 2127.72 2200.23 2128.04 2200.36 2128.04 2201.19 2128.04 2202.26 2127.7 2203.56 2127.04 2204.86 2126.38 2206.24 2125.46 2207.68 2124.31 2209.13 2123.15 2210.57 2121.77 2212.02 2120.18 2213.46 2118.6 2214.76 2116.87 2215.91 2115.01 2217.05 2113.15 2217.98 2111.19 2218.7 2109.15 2219.41 2107.11 2219.77 2105.04 2219.77 2102.96 2219.77 2101.73 2219.54 2100.85 2219.09 2100.3 2218.63 2099.75 2218.01 2099.48 2217.23 2099.48 2216.4 2099.48 2215.51 2099.88 2214.58 2100.67 2213.64 2101.47 2212.66 2102.5 2211.65 2103.78L2209.34 2101.47C2209.97 2100.46 2210.71 2099.49 2211.57 2098.56 2212.43 2097.64 2213.34 2096.83 2214.3 2096.12 2215.27 2095.42 2216.26 2094.86 2217.29 2094.44 2218.32 2094.03 2219.33 2093.82 2220.32 2093.82 2222.38 2093.82 2223.86 2094.46 2224.77 2095.75 2225.68 2097.04 2226.14 2098.77 2226.14 2100.93 2226.14 2102.18 2225.91 2103.61 2225.46 2105.22 2225 2106.84 2224.36 2108.54 2223.52 2110.34 2222.69 2112.14 2221.7 2113.98 2220.55 2115.87 2219.41 2117.76 2218.14 2119.59 2216.75 2121.38 2215.35 2123.16 2213.87 2124.84 2212.29 2126.42 2210.72 2127.99 2209.08 2129.36 2207.37 2130.54 2205.66 2131.71 2203.93 2132.64 2202.18 2133.33 2200.42 2134.02 2198.67 2134.36 2196.92 2134.36 2195.98 2134.36 2195.2 2134.18 2194.58 2133.8 2193.95 2133.42 2193.47 2132.89 2193.13 2132.2 2192.79 2131.51 2192.56 2130.69 2192.43 2129.75 2192.3 2128.82 2192.23 2127.79 2192.23 2126.67 2192.23 2125.18 2192.32 2123.6 2192.51 2121.9 2192.69 2120.21 2192.92 2118.5 2193.21 2116.79 2194.59 2108.43 2195.28 2103.57 2195.28 2102.22 2195.33 2101.25 2195.22 2100.59 2194.95 2100.24 2194.68 2099.89 2194.29 2099.72 2193.8 2099.72 2193.28 2099.72 2192.72 2099.86 2192.14 2100.15 2191.55 2100.43 2190.96 2100.8 2190.36 2101.24 2189.76 2101.68 2189.18 2102.16 2188.62 2102.67 2188.06 2103.17 2187.53 2103.65 2187.04 2104.09L2184.89 2101.47C2185.75 2100.56 2186.67 2099.65 2187.64 2098.74 2188.62 2097.83 2189.66 2097 2190.75 2096.26 2191.84 2095.52 2192.99 2094.92 2194.19 2094.48 2195.38 2094.04 2196.6 2093.82 2197.82 2093.82Z" fill="#0070C0" fill-rule="evenodd"/><text fill="#000000" fill-opacity="0" font-family="Arial,Arial_MSFontService,sans-serif" font-size="40.5469" x="2184.89" y="2129.3">ğ‘£</text><path d="M6.875-0.000334465 6.87694 39.8068-6.87306 39.8075-6.875 0.000334465ZM20.6266 32.9311 0.00360892 74.1822-20.6234 32.9332Z" fill="#92D050" transform="matrix(1 0 0 -1 1851 1965.18)"/><path d="M34.742-5.4011 49.5909-4.53978 73.926-1.75138 97.6608 1.9829 120.585 6.66913 142.641 12.1829 163.425 18.4562 173.446 21.9029 182.998 25.4692 192.229 29.2252 201.049 33.0599 209.462 37.1057 217.442 41.2887 224.927 45.6123 231.944 50.0302 238.414 54.605 244.403 59.2777 249.799 64.0741 254.669 69.0121 258.922 74.1563 262.565 79.4116 265.438 84.7983 267.642 90.3819 269 96.191 269.416 101.459 255.709 102.541 255.334 97.7911 255.493 98.815 254.368 94.0025 254.668 94.9618 252.793 90.2118 253.121 90.9228 250.621 86.2353 251.038 86.9173 247.788 82.2297 248.139 82.6929 244.264 78.0054 244.668 78.4527 240.168 73.8902 240.495 74.2009 235.432 69.7009 235.771 69.9829 230.083 65.5454 230.343 65.7385 224.156 61.3635 224.462 61.5678 217.712 57.3178 217.936 57.4533 210.686 53.2658 210.933 53.4016 203.183 49.3391 203.395 49.4458 195.208 45.5083 195.446 45.6174 186.821 41.8674 186.971 41.9305 177.909 38.243 178.095 38.3158 168.72 34.8158 168.889 34.8762 159.076 31.5012 159.326 31.5817 138.826 25.3942 139.145 25.4822 117.395 20.0447 117.686 20.1107 95.0606 15.4857 95.369 15.5415 71.9315 11.854 72.2174 11.8928 48.2174 9.14281 48.6019 9.17596 33.9458 8.32583ZM40.3352 22.3612 0 0 42.0901-18.8515Z" fill="#92D050" transform="matrix(1 0 0 -1 1973 1996.97)"/><path d="M0 0C39.1529 0 78.3057 84.4984 78.3057 168.997" stroke="#92D050" stroke-width="13.75" stroke-miterlimit="8" fill="none" fill-rule="evenodd" transform="matrix(-1.83697e-16 -1 -1 1.83697e-16 2235 1754.31)"/><path d="M2003.38 2068.12 2118.97 2068.12 2118.97 2081.88 2003.38 2081.87ZM2010.25 2095.62 1969 2075 2010.25 2054.37Z" fill="#92D050"/><path d="M0 0C71.395 0 142.79 161.928 142.79 323.856" stroke="#92D050" stroke-width="13.75" stroke-miterlimit="8" fill="none" fill-rule="evenodd" transform="matrix(1.83697e-16 1 1 -1.83697e-16 990 1891)"/><g clip-path="url(#clip1)"><g clip-path="url(#clip2)"><g clip-path="url(#clip3)"><path d="M2235.5 1871.5C2209.65 1871.5 2188.5 1850.35 2188.5 1824.5 2188.5 1798.65 2209.65 1777.5 2235.5 1777.5 2261.35 1777.5 2282.5 1798.65 2282.5 1824.5 2282.5 1850.35 2261.35 1871.5 2235.5 1871.5ZM2235.5 1768.69C2204.66 1768.69 2179.69 1793.66 2179.69 1824.5 2179.69 1855.34 2204.66 1880.31 2235.5 1880.31 2266.34 1880.31 2291.31 1855.34 2291.31 1824.5 2291.31 1793.66 2266.34 1768.69 2235.5 1768.69Z" fill="#FF8225"/><path d="M2238.44 1795.13 2232.56 1795.13 2232.56 1824.5C2232.56 1825.38 2232.86 1826.12 2233.44 1826.56L2254.15 1847.27 2258.27 1843.15 2238.44 1823.33 2238.44 1795.13Z" fill="#FF8225"/><path d="M2238.44 1786.31C2238.44 1787.93 2237.12 1789.25 2235.5 1789.25 2233.88 1789.25 2232.56 1787.93 2232.56 1786.31 2232.56 1784.69 2233.88 1783.38 2235.5 1783.38 2237.12 1783.38 2238.44 1784.69 2238.44 1786.31Z" fill="#FF8225"/><path d="M2238.44 1862.69C2238.44 1864.31 2237.12 1865.63 2235.5 1865.63 2233.88 1865.63 2232.56 1864.31 2232.56 1862.69 2232.56 1861.07 2233.88 1859.75 2235.5 1859.75 2237.12 1859.75 2238.44 1861.07 2238.44 1862.69Z" fill="#FF8225"/><path d="M2200.25 1824.5C2200.25 1826.12 2198.93 1827.44 2197.31 1827.44 2195.69 1827.44 2194.38 1826.12 2194.38 1824.5 2194.38 1822.88 2195.69 1821.56 2197.31 1821.56 2198.93 1821.56 2200.25 1822.88 2200.25 1824.5Z" fill="#FF8225"/><path d="M2276.62 1824.5C2276.62 1826.12 2275.31 1827.44 2273.69 1827.44 2272.07 1827.44 2270.75 1826.12 2270.75 1824.5 2270.75 1822.88 2272.07 1821.56 2273.69 1821.56 2275.31 1821.56 2276.62 1822.88 2276.62 1824.5Z" fill="#FF8225"/></g></g></g><path d="M2340.3 1800.73C2336.65 1800.73 2333.37 1802.21 2330.47 1805.16 2327.57 1808.12 2325.29 1812.1 2323.62 1817.11 2321.96 1822.13 2321.12 1827.12 2321.12 1832.1 2321.12 1835.82 2321.63 1838.61 2322.65 1840.45 2323.67 1842.29 2325.38 1843.22 2327.78 1843.22 2328.89 1843.22 2330.02 1842.97 2331.17 1842.49 2332.31 1842.01 2333.5 1841.23 2334.74 1840.15 2335.97 1839.08 2337.19 1837.77 2338.39 1836.23 2339.59 1834.69 2340.69 1833.15 2341.69 1831.59 2342.7 1830.03 2343.63 1828.19 2344.49 1826.06 2345.35 1823.93 2346.08 1821.36 2346.69 1818.35L2347.17 1816.04C2347.71 1813.46 2347.98 1811.03 2347.98 1808.73 2347.98 1805.94 2347.39 1803.91 2346.21 1802.64 2345.02 1801.37 2343.05 1800.73 2340.3 1800.73ZM2362.8 1771.94 2365.97 1771.94 2352.6 1831.4C2351.81 1834.91 2351.42 1837.56 2351.42 1839.35 2351.42 1840.78 2351.65 1841.82 2352.11 1842.46 2352.58 1843.11 2353.31 1843.43 2354.32 1843.43 2355.39 1843.43 2356.54 1842.99 2357.75 1842.12 2358.97 1841.24 2360.69 1839.56 2362.91 1837.09L2365.97 1840.1C2362.68 1843.57 2359.9 1846.03 2357.65 1847.46 2355.39 1848.89 2352.96 1849.61 2350.34 1849.61 2348.12 1849.61 2346.35 1848.87 2345.02 1847.41 2343.7 1845.94 2343.04 1843.99 2343.04 1841.55 2343.04 1839.58 2343.45 1837.49 2344.27 1835.27L2343.57 1835.05C2340.14 1840.07 2336.88 1843.74 2333.8 1846.06 2330.72 1848.39 2327.46 1849.55 2324.02 1849.55 2320.08 1849.55 2317.03 1848.07 2314.87 1845.1 2312.7 1842.12 2311.62 1837.95 2311.62 1832.58 2311.62 1826.42 2312.82 1820.51 2315.24 1814.83 2317.66 1809.15 2320.98 1804.68 2325.2 1801.4 2329.43 1798.13 2334.14 1796.49 2339.33 1796.49 2341.52 1796.49 2343.53 1796.71 2345.37 1797.16 2347.22 1797.61 2349.11 1798.39 2351.04 1799.5L2353.83 1787.09C2354.12 1785.91 2354.37 1784.6 2354.58 1783.17 2354.8 1781.74 2354.91 1780.48 2354.91 1779.41 2354.91 1778.33 2354.71 1777.52 2354.32 1776.96 2353.92 1776.41 2353.36 1776.01 2352.62 1775.76 2351.89 1775.5 2350.57 1775.33 2348.68 1775.22L2349.32 1772.43Z" fill="#6600CC" fill-rule="evenodd"/><text fill="#000000" fill-opacity="0" font-family="Arial,Arial_MSFontService,sans-serif" font-size="77.666" x="2311.62" y="1839.9">ğ‘‘</text><path d="M2420.43 1796.27C2423.01 1796.27 2424.87 1796.94 2426.02 1798.29 2427.17 1799.63 2427.74 1801.43 2427.74 1803.69 2427.74 1805.4 2427.43 1807.37 2426.83 1809.59 2426.22 1811.81 2425.36 1814.16 2424.25 1816.63 2423.14 1819.1 2421.81 1821.63 2420.27 1824.23 2418.73 1826.83 2417.03 1829.35 2415.17 1831.8 2413.31 1834.26 2411.32 1836.57 2409.21 1838.73 2407.1 1840.9 2404.9 1842.79 2402.63 1844.4 2400.36 1846.01 2398.05 1847.29 2395.7 1848.24 2393.35 1849.19 2391.02 1849.66 2388.69 1849.66 2387.65 1849.66 2386.78 1849.4 2386.09 1848.88 2385.39 1848.36 2384.82 1847.63 2384.39 1846.68 2383.96 1845.73 2383.66 1844.61 2383.48 1843.32 2383.3 1842.03 2383.21 1840.62 2383.21 1839.08 2383.21 1837.04 2383.34 1834.86 2383.59 1832.53 2383.84 1830.2 2384.16 1827.85 2384.56 1825.49L2386.81 1810.61C2386.95 1809.75 2387.07 1808.94 2387.16 1808.17 2387.25 1807.4 2387.29 1806.84 2387.29 1806.48 2387.29 1805.37 2387.12 1804.45 2386.76 1803.74 2386.4 1803.02 2385.79 1802.66 2384.93 1802.66 2384.25 1802.66 2383.52 1802.87 2382.73 1803.28 2381.94 1803.69 2381.14 1804.22 2380.34 1804.87 2379.53 1805.51 2378.75 1806.2 2378 1806.93 2377.25 1807.67 2376.55 1808.36 2375.91 1809L2373.33 1805.99C2374.44 1804.85 2375.62 1803.71 2376.87 1802.58 2378.13 1801.46 2379.45 1800.44 2380.85 1799.52 2382.25 1798.61 2383.71 1797.88 2385.25 1797.32 2386.79 1796.77 2388.37 1796.49 2389.98 1796.49 2391.34 1796.49 2392.45 1796.71 2393.31 1797.16 2394.17 1797.61 2394.84 1798.2 2395.32 1798.93 2395.81 1799.67 2396.14 1800.47 2396.32 1801.35 2396.5 1802.23 2396.59 1803.09 2396.59 1803.95 2396.59 1804.45 2396.57 1804.94 2396.53 1805.4 2396.5 1805.87 2396.44 1806.3 2396.37 1806.69L2393.36 1826.14C2393.04 1828.18 2392.77 1830.17 2392.56 1832.12 2392.34 1834.08 2392.24 1835.8 2392.24 1837.31 2392.24 1838.81 2392.33 1840.03 2392.5 1840.96 2392.68 1841.89 2393.02 1842.36 2393.53 1842.36 2394.71 1842.36 2396.19 1841.88 2397.98 1840.93 2399.77 1839.98 2401.65 1838.68 2403.62 1837.01 2405.59 1835.35 2407.56 1833.38 2409.53 1831.1 2411.5 1828.83 2413.27 1826.37 2414.85 1823.72 2416.42 1821.07 2417.7 1818.28 2418.69 1815.34 2419.67 1812.4 2420.17 1809.45 2420.17 1806.48 2420.17 1805.19 2419.89 1804.2 2419.33 1803.5 2418.78 1802.8 2417.91 1802.45 2416.73 1802.45 2415.22 1802.45 2413.84 1803.03 2412.57 1804.2 2411.29 1805.36 2409.98 1806.89 2408.62 1808.79L2405.56 1806.05C2406.42 1804.76 2407.43 1803.52 2408.59 1802.34 2409.75 1801.16 2410.99 1800.12 2412.3 1799.23 2413.6 1798.33 2414.96 1797.62 2416.35 1797.08 2417.75 1796.54 2419.11 1796.27 2420.43 1796.27Z" fill="#FFC000" fill-rule="evenodd"/><text fill="#000000" fill-opacity="0" font-family="Arial,Arial_MSFontService,sans-serif" font-size="53.3887" x="2373.33" y="1842.99">ğ‘£</text><path d="M2474.55 1771.14 2476 1775.27C2467.62 1778.03 2461.42 1783.41 2457.39 1791.41 2453.36 1799.42 2451.34 1809.47 2451.34 1821.57 2451.34 1834.1 2453.36 1844.43 2457.39 1852.56 2461.42 1860.69 2467.57 1866.13 2475.84 1868.89L2474.55 1873.03C2464.06 1870.27 2456.02 1864.33 2450.43 1855.22 2444.85 1846.11 2442.05 1835.07 2442.05 1822.11 2442.05 1809.18 2444.85 1798.14 2450.46 1789 2456.06 1779.85 2464.09 1773.89 2474.55 1771.14Z" fill="#FF8225" fill-rule="evenodd"/><text fill="#000000" fill-opacity="0" font-family="Arial,Arial_MSFontService,sans-serif" font-size="101.89" x="2442.05" y="1860.29">(</text><path d="M2499.22 1784.13 2506.63 1784.13 2503.68 1797.4 2520.01 1797.4 2518.82 1802.83 2502.5 1802.83 2497.72 1823.67C2496.78 1827.71 2496.19 1830.62 2495.94 1832.39 2495.69 1834.17 2495.57 1835.59 2495.57 1836.66 2495.57 1841.1 2497.41 1843.32 2501.1 1843.32 2502.67 1843.32 2504.35 1842.72 2506.12 1841.52 2507.89 1840.32 2510 1838.27 2512.43 1835.37L2515.55 1838.6C2512.43 1842.36 2509.43 1845.13 2506.55 1846.92 2503.67 1848.71 2500.65 1849.61 2497.5 1849.61 2490.02 1849.61 2486.27 1845.83 2486.27 1838.27 2486.27 1835.88 2486.58 1833.35 2487.19 1830.7L2493.53 1802.83 2484.5 1802.83 2485.31 1799.12C2487.42 1799.08 2489.02 1798.92 2490.11 1798.64 2491.21 1798.35 2492.12 1797.96 2492.85 1797.45 2493.59 1796.95 2494.26 1796.24 2494.87 1795.31 2495.48 1794.38 2496.07 1793.18 2496.64 1791.73 2497.21 1790.28 2498.07 1787.75 2499.22 1784.13Z" fill="#FF8225" fill-rule="evenodd"/><text fill="#000000" fill-opacity="0" font-family="Arial,Arial_MSFontService,sans-serif" font-size="65.4736" x="2484.5" y="1841.42">ğ‘¡</text><path d="M2556.9 1813.73 2623.07 1813.73 2623.07 1820.87 2556.9 1820.87Z" fill="#FF8225" fill-rule="evenodd"/><text fill="#000000" fill-opacity="0" font-family="Arial,Arial_MSFontService,sans-serif" font-size="7.14355" x="2556.9" y="1819.98">âˆ’</text><path d="M2676.76 1797.4 2704.9 1797.4 2703.29 1804.49 2686.48 1804.49 2680.41 1831.4C2679.62 1834.91 2679.23 1837.56 2679.23 1839.35 2679.23 1840.78 2679.46 1841.82 2679.93 1842.46 2680.39 1843.11 2681.12 1843.43 2682.13 1843.43 2683.35 1843.43 2684.67 1842.93 2686.1 1841.93 2687.53 1840.92 2689.16 1839.33 2690.99 1837.15L2694.11 1840.05C2691.03 1843.48 2688.28 1845.94 2685.86 1847.41 2683.44 1848.87 2680.96 1849.61 2678.42 1849.61 2675.88 1849.61 2673.87 1848.77 2672.41 1847.08 2670.94 1845.4 2670.2 1843.22 2670.2 1840.53 2670.2 1838.13 2670.71 1834.66 2671.71 1830.11L2672.46 1826.73C2673.03 1824.11 2673.88 1820.68 2675.01 1816.41 2676.14 1812.15 2677.28 1808.34 2678.42 1804.97L2678.15 1804.49 2673.53 1804.49C2671.17 1804.49 2669.35 1804.68 2668.08 1805.05 2666.81 1805.43 2665.57 1806.08 2664.35 1806.99 2663.13 1807.9 2661.86 1809.22 2660.54 1810.94L2657.15 1808.09C2659.09 1805.69 2660.78 1803.81 2662.23 1802.45 2663.68 1801.09 2665.07 1800.06 2666.39 1799.36 2667.72 1798.66 2669.15 1798.16 2670.69 1797.86 2672.23 1797.55 2674.25 1797.4 2676.76 1797.4Z" fill="#FF8225" fill-rule="evenodd"/><text fill="#000000" fill-opacity="0" font-family="Arial,Arial_MSFontService,sans-serif" font-size="52.207" x="2657.15" y="1843.08">ğœ</text><path d="M2729.51 1820.89 2731.9 1820.89C2731.84 1822.33 2731.8 1823.61 2731.78 1824.74 2731.75 1825.87 2731.73 1826.98 2731.72 1828.04 2731.71 1829.11 2731.7 1830.17 2731.7 1831.21L2731.7 1860.89C2731.7 1861.7 2731.73 1862.4 2731.78 1862.98 2731.83 1863.57 2731.91 1864.06 2732.03 1864.47 2732.15 1864.87 2732.31 1865.22 2732.5 1865.5 2732.7 1865.79 2732.92 1866.04 2733.18 1866.25 2733.5 1866.56 2733.91 1866.8 2734.43 1866.97 2734.95 1867.14 2735.62 1867.28 2736.43 1867.4 2737.23 1867.52 2738.2 1867.61 2739.34 1867.67 2740.47 1867.74 2741.83 1867.78 2743.42 1867.81L2743.42 1871.21 2712.44 1871.21 2712.44 1867.81C2713.98 1867.76 2715.28 1867.7 2716.35 1867.63 2717.42 1867.57 2718.33 1867.48 2719.08 1867.36 2719.84 1867.24 2720.44 1867.11 2720.9 1866.97 2721.35 1866.83 2721.75 1866.65 2722.09 1866.44 2722.45 1866.21 2722.77 1865.95 2723.03 1865.68 2723.29 1865.41 2723.5 1865.06 2723.65 1864.64 2723.81 1864.23 2723.93 1863.72 2724.02 1863.12 2724.11 1862.52 2724.16 1861.78 2724.16 1860.89L2724.16 1832.89C2724.16 1831.87 2723.97 1831.15 2723.57 1830.74 2723.18 1830.32 2722.62 1830.11 2721.9 1830.11 2721.09 1830.11 2719.89 1830.53 2718.3 1831.36 2716.71 1832.2 2714.66 1833.43 2712.13 1835.07 2711.79 1834.48 2711.48 1833.88 2711.19 1833.28 2710.91 1832.68 2710.61 1832.07 2710.29 1831.44 2713.52 1829.67 2716.72 1827.91 2719.88 1826.15 2723.05 1824.39 2726.26 1822.64 2729.51 1820.89Z" fill="#FF8225" fill-rule="evenodd"/><text fill="#000000" fill-opacity="0" font-family="Arial,Arial_MSFontService,sans-serif" font-size="50.3125" x="2710.29" y="1864.92">1</text><path d="M2757.6 1771.14C2768.06 1773.89 2776.09 1779.85 2781.69 1789 2787.3 1798.14 2790.1 1809.18 2790.1 1822.11 2790.1 1835.07 2787.3 1846.11 2781.72 1855.22 2776.13 1864.33 2768.09 1870.27 2757.6 1873.03L2756.31 1868.89C2764.59 1866.13 2770.74 1860.69 2774.76 1852.56 2778.79 1844.43 2780.81 1834.1 2780.81 1821.57 2780.81 1809.47 2778.8 1799.42 2774.79 1791.41 2770.78 1783.41 2764.57 1778.03 2756.15 1775.27Z" fill="#FF8225" fill-rule="evenodd"/><text fill="#000000" fill-opacity="0" font-family="Arial,Arial_MSFontService,sans-serif" font-size="101.89" x="2756.15" y="1860.29">)</text><path d="M128.387 1484.11C124.699 1484.11 121.387 1485.6 118.451 1488.57 115.514 1491.54 113.223 1495.53 111.576 1500.52 109.929 1505.52 109.105 1510.5 109.105 1515.48 109.105 1519.21 109.615 1521.99 110.636 1523.83 111.656 1525.68 113.366 1526.6 115.765 1526.6 118.128 1526.6 120.447 1525.58 122.721 1523.54 124.994 1521.5 127.34 1518.59 129.757 1514.81 132.174 1511.03 133.884 1506.67 134.886 1501.73L135.37 1499.42C135.692 1497.95 135.907 1496.68 136.014 1495.61 136.122 1494.53 136.175 1493.37 136.175 1492.12 136.175 1489.36 135.584 1487.34 134.403 1486.05 133.221 1484.76 131.216 1484.11 128.387 1484.11ZM127.313 1479.87C129.64 1479.87 131.816 1480.13 133.839 1480.65 135.862 1481.17 137.948 1482.09 140.096 1483.42L145.038 1479.87 148.475 1480.73 140.58 1514.78C139.792 1518.19 139.398 1520.83 139.398 1522.73 139.398 1524.16 139.631 1525.2 140.096 1525.85 140.562 1526.49 141.296 1526.81 142.298 1526.81 143.373 1526.81 144.518 1526.38 145.736 1525.5 146.953 1524.62 148.672 1522.95 150.892 1520.48L153.954 1523.48C150.731 1526.92 147.983 1529.37 145.709 1530.82 143.435 1532.27 140.973 1532.99 138.324 1532.99 136.104 1532.99 134.331 1532.26 133.006 1530.79 131.681 1529.32 131.019 1527.37 131.019 1524.93 131.019 1522.97 131.431 1520.87 132.254 1518.65L131.556 1518.44C128.119 1523.45 124.86 1527.12 121.781 1529.45 118.701 1531.77 115.443 1532.94 112.005 1532.94 108.067 1532.94 105.014 1531.45 102.848 1528.48 100.681 1525.51 99.5982 1521.34 99.5982 1515.96 99.5982 1509.81 100.807 1503.89 103.224 1498.21 105.641 1492.54 108.962 1488.06 113.187 1484.79 117.412 1481.51 122.121 1479.87 127.313 1479.87Z" fill="#6600CC" fill-rule="evenodd"/><text fill="#000000" fill-opacity="0" font-family="Arial,Arial_MSFontService,sans-serif" font-size="53.1201" x="99.5982" y="1526.35">ğ‘</text><path d="M172.609 1479.87C174.901 1479.87 176.709 1480.64 178.034 1482.18 179.359 1483.72 180.021 1485.8 180.021 1488.41 180.021 1491.24 179.466 1494.77 178.356 1498.99L175.993 1508.28C175.384 1510.65 174.946 1512.49 174.677 1513.82 174.409 1515.14 174.212 1516.29 174.086 1517.25 173.961 1518.22 173.898 1519.03 173.898 1519.67 173.898 1522.14 174.31 1523.92 175.134 1525.02 175.957 1526.11 177.3 1526.65 179.162 1526.65 180.666 1526.65 182.286 1526.05 184.023 1524.85 185.759 1523.65 187.604 1521.85 189.555 1519.43 191.507 1517.01 193.073 1514.67 194.255 1512.39 195.436 1510.12 196.403 1507.32 197.155 1503.99L202.258 1480.73 211.55 1480.73 203.708 1514.78C202.92 1518.22 202.526 1520.87 202.526 1522.73 202.526 1524.16 202.759 1525.2 203.224 1525.85 203.69 1526.49 204.424 1526.81 205.427 1526.81 206.501 1526.81 207.647 1526.38 208.864 1525.5 210.082 1524.62 211.8 1522.95 214.02 1520.48L217.082 1523.48C213.823 1526.96 211.048 1529.41 208.757 1530.84 206.465 1532.28 204.03 1532.99 201.452 1532.99 199.232 1532.99 197.459 1532.26 196.135 1530.79 194.81 1529.32 194.147 1527.37 194.147 1524.93 194.147 1523 194.577 1520.89 195.436 1518.6L194.792 1518.38C191.247 1523.36 187.89 1527.03 184.721 1529.39 181.552 1531.76 178.303 1532.94 174.973 1532.94 171.642 1532.94 169.082 1531.98 167.292 1530.06 165.501 1528.15 164.606 1525.49 164.606 1522.09 164.606 1519.83 165.126 1516.63 166.164 1512.47L169.655 1498.4C170.622 1494.5 171.105 1491.74 171.105 1490.13 171.105 1488.7 170.873 1487.66 170.407 1487.01 169.942 1486.37 169.208 1486.05 168.205 1486.05 167.095 1486.05 165.922 1486.5 164.687 1487.42 163.452 1488.33 161.76 1489.99 159.611 1492.39L156.55 1489.38C159.593 1486.3 161.885 1484.19 163.425 1483.04 164.964 1481.89 166.441 1481.08 167.856 1480.6 169.27 1480.11 170.855 1479.87 172.609 1479.87Z" fill="#FFC000" fill-rule="evenodd"/><text fill="#000000" fill-opacity="0" font-family="Arial,Arial_MSFontService,sans-serif" font-size="53.1201" x="156.55" y="1526.35">ğ‘¢</text><path d="M263.24 1454.52 264.691 1458.66C256.312 1461.41 250.108 1466.79 246.08 1474.8 242.051 1482.8 240.037 1492.85 240.037 1504.95 240.037 1517.49 242.051 1527.82 246.08 1535.95 250.108 1544.07 256.258 1549.52 264.529 1552.27L263.24 1556.41C252.749 1553.65 244.71 1547.72 239.124 1538.6 233.538 1529.49 230.745 1518.45 230.745 1505.49 230.745 1492.56 233.547 1481.53 239.151 1472.38 244.755 1463.23 252.785 1457.28 263.24 1454.52Z" fill="#FF8225" fill-rule="evenodd"/><text fill="#000000" fill-opacity="0" font-family="Arial,Arial_MSFontService,sans-serif" font-size="101.89" x="230.745" y="1543.67">(</text><path d="M287.912 1467.52 295.324 1467.52 292.37 1480.78 308.698 1480.78 307.516 1486.21 291.188 1486.21 286.408 1507.05C285.477 1511.1 284.886 1514 284.635 1515.78 284.385 1517.55 284.259 1518.97 284.259 1520.05 284.259 1524.49 286.103 1526.71 289.791 1526.71 291.367 1526.71 293.041 1526.11 294.813 1524.91 296.586 1523.71 298.69 1521.66 301.124 1518.76L304.24 1521.98C301.124 1525.74 298.126 1528.52 295.243 1530.31 292.361 1532.1 289.344 1532.99 286.193 1532.99 278.709 1532.99 274.967 1529.21 274.967 1521.66 274.967 1519.26 275.272 1516.73 275.88 1514.09L282.218 1486.21 273.195 1486.21 274 1482.5C276.113 1482.47 277.715 1482.31 278.808 1482.02 279.9 1481.73 280.813 1481.34 281.547 1480.84 282.281 1480.34 282.952 1479.62 283.561 1478.69 284.17 1477.76 284.761 1476.57 285.333 1475.12 285.906 1473.67 286.766 1471.13 287.912 1467.52Z" fill="#FF8225" fill-rule="evenodd"/><text fill="#000000" fill-opacity="0" font-family="Arial,Arial_MSFontService,sans-serif" font-size="65.4736" x="273.195" y="1524.81">ğ‘¡</text><path d="M345.589 1497.11 411.76 1497.11 411.76 1504.26 345.589 1504.26Z" fill="#FF8225" fill-rule="evenodd"/><text fill="#000000" fill-opacity="0" font-family="Arial,Arial_MSFontService,sans-serif" font-size="7.14355" x="345.589" y="1503.36">âˆ’</text><path d="M465.449 1480.78 493.594 1480.78 491.982 1487.87 475.171 1487.87 469.101 1514.78C468.314 1518.29 467.92 1520.94 467.92 1522.73 467.92 1524.16 468.153 1525.2 468.618 1525.85 469.084 1526.49 469.818 1526.81 470.82 1526.81 472.038 1526.81 473.363 1526.31 474.795 1525.31 476.227 1524.31 477.856 1522.71 479.683 1520.53L482.798 1523.43C479.718 1526.87 476.97 1529.32 474.553 1530.79 472.136 1532.26 469.656 1532.99 467.114 1532.99 464.572 1532.99 462.567 1532.15 461.099 1530.47 459.63 1528.78 458.896 1526.6 458.896 1523.91 458.896 1521.52 459.398 1518.04 460.4 1513.49L461.152 1510.11C461.725 1507.5 462.576 1504.06 463.704 1499.8 464.831 1495.54 465.968 1491.72 467.114 1488.36L466.846 1487.87 462.226 1487.87C459.863 1487.87 458.046 1488.06 456.775 1488.44 455.504 1488.81 454.259 1489.46 453.042 1490.37 451.824 1491.28 450.553 1492.6 449.228 1494.32L445.845 1491.47C447.778 1489.07 449.47 1487.19 450.92 1485.83 452.371 1484.47 453.758 1483.44 455.083 1482.74 456.408 1482.05 457.84 1481.55 459.38 1481.24 460.919 1480.94 462.943 1480.78 465.449 1480.78Z" fill="#FF8225" fill-rule="evenodd"/><text fill="#000000" fill-opacity="0" font-family="Arial,Arial_MSFontService,sans-serif" font-size="52.207" x="445.845" y="1526.47">ğœ</text><path d="M518.205 1504.28 520.588 1504.28C520.536 1505.71 520.497 1506.99 520.47 1508.13 520.444 1509.26 520.425 1510.36 520.412 1511.43 520.399 1512.49 520.392 1513.55 520.392 1514.59L520.392 1544.28C520.392 1545.08 520.418 1545.78 520.47 1546.37 520.523 1546.95 520.607 1547.45 520.724 1547.85 520.842 1548.26 520.998 1548.6 521.193 1548.89 521.388 1549.17 521.616 1549.42 521.877 1549.63 522.189 1549.94 522.606 1550.18 523.127 1550.35 523.648 1550.52 524.312 1550.66 525.119 1550.78 525.926 1550.9 526.896 1550.99 528.029 1551.06 529.162 1551.12 530.523 1551.17 532.111 1551.19L532.111 1554.59 501.135 1554.59 501.135 1551.19C502.671 1551.14 503.973 1551.08 505.041 1551.02 506.109 1550.95 507.02 1550.86 507.775 1550.74 508.53 1550.63 509.136 1550.5 509.592 1550.35 510.047 1550.21 510.444 1550.03 510.783 1549.82 511.148 1549.59 511.46 1549.34 511.72 1549.06 511.981 1548.79 512.189 1548.44 512.345 1548.03 512.502 1547.61 512.625 1547.1 512.717 1546.5 512.808 1545.91 512.853 1545.16 512.853 1544.28L512.853 1516.27C512.853 1515.25 512.658 1514.54 512.267 1514.12 511.877 1513.7 511.317 1513.5 510.588 1513.5 509.78 1513.5 508.582 1513.91 506.994 1514.75 505.405 1515.58 503.348 1516.82 500.822 1518.46 500.484 1517.86 500.171 1517.26 499.885 1516.66 499.598 1516.06 499.299 1515.45 498.986 1514.82 502.215 1513.05 505.412 1511.29 508.576 1509.53 511.74 1507.77 514.95 1506.02 518.205 1504.28Z" fill="#FF8225" fill-rule="evenodd"/><text fill="#000000" fill-opacity="0" font-family="Arial,Arial_MSFontService,sans-serif" font-size="50.3125" x="498.986" y="1548.3">1</text><path d="M546.296 1454.52C556.751 1457.28 564.781 1463.23 570.385 1472.38 575.989 1481.53 578.791 1492.56 578.791 1505.49 578.791 1518.45 575.998 1529.49 570.412 1538.6 564.826 1547.72 556.787 1553.65 546.296 1556.41L545.006 1552.27C553.278 1549.52 559.428 1544.07 563.456 1535.95 567.484 1527.82 569.499 1517.49 569.499 1504.95 569.499 1492.85 567.493 1482.8 563.483 1474.8 559.473 1466.79 553.26 1461.41 544.845 1458.66Z" fill="#FF8225" fill-rule="evenodd"/><text fill="#000000" fill-opacity="0" font-family="Arial,Arial_MSFontService,sans-serif" font-size="101.89" x="544.845" y="1543.67">)</text><g clip-path="url(#clip4)"><g clip-path="url(#clip5)"><g clip-path="url(#clip6)"><path d="M70.5 117.5C44.65 117.5 23.5 96.35 23.5 70.5 23.5 44.65 44.65 23.5 70.5 23.5 96.35 23.5 117.5 44.65 117.5 70.5 117.5 96.35 96.35 117.5 70.5 117.5ZM70.5 14.6875C39.6562 14.6875 14.6875 39.6562 14.6875 70.5 14.6875 101.344 39.6562 126.312 70.5 126.312 101.344 126.312 126.312 101.344 126.312 70.5 126.312 39.6562 101.344 14.6875 70.5 14.6875Z" fill="#FF8225" transform="matrix(1 0 0 1.00709 581 1434)"/><path d="M73.4375 41.125 67.5625 41.125 67.5625 70.5C67.5625 71.3812 67.8562 72.1156 68.4437 72.5562L89.1531 93.2656 93.2656 89.1531 73.4375 69.325 73.4375 41.125Z" fill="#FF8225" transform="matrix(1 0 0 1.00709 581 1434)"/><path d="M73.4375 32.3125C73.4375 33.9348 72.1223 35.25 70.5 35.25 68.8776 35.25 67.5625 33.9348 67.5625 32.3125 67.5625 30.6901 68.8776 29.375 70.5 29.375 72.1223 29.375 73.4375 30.6901 73.4375 32.3125Z" fill="#FF8225" transform="matrix(1 0 0 1.00709 581 1434)"/><path d="M73.4375 108.687C73.4375 110.31 72.1223 111.625 70.5 111.625 68.8776 111.625 67.5625 110.31 67.5625 108.687 67.5625 107.065 68.8776 105.75 70.5 105.75 72.1223 105.75 73.4375 107.065 73.4375 108.687Z" fill="#FF8225" transform="matrix(1 0 0 1.00709 581 1434)"/><path d="M35.25 70.5C35.25 72.1223 33.9348 73.4375 32.3125 73.4375 30.6901 73.4375 29.375 72.1223 29.375 70.5 29.375 68.8776 30.6901 67.5625 32.3125 67.5625 33.9348 67.5625 35.25 68.8776 35.25 70.5Z" fill="#FF8225" transform="matrix(1 0 0 1.00709 581 1434)"/><path d="M111.625 70.5C111.625 72.1223 110.31 73.4375 108.687 73.4375 107.065 73.4375 105.75 72.1223 105.75 70.5 105.75 68.8776 107.065 67.5625 108.687 67.5625 110.31 67.5625 111.625 68.8776 111.625 70.5Z" fill="#FF8225" transform="matrix(1 0 0 1.00709 581 1434)"/></g></g></g><g clip-path="url(#clip7)"><g clip-path="url(#clip8)"><g clip-path="url(#clip9)"><path d="M1505.5 1354.5C1479.65 1354.5 1458.5 1333.35 1458.5 1307.5 1458.5 1281.65 1479.65 1260.5 1505.5 1260.5 1531.35 1260.5 1552.5 1281.65 1552.5 1307.5 1552.5 1333.35 1531.35 1354.5 1505.5 1354.5ZM1505.5 1251.69C1474.66 1251.69 1449.69 1276.66 1449.69 1307.5 1449.69 1338.34 1474.66 1363.31 1505.5 1363.31 1536.34 1363.31 1561.31 1338.34 1561.31 1307.5 1561.31 1276.66 1536.34 1251.69 1505.5 1251.69Z" fill="#FF8225"/><path d="M1508.44 1278.13 1502.56 1278.13 1502.56 1307.5C1502.56 1308.38 1502.86 1309.12 1503.44 1309.56L1524.15 1330.27 1528.27 1326.15 1508.44 1306.33 1508.44 1278.13Z" fill="#FF8225"/><path d="M1508.44 1269.31C1508.44 1270.93 1507.12 1272.25 1505.5 1272.25 1503.88 1272.25 1502.56 1270.93 1502.56 1269.31 1502.56 1267.69 1503.88 1266.38 1505.5 1266.38 1507.12 1266.38 1508.44 1267.69 1508.44 1269.31Z" fill="#FF8225"/><path d="M1508.44 1345.69C1508.44 1347.31 1507.12 1348.63 1505.5 1348.63 1503.88 1348.63 1502.56 1347.31 1502.56 1345.69 1502.56 1344.07 1503.88 1342.75 1505.5 1342.75 1507.12 1342.75 1508.44 1344.07 1508.44 1345.69Z" fill="#FF8225"/><path d="M1470.25 1307.5C1470.25 1309.12 1468.93 1310.44 1467.31 1310.44 1465.69 1310.44 1464.38 1309.12 1464.38 1307.5 1464.38 1305.88 1465.69 1304.56 1467.31 1304.56 1468.93 1304.56 1470.25 1305.88 1470.25 1307.5Z" fill="#FF8225"/><path d="M1546.63 1307.5C1546.63 1309.12 1545.31 1310.44 1543.69 1310.44 1542.07 1310.44 1540.75 1309.12 1540.75 1307.5 1540.75 1305.88 1542.07 1304.56 1543.69 1304.56 1545.31 1304.56 1546.63 1305.88 1546.63 1307.5Z" fill="#FF8225"/></g></g></g><path d="M1266.46 1387.98C1264.75 1387.98 1263.05 1388.53 1261.39 1389.62 1259.72 1390.71 1257.87 1392.52 1255.83 1395.04 1253.79 1397.57 1252.12 1400.15 1250.83 1402.8 1249.55 1405.45 1248.45 1408.84 1247.56 1412.96L1247.07 1415.21C1246.54 1417.72 1246.27 1420.15 1246.27 1422.52 1246.27 1425.34 1246.89 1427.39 1248.12 1428.64 1249.36 1429.89 1251.41 1430.52 1254.27 1430.52 1255.74 1430.52 1257.14 1430.28 1258.46 1429.79 1259.79 1429.31 1261.14 1428.51 1262.52 1427.4 1263.89 1426.29 1265.2 1424.83 1266.44 1423.03 1267.67 1421.22 1268.81 1418.99 1269.85 1416.34 1270.89 1413.69 1271.69 1410.85 1272.26 1407.83 1272.84 1404.8 1273.12 1401.91 1273.12 1399.15 1273.12 1395.43 1272.6 1392.63 1271.54 1390.77 1270.48 1388.91 1268.79 1387.98 1266.46 1387.98ZM1257.06 1357.1 1260.18 1357.1 1250.73 1394.69 1251.43 1394.91C1254.9 1390.25 1258.16 1386.89 1261.2 1384.81 1264.24 1382.73 1267.29 1381.7 1270.33 1381.7 1274.23 1381.7 1277.27 1383.18 1279.44 1386.15 1281.6 1389.13 1282.68 1393.32 1282.68 1398.72 1282.68 1404.63 1281.49 1410.44 1279.11 1416.15 1276.73 1421.86 1273.43 1426.39 1269.2 1429.74 1264.98 1433.09 1260.25 1434.76 1255.02 1434.76 1250.26 1434.76 1246.04 1433.6 1242.35 1431.27L1237.41 1434.76 1233.97 1433.9 1247.88 1372.51C1248.7 1368.86 1249.12 1366.21 1249.12 1364.56 1249.12 1363.06 1248.66 1362 1247.75 1361.39 1246.83 1360.78 1245.19 1360.44 1242.83 1360.37L1243.48 1357.58Z" fill="#6600CC" fill-rule="evenodd"/><text fill="#000000" fill-opacity="0" font-family="Arial,Arial_MSFontService,sans-serif" font-size="77.666" x="1233.97" y="1425.05">ğ‘</text><path d="M1339.48 1381.43C1342.05 1381.43 1343.92 1382.1 1345.06 1383.44 1346.21 1384.78 1346.78 1386.58 1346.78 1388.84 1346.78 1390.56 1346.48 1392.53 1345.87 1394.75 1345.26 1396.97 1344.4 1399.31 1343.29 1401.78 1342.18 1404.25 1340.85 1406.79 1339.31 1409.38 1337.77 1411.98 1336.07 1414.5 1334.21 1416.96 1332.35 1419.41 1330.36 1421.72 1328.25 1423.89 1326.14 1426.05 1323.94 1427.94 1321.67 1429.55 1319.4 1431.16 1317.09 1432.44 1314.74 1433.39 1312.4 1434.34 1310.06 1434.82 1307.73 1434.82 1306.69 1434.82 1305.83 1434.56 1305.13 1434.04 1304.43 1433.52 1303.86 1432.78 1303.44 1431.83 1303.01 1430.89 1302.7 1429.77 1302.52 1428.48 1302.34 1427.19 1302.25 1425.77 1302.25 1424.23 1302.25 1422.19 1302.38 1420.01 1302.63 1417.68 1302.88 1415.35 1303.2 1413.01 1303.6 1410.65L1305.85 1395.77C1306 1394.91 1306.11 1394.09 1306.2 1393.32 1306.29 1392.55 1306.34 1391.99 1306.34 1391.63 1306.34 1390.52 1306.16 1389.61 1305.8 1388.89 1305.44 1388.18 1304.83 1387.82 1303.97 1387.82 1303.29 1387.82 1302.56 1388.02 1301.77 1388.44 1300.98 1388.85 1300.19 1389.38 1299.38 1390.02 1298.57 1390.67 1297.8 1391.35 1297.04 1392.09 1296.29 1392.82 1295.59 1393.51 1294.95 1394.16L1292.37 1391.15C1293.48 1390 1294.66 1388.87 1295.92 1387.74 1297.17 1386.61 1298.49 1385.59 1299.89 1384.68 1301.29 1383.76 1302.75 1383.03 1304.29 1382.47 1305.83 1381.92 1307.41 1381.64 1309.02 1381.64 1310.38 1381.64 1311.49 1381.87 1312.35 1382.31 1313.21 1382.76 1313.88 1383.35 1314.37 1384.09 1314.85 1384.82 1315.18 1385.63 1315.36 1386.5 1315.54 1387.38 1315.63 1388.25 1315.63 1389.11 1315.63 1389.61 1315.61 1390.09 1315.57 1390.56 1315.54 1391.02 1315.48 1391.45 1315.41 1391.85L1312.4 1411.29C1312.08 1413.33 1311.81 1415.33 1311.6 1417.28 1311.38 1419.23 1311.28 1420.96 1311.28 1422.46 1311.28 1423.97 1311.37 1425.18 1311.55 1426.11 1311.72 1427.05 1312.06 1427.51 1312.57 1427.51 1313.75 1427.51 1315.23 1427.04 1317.02 1426.09 1318.81 1425.14 1320.69 1423.83 1322.66 1422.17 1324.63 1420.5 1326.6 1418.53 1328.57 1416.26 1330.54 1413.98 1332.31 1411.52 1333.89 1408.87 1335.46 1406.22 1336.74 1403.43 1337.73 1400.49 1338.71 1397.56 1339.21 1394.6 1339.21 1391.63 1339.21 1390.34 1338.93 1389.35 1338.37 1388.65 1337.82 1387.95 1336.95 1387.6 1335.77 1387.6 1334.27 1387.6 1332.88 1388.19 1331.61 1389.35 1330.34 1390.51 1329.02 1392.04 1327.66 1393.94L1324.6 1391.2C1325.46 1389.91 1326.47 1388.68 1327.63 1387.5 1328.8 1386.31 1330.03 1385.28 1331.34 1384.38 1332.65 1383.49 1334 1382.77 1335.39 1382.23 1336.79 1381.7 1338.15 1381.43 1339.48 1381.43Z" fill="#FFC000" fill-rule="evenodd"/><text fill="#000000" fill-opacity="0" font-family="Arial,Arial_MSFontService,sans-serif" font-size="53.3887" x="1292.37" y="1428.14">ğ‘£</text><path d="M1393.59 1356.29 1395.04 1360.43C1386.66 1363.18 1380.46 1368.56 1376.43 1376.57 1372.4 1384.57 1370.39 1394.62 1370.39 1406.73 1370.39 1419.26 1372.4 1429.59 1376.43 1437.72 1380.46 1445.84 1386.61 1451.29 1394.88 1454.04L1393.59 1458.18C1383.1 1455.42 1375.06 1449.49 1369.47 1440.38 1363.89 1431.26 1361.09 1420.22 1361.09 1407.26 1361.09 1394.34 1363.9 1383.3 1369.5 1374.15 1375.1 1365 1383.13 1359.05 1393.59 1356.29Z" fill="#FF8225" fill-rule="evenodd"/><text fill="#000000" fill-opacity="0" font-family="Arial,Arial_MSFontService,sans-serif" font-size="101.89" x="1361.09" y="1445.44">(</text><path d="M1418.26 1369.29 1425.67 1369.29 1422.72 1382.56 1439.05 1382.56 1437.86 1387.98 1421.54 1387.98 1416.76 1408.82C1415.82 1412.87 1415.23 1415.78 1414.98 1417.55 1414.73 1419.32 1414.61 1420.74 1414.61 1421.82 1414.61 1426.26 1416.45 1428.48 1420.14 1428.48 1421.72 1428.48 1423.39 1427.88 1425.16 1426.68 1426.93 1425.48 1429.04 1423.43 1431.47 1420.53L1434.59 1423.75C1431.47 1427.51 1428.47 1430.29 1425.59 1432.08 1422.71 1433.87 1419.69 1434.76 1416.54 1434.76 1409.06 1434.76 1405.32 1430.98 1405.32 1423.43 1405.32 1421.03 1405.62 1418.51 1406.23 1415.86L1412.57 1387.98 1403.54 1387.98 1404.35 1384.27C1406.46 1384.24 1408.06 1384.08 1409.16 1383.79 1410.25 1383.5 1411.16 1383.11 1411.9 1382.61 1412.63 1382.11 1413.3 1381.39 1413.91 1380.46 1414.52 1379.53 1415.11 1378.34 1415.68 1376.89 1416.25 1375.44 1417.11 1372.91 1418.26 1369.29Z" fill="#FF8225" fill-rule="evenodd"/><text fill="#000000" fill-opacity="0" font-family="Arial,Arial_MSFontService,sans-serif" font-size="65.4736" x="1403.54" y="1426.58">ğ‘¡</text><path d="M1475.94 1398.88 1542.11 1398.88 1542.11 1406.03 1475.94 1406.03Z" fill="#FF8225" fill-rule="evenodd"/><text fill="#000000" fill-opacity="0" font-family="Arial,Arial_MSFontService,sans-serif" font-size="7.14355" x="1475.94" y="1405.13">âˆ’</text><path d="M1595.8 1382.56 1623.94 1382.56 1622.33 1389.65 1605.52 1389.65 1599.45 1416.55C1598.66 1420.06 1598.27 1422.71 1598.27 1424.5 1598.27 1425.94 1598.5 1426.97 1598.97 1427.62 1599.43 1428.26 1600.17 1428.59 1601.17 1428.59 1602.39 1428.59 1603.71 1428.08 1605.14 1427.08 1606.58 1426.08 1608.2 1424.49 1610.03 1422.3L1613.15 1425.2C1610.07 1428.64 1607.32 1431.09 1604.9 1432.56 1602.48 1434.03 1600 1434.76 1597.46 1434.76 1594.92 1434.76 1592.91 1433.92 1591.45 1432.24 1589.98 1430.55 1589.24 1428.37 1589.24 1425.69 1589.24 1423.29 1589.75 1419.81 1590.75 1415.27L1591.5 1411.88C1592.07 1409.27 1592.92 1405.83 1594.05 1401.57 1595.18 1397.31 1596.32 1393.49 1597.46 1390.13L1597.19 1389.65 1592.57 1389.65C1590.21 1389.65 1588.39 1389.83 1587.12 1390.21 1585.85 1390.58 1584.61 1391.23 1583.39 1392.14 1582.17 1393.06 1580.9 1394.37 1579.58 1396.09L1576.19 1393.24C1578.13 1390.84 1579.82 1388.96 1581.27 1387.6 1582.72 1386.24 1584.11 1385.21 1585.43 1384.52 1586.76 1383.82 1588.19 1383.32 1589.73 1383.01 1591.27 1382.71 1593.29 1382.56 1595.8 1382.56Z" fill="#FF8225" fill-rule="evenodd"/><text fill="#000000" fill-opacity="0" font-family="Arial,Arial_MSFontService,sans-serif" font-size="52.207" x="1576.19" y="1428.24">ğœ</text><path d="M1648.05 1405.78C1650.76 1405.78 1653.07 1406.08 1654.98 1406.69 1656.9 1407.31 1658.45 1408.13 1659.65 1409.17 1660.85 1410.22 1661.72 1411.47 1662.25 1412.92 1662.78 1414.38 1663.05 1415.96 1663.05 1417.65 1663.05 1418.67 1662.98 1419.61 1662.84 1420.48 1662.69 1421.35 1662.44 1422.21 1662.09 1423.06 1661.74 1423.91 1661.28 1424.76 1660.71 1425.62 1660.13 1426.48 1659.42 1427.39 1658.56 1428.35 1657.91 1429.19 1657.06 1430.15 1656.02 1431.24 1654.98 1432.34 1653.84 1433.51 1652.6 1434.76 1651.36 1436.01 1650.07 1437.31 1648.71 1438.67 1647.36 1440.02 1646.04 1441.36 1644.77 1442.69 1643.49 1444.02 1642.32 1445.31 1641.25 1446.56 1640.19 1447.81 1639.31 1448.95 1638.64 1449.99L1653.09 1449.99C1654.31 1449.99 1655.29 1449.95 1656.02 1449.86 1656.75 1449.77 1657.35 1449.56 1657.84 1449.25 1658.32 1448.94 1658.73 1448.46 1659.07 1447.83 1659.4 1447.19 1659.79 1446.31 1660.24 1445.19L1663.87 1445.19C1663.74 1447.04 1663.62 1448.9 1663.5 1450.78 1663.38 1452.65 1663.26 1454.51 1663.13 1456.36L1630.04 1456.36 1630.04 1454.33C1630.67 1452.92 1631.4 1451.54 1632.23 1450.17 1633.06 1448.8 1634 1447.42 1635.04 1446.01 1636.08 1444.6 1637.27 1443.15 1638.6 1441.65 1639.93 1440.16 1641.4 1438.6 1643.01 1436.99 1645.46 1434.54 1647.45 1432.45 1648.99 1430.72 1650.52 1428.98 1651.73 1427.44 1652.62 1426.09 1653.51 1424.73 1654.11 1423.48 1654.44 1422.34 1654.76 1421.19 1654.93 1419.97 1654.93 1418.67 1654.93 1417.34 1654.74 1416.11 1654.36 1414.99 1653.98 1413.87 1653.44 1412.92 1652.74 1412.14 1652.03 1411.36 1651.14 1410.75 1650.06 1410.31 1648.98 1409.86 1647.74 1409.64 1646.33 1409.64 1643.91 1409.64 1641.88 1410.3 1640.24 1411.61 1638.6 1412.93 1637.32 1414.84 1636.41 1417.34L1631.29 1417.34 1631.29 1409.72C1634.63 1408.34 1637.69 1407.34 1640.49 1406.71 1643.29 1406.09 1645.81 1405.78 1648.05 1405.78Z" fill="#FF8225" fill-rule="evenodd"/><text fill="#000000" fill-opacity="0" font-family="Arial,Arial_MSFontService,sans-serif" font-size="50.5859" x="1630.04" y="1450.04">2</text><path d="M1679.19 1356.29C1689.64 1359.05 1697.67 1365 1703.28 1374.15 1708.88 1383.3 1711.68 1394.34 1711.68 1407.26 1711.68 1420.22 1708.89 1431.26 1703.3 1440.38 1697.72 1449.49 1689.68 1455.42 1679.19 1458.18L1677.9 1454.04C1686.17 1451.29 1692.32 1445.84 1696.35 1437.72 1700.38 1429.59 1702.39 1419.26 1702.39 1406.73 1702.39 1394.62 1700.39 1384.57 1696.38 1376.57 1692.36 1368.56 1686.15 1363.18 1677.74 1360.43Z" fill="#FF8225" fill-rule="evenodd"/><text fill="#000000" fill-opacity="0" font-family="Arial,Arial_MSFontService,sans-serif" font-size="101.89" x="1677.74" y="1445.44">)</text><g clip-path="url(#clip10)"><g clip-path="url(#clip11)"><g clip-path="url(#clip12)"><path d="M1384.5 2080.5C1358.65 2080.5 1337.5 2059.35 1337.5 2033.5 1337.5 2007.65 1358.65 1986.5 1384.5 1986.5 1410.35 1986.5 1431.5 2007.65 1431.5 2033.5 1431.5 2059.35 1410.35 2080.5 1384.5 2080.5ZM1384.5 1977.69C1353.66 1977.69 1328.69 2002.66 1328.69 2033.5 1328.69 2064.34 1353.66 2089.31 1384.5 2089.31 1415.34 2089.31 1440.31 2064.34 1440.31 2033.5 1440.31 2002.66 1415.34 1977.69 1384.5 1977.69Z" fill="#FF8225"/><path d="M1387.44 2004.13 1381.56 2004.13 1381.56 2033.5C1381.56 2034.38 1381.86 2035.12 1382.44 2035.56L1403.15 2056.27 1407.27 2052.15 1387.44 2032.33 1387.44 2004.13Z" fill="#FF8225"/><path d="M1387.44 1995.31C1387.44 1996.93 1386.12 1998.25 1384.5 1998.25 1382.88 1998.25 1381.56 1996.93 1381.56 1995.31 1381.56 1993.69 1382.88 1992.38 1384.5 1992.38 1386.12 1992.38 1387.44 1993.69 1387.44 1995.31Z" fill="#FF8225"/><path d="M1387.44 2071.69C1387.44 2073.31 1386.12 2074.62 1384.5 2074.62 1382.88 2074.62 1381.56 2073.31 1381.56 2071.69 1381.56 2070.07 1382.88 2068.75 1384.5 2068.75 1386.12 2068.75 1387.44 2070.07 1387.44 2071.69Z" fill="#FF8225"/><path d="M1349.25 2033.5C1349.25 2035.12 1347.93 2036.44 1346.31 2036.44 1344.69 2036.44 1343.38 2035.12 1343.38 2033.5 1343.38 2031.88 1344.69 2030.56 1346.31 2030.56 1347.93 2030.56 1349.25 2031.88 1349.25 2033.5Z" fill="#FF8225"/><path d="M1425.63 2033.5C1425.63 2035.12 1424.31 2036.44 1422.69 2036.44 1421.07 2036.44 1419.75 2035.12 1419.75 2033.5 1419.75 2031.88 1421.07 2030.56 1422.69 2030.56 1424.31 2030.56 1425.63 2031.88 1425.63 2033.5Z" fill="#FF8225"/></g></g></g><path d="M1180.06 1911.84C1184.82 1911.84 1189.21 1912.38 1193.22 1913.45L1190.59 1925.59 1184.95 1925.59C1184.88 1922.87 1184.65 1920.9 1184.28 1919.68 1183.9 1918.47 1183.29 1917.55 1182.45 1916.94 1181.61 1916.33 1180.42 1916.03 1178.88 1916.03 1175.26 1916.03 1172.01 1917.47 1169.13 1920.35 1166.25 1923.24 1163.89 1927.32 1162.07 1932.6 1160.24 1937.88 1159.33 1942.96 1159.33 1947.83 1159.33 1951.48 1160.04 1954.19 1161.48 1955.96 1162.91 1957.74 1165.06 1958.62 1167.92 1958.62 1171.18 1958.62 1174 1958.01 1176.38 1956.77 1178.76 1955.54 1181.28 1953.59 1183.93 1950.94L1187.2 1954.22C1183.84 1957.94 1180.45 1960.66 1177.03 1962.38 1173.61 1964.1 1169.93 1964.96 1165.99 1964.96 1160.8 1964.96 1156.86 1963.42 1154.17 1960.34 1151.49 1957.26 1150.14 1952.79 1150.14 1946.91 1150.14 1943.08 1150.86 1938.88 1152.29 1934.29 1153.72 1929.71 1155.82 1925.68 1158.58 1922.21 1161.33 1918.73 1164.56 1916.14 1168.24 1914.42 1171.93 1912.7 1175.87 1911.84 1180.06 1911.84Z" fill="#6600CC" fill-rule="evenodd"/><text fill="#000000" fill-opacity="0" font-family="Arial,Arial_MSFontService,sans-serif" font-size="53.1201" x="1150.14" y="1958.32">ğ‘</text><path d="M1212.27 1911.79C1214.56 1911.79 1216.37 1912.56 1217.69 1914.1 1219.02 1915.64 1219.68 1917.71 1219.68 1920.33 1219.68 1923.16 1219.13 1926.68 1218.02 1930.91L1215.65 1940.2C1215.04 1942.56 1214.61 1944.41 1214.34 1945.73 1214.07 1947.06 1213.87 1948.2 1213.75 1949.17 1213.62 1950.14 1213.56 1950.94 1213.56 1951.59 1213.56 1954.06 1213.97 1955.84 1214.79 1956.93 1215.62 1958.02 1216.96 1958.57 1218.82 1958.57 1220.33 1958.57 1221.95 1957.97 1223.68 1956.77 1225.42 1955.57 1227.26 1953.76 1229.21 1951.35 1231.17 1948.93 1232.73 1946.58 1233.91 1944.31 1235.1 1942.04 1236.06 1939.23 1236.82 1935.9L1241.92 1912.65 1251.21 1912.65 1243.37 1946.7C1242.58 1950.14 1242.19 1952.79 1242.19 1954.65 1242.19 1956.08 1242.42 1957.12 1242.88 1957.76 1243.35 1958.41 1244.08 1958.73 1245.09 1958.73 1246.16 1958.73 1247.31 1958.29 1248.52 1957.41 1249.74 1956.54 1251.46 1954.86 1253.68 1952.39L1256.74 1955.4C1253.48 1958.87 1250.71 1961.33 1248.42 1962.76 1246.12 1964.19 1243.69 1964.91 1241.11 1964.91 1238.89 1964.91 1237.12 1964.17 1235.79 1962.71 1234.47 1961.24 1233.81 1959.29 1233.81 1956.85 1233.81 1954.92 1234.24 1952.8 1235.1 1950.51L1234.45 1950.3C1230.91 1955.28 1227.55 1958.95 1224.38 1961.31 1221.21 1963.67 1217.96 1964.85 1214.63 1964.85 1211.3 1964.85 1208.74 1963.9 1206.95 1961.98 1205.16 1960.06 1204.27 1957.41 1204.27 1954 1204.27 1951.75 1204.79 1948.54 1205.82 1944.39L1209.32 1930.32C1210.28 1926.41 1210.77 1923.66 1210.77 1922.05 1210.77 1920.61 1210.53 1919.58 1210.07 1918.93 1209.6 1918.29 1208.87 1917.96 1207.86 1917.96 1206.75 1917.96 1205.58 1918.42 1204.35 1919.33 1203.11 1920.25 1201.42 1921.9 1199.27 1924.3L1196.21 1921.29C1199.25 1918.21 1201.54 1916.1 1203.08 1914.96 1204.62 1913.81 1206.1 1913 1207.52 1912.51 1208.93 1912.03 1210.51 1911.79 1212.27 1911.79Z" fill="#FFC000" fill-rule="evenodd"/><text fill="#000000" fill-opacity="0" font-family="Arial,Arial_MSFontService,sans-serif" font-size="53.1201" x="1196.21" y="1958.27">ğ‘¢</text><path d="M1302.9 1886.44 1304.35 1890.57C1295.97 1893.33 1289.77 1898.71 1285.74 1906.71 1281.71 1914.71 1279.7 1924.77 1279.7 1936.87 1279.7 1949.4 1281.71 1959.73 1285.74 1967.86 1289.77 1975.99 1295.92 1981.43 1304.19 1984.19L1302.9 1988.33C1292.41 1985.57 1284.37 1979.63 1278.78 1970.52 1273.2 1961.41 1270.41 1950.37 1270.41 1937.41 1270.41 1924.48 1273.21 1913.44 1278.81 1904.29 1284.41 1895.15 1292.44 1889.19 1302.9 1886.44Z" fill="#FF8225" fill-rule="evenodd"/><text fill="#000000" fill-opacity="0" font-family="Arial,Arial_MSFontService,sans-serif" font-size="101.89" x="1270.41" y="1975.59">(</text><path d="M1327.57 1899.43 1334.98 1899.43 1332.03 1912.7 1348.36 1912.7 1347.18 1918.13 1330.85 1918.13 1326.07 1938.97C1325.14 1943.01 1324.55 1945.92 1324.3 1947.69 1324.04 1949.47 1323.92 1950.89 1323.92 1951.96 1323.92 1956.4 1325.76 1958.62 1329.45 1958.62 1331.03 1958.62 1332.7 1958.02 1334.47 1956.82 1336.25 1955.62 1338.35 1953.57 1340.78 1950.67L1343.9 1953.9C1340.78 1957.66 1337.79 1960.43 1334.9 1962.22 1332.02 1964.01 1329 1964.91 1325.85 1964.91 1318.37 1964.91 1314.63 1961.13 1314.63 1953.57 1314.63 1951.18 1314.93 1948.65 1315.54 1946L1321.88 1918.13 1312.85 1918.13 1313.66 1914.42C1315.77 1914.38 1317.38 1914.22 1318.47 1913.94 1319.56 1913.65 1320.47 1913.26 1321.21 1912.75 1321.94 1912.25 1322.61 1911.54 1323.22 1910.61 1323.83 1909.67 1324.42 1908.48 1324.99 1907.03 1325.57 1905.58 1326.43 1903.05 1327.57 1899.43Z" fill="#FF8225" fill-rule="evenodd"/><text fill="#000000" fill-opacity="0" font-family="Arial,Arial_MSFontService,sans-serif" font-size="65.4736" x="1312.85" y="1956.72">ğ‘¡</text><path d="M1385.25 1929.03 1451.42 1929.03 1451.42 1936.17 1385.25 1936.17Z" fill="#FF8225" fill-rule="evenodd"/><text fill="#000000" fill-opacity="0" font-family="Arial,Arial_MSFontService,sans-serif" font-size="7.14355" x="1385.25" y="1935.28">âˆ’</text><path d="M1505.11 1912.7 1533.25 1912.7 1531.64 1919.79 1514.83 1919.79 1508.76 1946.7C1507.97 1950.21 1507.58 1952.86 1507.58 1954.65 1507.58 1956.08 1507.81 1957.12 1508.28 1957.76 1508.74 1958.41 1509.48 1958.73 1510.48 1958.73 1511.7 1958.73 1513.02 1958.23 1514.45 1957.23 1515.89 1956.22 1517.52 1954.63 1519.34 1952.45L1522.46 1955.35C1519.38 1958.78 1516.63 1961.24 1514.21 1962.71 1511.8 1964.17 1509.32 1964.91 1506.77 1964.91 1504.23 1964.91 1502.23 1964.07 1500.76 1962.38 1499.29 1960.7 1498.56 1958.52 1498.56 1955.83 1498.56 1953.43 1499.06 1949.96 1500.06 1945.41L1500.81 1942.03C1501.39 1939.41 1502.24 1935.98 1503.36 1931.71 1504.49 1927.45 1505.63 1923.64 1506.77 1920.27L1506.51 1919.79 1501.89 1919.79C1499.52 1919.79 1497.71 1919.98 1496.43 1920.35 1495.16 1920.73 1493.92 1921.37 1492.7 1922.29 1491.48 1923.2 1490.21 1924.52 1488.89 1926.24L1485.5 1923.39C1487.44 1920.99 1489.13 1919.11 1490.58 1917.75 1492.03 1916.39 1493.42 1915.36 1494.74 1914.66 1496.07 1913.96 1497.5 1913.46 1499.04 1913.16 1500.58 1912.85 1502.6 1912.7 1505.11 1912.7Z" fill="#FF8225" fill-rule="evenodd"/><text fill="#000000" fill-opacity="0" font-family="Arial,Arial_MSFontService,sans-serif" font-size="52.207" x="1485.5" y="1958.38">ğœ</text><path d="M1557.36 1935.92C1560.07 1935.92 1562.38 1936.23 1564.3 1936.84 1566.21 1937.45 1567.77 1938.28 1568.96 1939.32 1570.16 1940.36 1571.03 1941.61 1571.56 1943.07 1572.09 1944.53 1572.36 1946.1 1572.36 1947.8 1572.36 1948.81 1572.29 1949.76 1572.15 1950.63 1572 1951.5 1571.76 1952.36 1571.4 1953.21 1571.05 1954.05 1570.59 1954.91 1570.02 1955.76 1569.45 1956.62 1568.73 1957.54 1567.87 1958.5 1567.22 1959.33 1566.37 1960.3 1565.33 1961.39 1564.29 1962.48 1563.15 1963.66 1561.91 1964.91 1560.68 1966.16 1559.38 1967.46 1558.03 1968.81 1556.67 1970.17 1555.36 1971.51 1554.08 1972.83 1552.8 1974.16 1551.63 1975.45 1550.56 1976.7 1549.5 1977.95 1548.62 1979.1 1547.95 1980.14L1562.4 1980.14C1563.62 1980.14 1564.6 1980.09 1565.33 1980 1566.06 1979.91 1566.67 1979.71 1567.15 1979.4 1567.63 1979.08 1568.04 1978.61 1568.38 1977.97 1568.72 1977.33 1569.11 1976.45 1569.55 1975.33L1573.18 1975.33C1573.05 1977.18 1572.93 1979.05 1572.81 1980.92 1572.69 1982.8 1572.57 1984.66 1572.44 1986.51L1539.35 1986.51 1539.35 1984.48C1539.98 1983.07 1540.71 1981.68 1541.54 1980.32 1542.37 1978.95 1543.31 1977.56 1544.35 1976.16 1545.4 1974.75 1546.58 1973.3 1547.91 1971.8 1549.24 1970.3 1550.71 1968.75 1552.32 1967.13 1554.77 1964.68 1556.76 1962.59 1558.3 1960.86 1559.84 1959.13 1561.05 1957.59 1561.93 1956.23 1562.82 1954.88 1563.42 1953.63 1563.75 1952.48 1564.07 1951.34 1564.24 1950.11 1564.24 1948.81 1564.24 1947.48 1564.05 1946.26 1563.67 1945.14 1563.29 1944.02 1562.75 1943.07 1562.05 1942.29 1561.35 1941.51 1560.45 1940.89 1559.37 1940.45 1558.29 1940.01 1557.05 1939.79 1555.64 1939.79 1553.22 1939.79 1551.19 1940.45 1549.55 1941.76 1547.91 1943.08 1546.63 1944.98 1545.72 1947.48L1540.6 1947.48 1540.6 1939.87C1543.94 1938.49 1547 1937.48 1549.8 1936.86 1552.6 1936.23 1555.12 1935.92 1557.36 1935.92Z" fill="#FF8225" fill-rule="evenodd"/><text fill="#000000" fill-opacity="0" font-family="Arial,Arial_MSFontService,sans-serif" font-size="50.5859" x="1539.35" y="1980.18">2</text><path d="M1588.5 1886.44C1598.95 1889.19 1606.98 1895.15 1612.59 1904.29 1618.19 1913.44 1620.99 1924.48 1620.99 1937.41 1620.99 1950.37 1618.2 1961.41 1612.62 1970.52 1607.03 1979.63 1598.99 1985.57 1588.5 1988.33L1587.21 1984.19C1595.48 1981.43 1601.63 1975.99 1605.66 1967.86 1609.69 1959.73 1611.7 1949.4 1611.7 1936.87 1611.7 1924.77 1609.7 1914.71 1605.69 1906.71 1601.68 1898.71 1595.46 1893.33 1587.05 1890.57Z" fill="#FF8225" fill-rule="evenodd"/><text fill="#000000" fill-opacity="0" font-family="Arial,Arial_MSFontService,sans-serif" font-size="101.89" x="1587.05" y="1975.59">)</text><path d="M5.00409-4.71431 33.2899 25.3102 23.2818 34.7388-5.00409 4.71431ZM42.7186 35.3184 71.0044 65.3429 60.9962 74.7716 32.7104 44.747ZM83.2723 58.313 96.5459 102.48 53.2478 86.5988Z" fill="#FF0000" transform="matrix(1 0 0 -1 2003 1523.48)"/><path d="M2155.22 1402.02 2134.47 1450.41C2136.66 1451.44 2139.16 1451.99 2141.95 1452.06 2148.11 1452.23 2152.83 1450.02 2156.12 1445.43 2159.42 1440.84 2161.18 1434.02 2161.43 1424.97 2161.71 1414.48 2159.64 1406.83 2155.22 1402.02ZM2142.94 1396.85C2136.79 1396.69 2132.07 1398.89 2128.8 1403.46 2125.52 1408.03 2123.76 1414.86 2123.52 1423.95 2123.24 1434.51 2125.29 1442.18 2129.67 1446.95L2150.42 1398.5C2148.12 1397.48 2145.63 1396.93 2142.94 1396.85ZM2157.87 1381.13 2164.1 1381.3 2158.66 1393.94C2162.7 1396.74 2165.73 1400.81 2167.73 1406.17 2169.74 1411.52 2170.64 1417.87 2170.45 1425.21 2170.26 1432.37 2169.02 1438.56 2166.75 1443.78 2164.48 1449 2161.19 1452.97 2156.87 1455.68 2152.55 1458.4 2147.35 1459.67 2141.27 1459.51 2137.62 1459.41 2134.32 1458.81 2131.38 1457.69L2127.08 1467.73 2120.85 1467.56 2126.23 1455.03C2122.23 1452.23 2119.22 1448.18 2117.21 1442.86 2115.2 1437.54 2114.3 1431.15 2114.5 1423.71 2114.69 1416.55 2115.92 1410.36 2118.19 1405.14 2120.47 1399.91 2123.76 1395.95 2128.08 1393.23 2132.39 1390.52 2137.6 1389.24 2143.68 1389.4 2147.37 1389.5 2150.65 1390.11 2153.52 1391.23Z" fill-rule="evenodd"/><text fill="#000000" fill-opacity="0" font-family="Arial,Arial_MSFontService,sans-serif" font-size="86.5944" x="2114.47" y="1456.9">âˆ…</text><rect x="1733.5" y="1965.5" width="236" height="139" stroke="#000000" stroke-width="4.58333" stroke-miterlimit="8" fill="#FFFFFF"/><rect x="1771" y="1975" width="67" height="100" fill="#FFFFFF"/><path d="M1818.77 1996.88C1821.42 1996.88 1823.7 1997.09 1825.62 1997.52L1824.04 2004.41 1820.47 2004.41C1820.09 2002.87 1819.6 2001.77 1818.99 2001.09 1818.38 2000.41 1817.49 2000.08 1816.3 2000.08 1814.76 2000.08 1813.45 2000.5 1812.39 2001.35 1811.32 2002.2 1810.41 2003.47 1809.65 2005.14 1808.89 2006.82 1808.19 2009.07 1807.54 2011.91L1806.53 2016.33 1816.94 2016.33 1816.05 2020.42 1805.6 2020.42 1798.06 2055.76C1796.82 2061.62 1794.91 2065.99 1792.34 2068.87 1789.78 2071.75 1786.55 2073.19 1782.66 2073.19 1781.52 2073.19 1780.63 2073.12 1779.98 2072.99L1780.67 2069.42C1780.94 2069.5 1781.58 2069.54 1782.58 2069.54 1783.79 2069.54 1784.83 2069.23 1785.7 2068.61 1786.56 2067.99 1787.37 2066.91 1788.11 2065.37 1788.85 2063.83 1789.53 2061.69 1790.16 2058.96L1798.87 2020.42 1792.02 2020.42 1792.63 2017.63C1794.44 2017.52 1795.74 2017.37 1796.54 2017.18 1797.34 2016.99 1797.96 2016.71 1798.4 2016.33 1798.85 2015.95 1799.23 2015.46 1799.54 2014.85 1799.85 2014.24 1800.25 2013.13 1800.73 2011.51 1802.17 2006.64 1804.37 2002.99 1807.36 2000.54 1810.35 1998.1 1814.15 1996.88 1818.77 1996.88Z" fill-rule="evenodd"/><text fill="#000000" fill-opacity="0" font-family="Arial,Arial_MSFontService,sans-serif" font-size="76.313" x="1779.98" y="2063.65">ğ‘“</text><path d="M0 0C13.0687 0 26.1375 12.7713 26.1375 25.5425 26.1375 38.3138 39.2062 51.085 52.2749 51.085" stroke="#000000" stroke-width="10.3125" stroke-miterlimit="8" fill="none" fill-rule="evenodd" transform="matrix(1 0 0 -1 1877 2053.08)"/><path d="M0 0 71.2474 1.16929" stroke="#595959" stroke-width="6.875" stroke-miterlimit="8" fill="none" fill-rule="evenodd" transform="matrix(-1 0 0 1 1935.75 2066.5)"/><path d="M1868.5 2000.5 1868.5 2068.78" stroke="#595959" stroke-width="6.875" stroke-miterlimit="8" fill="none" fill-rule="evenodd"/><rect x="874.5" y="1241.5" width="236" height="140" stroke="#000000" stroke-width="4.58333" stroke-miterlimit="8" fill="#FFFFFF"/><rect x="912" y="1252" width="67.0001" height="100" fill="#FFFFFF"/><path d="M959.673 1273.4C962.321 1273.4 964.604 1273.62 966.522 1274.05L964.941 1280.94 961.375 1280.94C960.997 1279.4 960.504 1278.29 959.896 1277.62 959.288 1276.94 958.389 1276.6 957.201 1276.6 955.661 1276.6 954.357 1277.03 953.29 1277.88 952.223 1278.73 951.311 1280 950.554 1281.67 949.798 1283.35 949.095 1285.6 948.447 1288.44L947.434 1292.86 957.849 1292.86 956.958 1296.95 946.501 1296.95 938.963 1332.29C937.721 1338.15 935.816 1342.52 933.249 1345.4 930.682 1348.28 927.454 1349.72 923.563 1349.72 922.428 1349.72 921.537 1349.65 920.888 1349.51L921.577 1345.95C921.847 1346.03 922.482 1346.07 923.482 1346.07 924.698 1346.07 925.738 1345.76 926.603 1345.14 927.467 1344.51 928.271 1343.43 929.014 1341.89 929.757 1340.35 930.439 1338.22 931.061 1335.49L939.774 1296.95 932.925 1296.95 933.533 1294.15C935.343 1294.04 936.647 1293.9 937.444 1293.71 938.241 1293.52 938.862 1293.23 939.308 1292.86 939.754 1292.48 940.132 1291.98 940.443 1291.38 940.753 1290.77 941.152 1289.65 941.638 1288.03 943.07 1283.17 945.279 1279.52 948.264 1277.07 951.25 1274.63 955.053 1273.4 959.673 1273.4Z" fill-rule="evenodd"/><text fill="#000000" fill-opacity="0" font-family="Arial,Arial_MSFontService,sans-serif" font-size="76.313" x="920.888" y="1340.18">ğ‘“</text><path d="M0 0C13.0687 0 26.1375 12.7713 26.1375 25.5425 26.1375 38.3138 39.2062 51.085 52.2749 51.085" stroke="#000000" stroke-width="10.3125" stroke-miterlimit="8" fill="none" fill-rule="evenodd" transform="matrix(1 0 0 -1 1018 1329.09)"/><path d="M0 0 71.2474 1.16929" stroke="#595959" stroke-width="6.875" stroke-miterlimit="8" fill="none" fill-rule="evenodd" transform="matrix(-1 0 0 1 1076.75 1343.5)"/><path d="M1009.5 1277.5 1009.5 1345.78" stroke="#595959" stroke-width="6.875" stroke-miterlimit="8" fill="none" fill-rule="evenodd"/></g></svg>