<svg width="3845" height="277" xmlns="http://www.w3.org/2000/svg" xmlns:xlink="http://www.w3.org/1999/xlink" overflow="hidden"><defs><clipPath id="clip0"><rect x="110" y="2113" width="3845" height="277"/></clipPath></defs><g clip-path="url(#clip0)" transform="translate(-110 -2113)"><text font-family="Arial,Arial_MSFontService,sans-serif" font-weight="400" font-size="83" transform="matrix(1 0 0 1 1728.58 2218)">Time <tspan font-size="83" x="0" y="99">delay</tspan></text><rect x="808" y="2131" width="108" height="124" fill="#7030A0"/><text font-family="Arial,Arial_MSFontService,sans-serif" font-weight="400" font-size="83" transform="matrix(1 0 0 1 921.429 2218)">Weight<tspan font-size="83" x="0" y="99">s</tspan></text><rect x="1231" y="2129" width="109" height="126" fill="#0070C0"/><text font-family="Arial,Arial_MSFontService,sans-serif" font-weight="400" font-size="83" transform="matrix(1 0 0 1 1342.45 2218)">Biases</text><rect x="110" y="2125" width="109" height="126" fill="#FFC000"/><text fill="#FFC000" font-family="Calibri,Calibri_MSFontService,sans-serif" font-weight="700" font-size="55" transform="matrix(1 0 0 1 151.695 2206)">?<tspan fill="#000000" font-family="Arial,Arial_MSFontService,sans-serif" font-weight="400" font-size="83" x="76.2629" y="12">Synaptic </tspan><tspan fill="#000000" font-family="Arial,Arial_MSFontService,sans-serif" font-weight="400" font-size="83" x="76.2629" y="111">activity</tspan><tspan fill="#000000" font-family="Arial,Arial_MSFontService,sans-serif" font-weight="400" font-size="83" x="3549.56" y="16">Deca</tspan><tspan fill="#000000" font-family="Arial,Arial_MSFontService,sans-serif" font-weight="400" font-size="83" x="3549.56" y="115">y</tspan></text><path d="M3705.57 2125.25 3705.31 2130.71 3704.57 2136.36 3703.42 2141.89 3701.77 2147.37 3697.81 2156.78 3688.31 2152.78 3692.16 2143.62 3691.98 2144.14 3693.48 2139.14 3693.37 2139.58 3694.43 2134.45 3694.36 2134.83 3695.05 2129.58 3695.01 2130 3695.26 2124.75ZM3692.08 2166.29 3691.91 2166.56 3688.65 2170.79 3685.13 2174.52 3681.39 2177.84 3677.39 2180.72 3673.23 2183.09 3668.89 2184.85 3664.31 2185.98 3663.45 2186.05 3662.61 2175.77 3663.06 2175.74 3662.25 2175.87 3666.06 2174.93 3665.35 2175.16 3669.03 2173.66 3668.43 2173.96 3672.05 2171.89 3671.59 2172.19 3675.15 2169.63 3674.74 2169.96 3678.11 2166.96 3677.79 2167.27 3680.98 2163.9 3680.64 2164.29 3683.58 2160.48 3683.28 2160.92 3683.31 2160.87ZM3654.09 2187.26 3653.35 2187.44 3654.02 2187.22 3650.27 2188.72 3650.9 2188.42 3647.28 2190.48 3647.77 2190.16 3644.27 2192.72 3644.65 2192.42 3641.28 2195.42 3641.6 2195.1 3638.41 2198.48 3638.75 2198.08 3635.81 2201.9 3636.11 2201.46 3634.19 2204.58 3625.42 2199.16 3627.48 2195.81 3630.74 2191.59 3634.26 2187.86 3637.98 2184.55 3641.92 2181.66 3646.11 2179.28 3650.51 2177.52 3651.59 2177.25ZM3630.51 2212.37 3630.21 2213.55 3620.21 2211.04 3620.51 2209.86ZM3641.47 2211.03 3618.98 2237.31 3611.45 2203.55Z" fill="#FF0000"/><text font-family="Arial,Arial_MSFontService,sans-serif" font-weight="400" font-size="83" transform="matrix(1 0 0 1 2199.21 2222)">Excitatory feedback</text><path d="M2203.57 2131.25 2203.31 2136.71 2202.57 2142.36 2201.42 2147.89 2199.77 2153.37 2195.51 2163.49 2189.91 2172.56 2186.65 2176.79 2183.13 2180.52 2179.39 2183.84 2175.39 2186.72 2171.23 2189.09 2166.89 2190.85 2162.31 2191.98 2158.09 2192.33 2154.27 2192.64 2155.1 2192.5 2151.35 2193.44 2152.02 2193.22 2148.27 2194.72 2148.9 2194.42 2145.28 2196.48 2145.77 2196.16 2142.27 2198.72 2142.65 2198.42 2139.28 2201.42 2139.6 2201.1 2136.41 2204.48 2136.75 2204.08 2133.81 2207.9 2134.11 2207.46 2128.86 2215.96 2129.48 2214.5 2128.21 2219.55 2118.21 2217.04 2119.67 2211.22 2125.48 2201.81 2128.74 2197.59 2132.26 2193.86 2135.98 2190.55 2139.92 2187.66 2144.11 2185.28 2148.51 2183.52 2153.01 2182.4 2157.24 2182.05 2161.06 2181.74 2160.25 2181.87 2164.06 2180.93 2163.35 2181.16 2167.03 2179.66 2166.43 2179.96 2170.05 2177.89 2169.59 2178.19 2173.15 2175.63 2172.74 2175.96 2176.11 2172.96 2175.79 2173.27 2178.98 2169.9 2178.64 2170.29 2181.58 2166.48 2181.28 2166.92 2186.53 2158.42 2186.16 2159.12 2190.16 2149.62 2189.98 2150.14 2191.48 2145.14 2191.37 2145.58 2192.43 2140.45 2192.36 2140.83 2193.05 2135.58 2193.01 2136 2193.26 2130.75ZM2139.47 2217.03 2116.98 2243.31 2109.45 2209.55Z" fill="#92D050"/><text font-family="Arial,Arial_MSFontService,sans-serif" font-weight="400" font-size="83" transform="matrix(1 0 0 1 2951.75 2218)">Inhibitory <tspan font-size="83" x="0" y="99">feedback</tspan></text><path d="M2964.56 2127.25 2964.3 2132.71 2963.56 2138.36 2962.42 2143.89 2960.77 2149.37 2956.51 2159.49 2950.91 2168.56 2947.65 2172.79 2944.13 2176.52 2940.39 2179.84 2936.39 2182.72 2932.23 2185.09 2927.89 2186.86 2923.31 2187.98 2919.09 2188.33 2915.27 2188.64 2916.1 2188.5 2912.35 2189.44 2913.02 2189.23 2909.27 2190.73 2909.9 2190.42 2906.28 2192.48 2906.77 2192.16 2903.27 2194.72 2903.65 2194.42 2900.28 2197.42 2900.6 2197.1 2897.41 2200.48 2897.75 2200.08 2894.81 2203.9 2895.11 2203.46 2889.86 2211.96 2890.48 2210.5 2889.21 2215.55 2879.21 2213.04 2880.67 2207.22 2886.48 2197.81 2889.74 2193.59 2893.26 2189.86 2896.98 2186.55 2900.92 2183.67 2905.11 2181.28 2909.51 2179.52 2914.01 2178.4 2918.24 2178.05 2922.06 2177.74 2921.25 2177.87 2925.06 2176.93 2924.35 2177.16 2928.03 2175.66 2927.43 2175.96 2931.05 2173.89 2930.59 2174.19 2934.15 2171.63 2933.74 2171.96 2937.11 2168.96 2936.79 2169.27 2939.98 2165.9 2939.64 2166.29 2942.58 2162.48 2942.28 2162.92 2947.53 2154.42 2947.16 2155.12 2951.16 2145.62 2950.98 2146.14 2952.48 2141.14 2952.37 2141.58 2953.43 2136.45 2953.36 2136.83 2954.05 2131.58 2954.01 2132 2954.26 2126.75ZM2900.47 2213.03 2877.98 2239.31 2870.45 2205.55Z" fill="#FF0000"/><rect x="1608" y="2129" width="109" height="126" fill="#FF8225"/></g></svg>