<svg width="2780" height="1335" xmlns="http://www.w3.org/2000/svg" xmlns:xlink="http://www.w3.org/1999/xlink" overflow="hidden"><defs><clipPath id="clip0"><rect x="68" y="1005" width="2780" height="1335"/></clipPath><clipPath id="clip1"><rect x="2164" y="1754" width="142" height="142"/></clipPath><clipPath id="clip2"><rect x="2164" y="1754" width="142" height="142"/></clipPath><clipPath id="clip3"><rect x="2164" y="1754" width="142" height="142"/></clipPath><clipPath id="clip4"><rect x="601" y="1381" width="142" height="143"/></clipPath><clipPath id="clip5"><rect x="601" y="1381" width="142" height="143"/></clipPath><clipPath id="clip6"><rect x="601" y="1381" width="142" height="143"/></clipPath><clipPath id="clip7"><rect x="1435" y="1237" width="142" height="142"/></clipPath><clipPath id="clip8"><rect x="1435" y="1237" width="142" height="142"/></clipPath><clipPath id="clip9"><rect x="1435" y="1237" width="142" height="142"/></clipPath><clipPath id="clip10"><rect x="1314" y="1963" width="142" height="142"/></clipPath><clipPath id="clip11"><rect x="1314" y="1963" width="142" height="142"/></clipPath><clipPath id="clip12"><rect x="1314" y="1963" width="142" height="142"/></clipPath></defs><g clip-path="url(#clip0)" transform="translate(-68 -1005)"><path d="M0.0820767-6.87451 290.169-3.41107 290.005 10.3379-0.0820767 6.87451ZM283.459-17.2422 324.46 3.87382 282.967 24.0049Z" fill="#FF0000" transform="matrix(-1 0 0 1 1434.46 1307)"/><path d="M0 0C76.8116 0 153.623 137.624 153.623 275.249" stroke="#FF0000" stroke-width="13.75" stroke-miterlimit="8" fill="none" fill-rule="evenodd" transform="matrix(-1.83697e-16 -1 -1 1.83697e-16 1851.25 1460.62)"/><path d="M1978.68 1654.66C1982.13 1654.66 1984.62 1655.55 1986.15 1657.35 1987.68 1659.14 1988.44 1661.55 1988.44 1664.56 1988.44 1666.86 1988.04 1669.49 1987.22 1672.46 1986.41 1675.42 1985.26 1678.56 1983.78 1681.86 1982.3 1685.16 1980.52 1688.55 1978.47 1692.02 1976.41 1695.49 1974.14 1698.86 1971.65 1702.14 1969.16 1705.41 1966.5 1708.5 1963.68 1711.4 1960.86 1714.29 1957.93 1716.81 1954.89 1718.97 1951.85 1721.12 1948.76 1722.83 1945.63 1724.1 1942.49 1725.37 1939.37 1726 1936.26 1726 1934.87 1726 1933.71 1725.66 1932.78 1724.96 1931.85 1724.27 1931.09 1723.29 1930.52 1722.02 1929.95 1720.75 1929.54 1719.26 1929.3 1717.53 1929.06 1715.81 1928.94 1713.92 1928.94 1711.86 1928.94 1709.13 1929.11 1706.22 1929.44 1703.11 1929.78 1700 1930.21 1696.86 1930.73 1693.7L1933.75 1673.82C1933.94 1672.67 1934.1 1671.58 1934.22 1670.55 1934.34 1669.53 1934.4 1668.77 1934.4 1668.29 1934.4 1666.81 1934.16 1665.59 1933.68 1664.63 1933.2 1663.68 1932.39 1663.2 1931.24 1663.2 1930.33 1663.2 1929.35 1663.47 1928.29 1664.02 1927.24 1664.57 1926.18 1665.28 1925.1 1666.14 1924.02 1667 1922.98 1667.92 1921.98 1668.9 1920.97 1669.88 1920.04 1670.81 1919.18 1671.67L1915.73 1667.65C1917.22 1666.12 1918.8 1664.6 1920.47 1663.09 1922.15 1661.58 1923.92 1660.22 1925.78 1659 1927.65 1657.78 1929.61 1656.8 1931.67 1656.06 1933.73 1655.31 1935.83 1654.94 1937.98 1654.94 1939.8 1654.94 1941.29 1655.24 1942.43 1655.84 1943.58 1656.44 1944.48 1657.23 1945.13 1658.21 1945.77 1659.19 1946.21 1660.27 1946.45 1661.44 1946.69 1662.61 1946.81 1663.77 1946.81 1664.92 1946.81 1665.59 1946.79 1666.24 1946.74 1666.86 1946.69 1667.48 1946.62 1668.05 1946.53 1668.58L1942.51 1694.56C1942.08 1697.29 1941.72 1699.96 1941.43 1702.57 1941.14 1705.18 1941 1707.48 1941 1709.49 1941 1711.5 1941.12 1713.13 1941.36 1714.37 1941.6 1715.62 1942.05 1716.24 1942.72 1716.24 1944.3 1716.24 1946.29 1715.61 1948.68 1714.34 1951.07 1713.07 1953.58 1711.32 1956.22 1709.1 1958.85 1706.87 1961.48 1704.24 1964.11 1701.2 1966.74 1698.16 1969.11 1694.88 1971.22 1691.33 1973.32 1687.79 1975.03 1684.06 1976.35 1680.14 1977.67 1676.21 1978.32 1672.27 1978.32 1668.29 1978.32 1666.57 1977.95 1665.24 1977.21 1664.31 1976.47 1663.38 1975.31 1662.91 1973.73 1662.91 1971.72 1662.91 1969.87 1663.69 1968.17 1665.24 1966.47 1666.8 1964.71 1668.84 1962.89 1671.38L1958.8 1667.72C1959.95 1666 1961.3 1664.35 1962.86 1662.77 1964.41 1661.19 1966.06 1659.8 1967.81 1658.6 1969.55 1657.41 1971.36 1656.45 1973.23 1655.73 1975.09 1655.01 1976.91 1654.66 1978.68 1654.66Z" fill="#FFFFFF" fill-rule="evenodd"/><text fill="#000000" fill-opacity="0" font-family="Arial,Arial_MSFontService,sans-serif" font-size="71.3467" x="1915.73" y="1717.08">ğ‘£</text><path d="M775.5 1676.5C775.5 1557.76 871.759 1461.5 990.5 1461.5 1109.24 1461.5 1205.5 1557.76 1205.5 1676.5 1205.5 1795.24 1109.24 1891.5 990.5 1891.5 871.759 1891.5 775.5 1795.24 775.5 1676.5Z" stroke="#000000" stroke-width="4.58333" stroke-miterlimit="8" fill="#F2F2F2" fill-rule="evenodd"/><text font-family="Calibri,Calibri_MSFontService,sans-serif" font-weight="400" font-size="50" transform="matrix(1 0 0 1 894.685 1567)">Neuronal<tspan font-size="50" x="-15.4688" y="42">Population </tspan><tspan font-size="220" x="37.2396" y="191">u</tspan></text><path d="M5.02316-4.69399 33.1871 25.4449 23.1408 34.8329-5.02316 4.69399ZM42.5751 35.4913 70.739 65.6302 60.6927 75.0182 32.5287 44.8792ZM80.127 75.6765 82.021 77.7033 71.9746 87.0913 70.0807 85.0645ZM87.3733 63.2922 100.468 107.513 57.2344 91.4561Z" fill="#FF0000" transform="matrix(-1 0 0 1 837.468 1828)"/><path d="M695.342 1914.52 675.898 1963.46C678.118 1964.42 680.625 1964.91 683.418 1964.91 689.577 1964.91 694.241 1962.57 697.41 1957.9 700.578 1953.22 702.163 1946.36 702.163 1937.3 702.163 1926.81 699.889 1919.22 695.342 1914.52ZM682.934 1909.69C676.776 1909.69 672.121 1912.02 668.97 1916.67 665.819 1921.33 664.243 1928.2 664.243 1937.3 664.243 1947.86 666.499 1955.47 671.011 1960.13L690.454 1911.14C688.127 1910.17 685.62 1909.69 682.934 1909.69ZM697.436 1893.58 703.667 1893.58 698.564 1906.36C702.682 1909.05 705.815 1913.04 707.964 1918.34 710.112 1923.64 711.186 1929.96 711.186 1937.3 711.186 1944.46 710.121 1950.68 707.991 1955.96 705.86 1961.24 702.673 1965.3 698.43 1968.13 694.187 1970.96 689.022 1972.37 682.934 1972.37 679.282 1972.37 675.97 1971.85 672.998 1970.81L668.97 1980.96 662.739 1980.96 667.788 1968.29C663.706 1965.6 660.591 1961.63 658.442 1956.37 656.294 1951.1 655.22 1944.75 655.22 1937.3 655.22 1930.14 656.285 1923.92 658.415 1918.63 660.546 1913.35 663.733 1909.3 667.976 1906.47 672.219 1903.64 677.384 1902.22 683.472 1902.22 687.16 1902.22 690.454 1902.74 693.354 1903.78Z" fill-rule="evenodd"/><text fill="#000000" fill-opacity="0" font-family="Arial,Arial_MSFontService,sans-serif" font-size="87.3877" x="655.22" y="1970.04">âˆ…</text><path d="M952.636 1089.85C950.953 1097.62 950.111 1104.15 950.111 1109.45 950.111 1113.46 950.72 1116.41 951.937 1118.29 953.155 1120.16 955.124 1121.1 957.846 1121.1 961.856 1121.1 965.66 1118.41 969.259 1113.02 972.858 1107.63 975.91 1099.91 978.417 1089.85ZM974.657 1053.64C970.468 1053.64 966.591 1056.29 963.029 1061.59 959.466 1066.89 956.431 1074.48 953.925 1084.37L979.652 1084.37C981.335 1076.81 982.177 1070.31 982.177 1064.87 982.177 1061.11 981.568 1058.3 980.35 1056.44 979.133 1054.57 977.235 1053.64 974.657 1053.64ZM975.302 1049.29C985.686 1049.29 990.878 1055.88 990.878 1069.06 990.878 1072.78 990.457 1077.23 989.616 1082.41 988.774 1087.58 987.44 1092.85 985.614 1098.22 983.788 1103.6 981.478 1108.35 978.685 1112.48 975.892 1116.62 972.67 1119.82 969.017 1122.07 965.365 1124.33 961.426 1125.46 957.201 1125.46 951.866 1125.46 947.891 1123.83 945.277 1120.57 942.663 1117.31 941.356 1112.42 941.356 1105.9 941.356 1102.36 941.75 1097.99 942.538 1092.8 943.326 1087.61 944.624 1082.3 946.432 1076.87 948.24 1071.45 950.568 1066.63 953.414 1062.43 956.261 1058.22 959.537 1054.98 963.243 1052.7 966.95 1050.43 970.969 1049.29 975.302 1049.29Z" fill="#0070C0" fill-rule="evenodd"/><text fill="#000000" fill-opacity="0" font-family="Arial,Arial_MSFontService,sans-serif" font-size="76.1621" x="941.356" y="1115.94">ğœƒ</text><path d="M1005.03 1107.17C1006.9 1107.17 1008.4 1107.8 1009.52 1109.07 1010.64 1110.33 1011.2 1112.02 1011.2 1114.12 1011.2 1115.27 1011.1 1116.55 1010.89 1117.95 1010.68 1119.36 1010.33 1120.93 1009.83 1122.68 1008.84 1126.25 1008.06 1129.37 1007.49 1132.05 1006.92 1134.74 1006.63 1136.7 1006.63 1137.95 1006.63 1139.52 1006.94 1140.68 1007.55 1141.45 1008.16 1142.22 1009.14 1142.6 1010.5 1142.6 1011.72 1142.6 1013.03 1142.15 1014.42 1141.23 1015.82 1140.32 1017.15 1139.14 1018.43 1137.7 1019.7 1136.25 1020.84 1134.64 1021.85 1132.86 1022.85 1131.07 1023.58 1129.31 1024.05 1127.56L1028.35 1107.99 1036.04 1107.99 1030.03 1133.5C1029.72 1134.83 1029.5 1136.01 1029.36 1137.05 1029.23 1138.1 1029.17 1138.98 1029.17 1139.71 1029.17 1140.7 1029.35 1141.42 1029.72 1141.86 1030.08 1142.3 1030.67 1142.52 1031.47 1142.52 1031.97 1142.52 1032.45 1142.43 1032.92 1142.25 1033.39 1142.07 1033.89 1141.78 1034.42 1141.39 1034.96 1141 1035.54 1140.5 1036.16 1139.89 1036.79 1139.27 1037.49 1138.54 1038.27 1137.68L1040.97 1140.26C1039.66 1141.59 1038.47 1142.72 1037.37 1143.68 1036.28 1144.63 1035.24 1145.41 1034.25 1146.02 1033.26 1146.63 1032.28 1147.07 1031.3 1147.35 1030.32 1147.62 1029.31 1147.76 1028.27 1147.76 1026.4 1147.76 1024.93 1147.15 1023.88 1145.94 1022.82 1144.73 1022.29 1143.07 1022.29 1140.96 1022.29 1140.41 1022.33 1139.86 1022.41 1139.3 1022.49 1138.74 1022.63 1138.2 1022.84 1137.68L1022.37 1137.52C1019.79 1140.93 1017.29 1143.49 1014.85 1145.2 1012.42 1146.9 1009.89 1147.76 1007.26 1147.76 1004.5 1147.76 1002.42 1147.03 1001.03 1145.57 999.632 1144.11 998.935 1142.02 998.935 1139.28 998.935 1138.58 999.059 1137.6 999.306 1136.35 999.554 1135.1 999.86 1133.71 1000.22 1132.17 1000.59 1130.64 1000.98 1129.03 1001.4 1127.35 1001.81 1125.67 1002.2 1124.05 1002.57 1122.5 1002.93 1120.95 1003.24 1119.55 1003.49 1118.28 1003.73 1117.02 1003.86 1116.04 1003.86 1115.34 1003.86 1113.43 1003.08 1112.48 1001.51 1112.48 1001.02 1112.48 1000.54 1112.58 1000.07 1112.78 999.599 1112.97 999.098 1113.27 998.564 1113.66 998.03 1114.05 997.451 1114.54 996.826 1115.14 996.201 1115.74 995.498 1116.44 994.716 1117.25L992.06 1114.71C993.466 1113.3 994.723 1112.12 995.83 1111.16 996.937 1110.19 997.985 1109.42 998.974 1108.83 999.964 1108.25 1000.94 1107.82 1001.9 1107.56 1002.87 1107.3 1003.91 1107.17 1005.03 1107.17Z" fill="#0070C0" fill-rule="evenodd"/><text fill="#000000" fill-opacity="0" font-family="Arial,Arial_MSFontService,sans-serif" font-size="40.5859" x="992.06" y="1142.68">ğ‘¢</text><path d="M0 215C-2.73724e-14 96.2588 96.2588-2.73724e-14 215-5.47447e-14 333.741-1.09489e-13 430 96.2588 430 215 430 333.741 333.741 430 215 430 96.2588 430-1.36862e-13 333.741 0 215Z" stroke="#000000" stroke-width="4.58333" stroke-miterlimit="8" fill="#F2F2F2" fill-rule="evenodd" transform="matrix(-1 0 0 1 2066.5 1461.5)"/><text font-family="Calibri,Calibri_MSFontService,sans-serif" font-weight="400" font-size="50" transform="matrix(1 0 0 1 1756.11 1567)">Neuronal<tspan font-size="50" x="-15.4688" y="42">Population</tspan><tspan font-size="220" x="45.5584" y="191">v</tspan></text><path d="M6.8721-0.199544 8.2007 45.5559-5.54351 45.955-6.8721 0.199544ZM21.7454 38.2847 2.32631 80.1159-19.4873 39.482Z" fill="#92D050" transform="matrix(-1 0 0 1 992.326 1381)"/><path d="M34.9306-5.18281 56.9081-3.27034 75.2398-0.660608 92.9613 2.64231 109.861 6.51782 125.972 10.9117 141.059 15.8341 154.977 21.2217 167.592 26.9499 173.452 30.0449 178.881 33.1841 183.971 36.4236 188.659 39.7723 192.876 43.1724 196.683 46.703 200.123 50.4301 202.973 54.303 205.402 58.3255 207.153 62.5442 208.293 66.8594 208.658 70.8037 194.967 72.0713 194.654 68.6963 194.853 69.8183 193.978 66.5058 194.275 67.3857 192.9 64.0732 193.365 64.991 191.365 61.6785 191.713 62.1997 189.275 58.8872 189.761 59.4757 186.761 56.2257 187.138 56.6037 183.7 53.4162 184.059 53.7266 180.184 50.6016 180.504 50.8444 176.129 47.7194 176.434 47.9252 171.621 44.8627 171.871 45.0139 166.683 42.0139 166.915 42.1419 161.352 39.2044 161.72 39.3849 149.47 33.8224 149.831 33.9739 136.268 28.7239 136.618 28.8484 121.868 24.0359 122.191 24.1327 106.379 19.8203 106.651 19.8886 90.0258 16.0761 90.3028 16.1336 72.8653 12.8836 73.156 12.9314 55.156 10.3689 55.529 10.4116 33.7386 8.51542ZM40.2017 22.6003 0 0 42.2013-18.6012Z" fill="#92D050" transform="matrix(-1 1.22465e-16 1.22465e-16 1 873.801 1311)"/><path d="M0 0C75.9978 0 151.996 51.2971 151.996 102.594" stroke="#92D050" stroke-width="13.75" stroke-miterlimit="8" fill="none" fill-rule="evenodd" transform="matrix(1.83697e-16 1 1 -1.83697e-16 672 1524)"/><path d="M6.87518 34.375 6.87536 69.7655-6.87464 69.7656-6.87482 34.375ZM-20.6248 41.2501 0 0 20.6252 41.2499Z" fill="#92D050" transform="matrix(1 0 0 -1 992 1241.77)"/><path d="M1455.03 2027.12 1698.83 2028.02 1698.78 2041.77 1454.97 2040.88ZM1692 2014.25 1733.18 2035.03 1691.85 2055.5Z" fill="#92D050"/><path d="M1812.46 2258.47C1810.78 2266.24 1809.94 2272.78 1809.94 2278.08 1809.94 2282.09 1810.55 2285.03 1811.77 2286.91 1812.98 2288.79 1814.95 2289.73 1817.67 2289.73 1821.68 2289.73 1825.49 2287.04 1829.09 2281.65 1832.69 2276.26 1835.74 2268.54 1838.24 2258.47ZM1834.48 2222.27C1830.3 2222.27 1826.42 2224.92 1822.86 2230.22 1819.29 2235.52 1816.26 2243.11 1813.75 2253L1839.48 2253C1841.16 2245.44 1842 2238.94 1842 2233.5 1842 2229.74 1841.4 2226.93 1840.18 2225.07 1838.96 2223.2 1837.06 2222.27 1834.48 2222.27ZM1835.13 2217.92C1845.51 2217.92 1850.71 2224.51 1850.71 2237.69 1850.71 2241.41 1850.28 2245.86 1849.44 2251.04 1848.6 2256.21 1847.27 2261.48 1845.44 2266.85 1843.62 2272.22 1841.31 2276.98 1838.51 2281.11 1835.72 2285.25 1832.5 2288.45 1828.85 2290.7 1825.19 2292.96 1821.25 2294.08 1817.03 2294.08 1811.69 2294.08 1807.72 2292.46 1805.1 2289.2 1802.49 2285.94 1801.18 2281.05 1801.18 2274.53 1801.18 2270.99 1801.58 2266.62 1802.37 2261.43 1803.15 2256.24 1804.45 2250.93 1806.26 2245.5 1808.07 2240.08 1810.4 2235.26 1813.24 2231.05 1816.09 2226.85 1819.37 2223.61 1823.07 2221.33 1826.78 2219.06 1830.8 2217.92 1835.13 2217.92Z" fill="#0070C0" fill-rule="evenodd"/><text fill="#000000" fill-opacity="0" font-family="Arial,Arial_MSFontService,sans-serif" font-size="76.1621" x="1801.18" y="2284.56">ğœƒ</text><path d="M1865.33 2275.8C1866.45 2275.8 1867.35 2276.02 1868.04 2276.47 1868.73 2276.91 1869.28 2277.49 1869.68 2278.2 1870.08 2278.92 1870.36 2279.71 1870.5 2280.57 1870.64 2281.43 1870.72 2282.27 1870.72 2283.11 1870.72 2283.6 1870.66 2284.26 1870.56 2285.1L1868.1 2299.24C1867.86 2300.59 1867.67 2301.92 1867.51 2303.22 1867.36 2304.52 1867.28 2305.67 1867.28 2306.66 1867.28 2307.65 1867.34 2308.46 1867.47 2309.08 1867.6 2309.71 1867.73 2310.02 1867.86 2310.02 1868.7 2310.02 1869.77 2309.69 1871.07 2309.02 1872.37 2308.36 1873.74 2307.45 1875.19 2306.29 1876.63 2305.13 1878.08 2303.76 1879.52 2302.17 1880.97 2300.58 1882.27 2298.85 1883.41 2296.99 1884.56 2295.13 1885.49 2293.18 1886.2 2291.13 1886.92 2289.09 1887.28 2287.02 1887.28 2284.94 1887.28 2283.72 1887.05 2282.83 1886.6 2282.29 1886.14 2281.74 1885.52 2281.47 1884.74 2281.47 1883.91 2281.47 1883.02 2281.86 1882.08 2282.66 1881.15 2283.45 1880.17 2284.49 1879.15 2285.76L1876.85 2283.46C1877.47 2282.44 1878.22 2281.47 1879.08 2280.55 1879.93 2279.62 1880.85 2278.81 1881.81 2278.11 1882.77 2277.4 1883.77 2276.84 1884.8 2276.43 1885.83 2276.01 1886.84 2275.8 1887.83 2275.8 1889.88 2275.8 1891.37 2276.45 1892.28 2277.73 1893.19 2279.02 1893.65 2280.75 1893.65 2282.91 1893.65 2284.16 1893.42 2285.59 1892.96 2287.21 1892.51 2288.82 1891.86 2290.53 1891.03 2292.32 1890.2 2294.12 1889.21 2295.96 1888.06 2297.85 1886.91 2299.74 1885.64 2301.58 1884.25 2303.36 1882.86 2305.14 1881.37 2306.82 1879.8 2308.4 1878.22 2309.97 1876.58 2311.35 1874.88 2312.52 1873.17 2313.69 1871.44 2314.62 1869.68 2315.31 1867.92 2316 1866.17 2316.35 1864.43 2316.35 1863.49 2316.35 1862.71 2316.16 1862.08 2315.78 1861.46 2315.4 1860.98 2314.87 1860.64 2314.18 1860.3 2313.49 1860.07 2312.68 1859.93 2311.74 1859.8 2310.8 1859.74 2309.77 1859.74 2308.65 1859.74 2307.17 1859.83 2305.58 1860.01 2303.89 1860.2 2302.19 1860.43 2300.49 1860.72 2298.77 1862.1 2290.41 1862.79 2285.55 1862.79 2284.2 1862.84 2283.24 1862.73 2282.58 1862.45 2282.23 1862.18 2281.88 1861.8 2281.7 1861.3 2281.7 1860.78 2281.7 1860.23 2281.84 1859.64 2282.13 1859.06 2282.42 1858.46 2282.78 1857.86 2283.22 1857.27 2283.67 1856.69 2284.14 1856.13 2284.65 1855.57 2285.16 1855.04 2285.63 1854.54 2286.07L1852.4 2283.46C1853.26 2282.55 1854.17 2281.63 1855.15 2280.72 1856.13 2279.81 1857.16 2278.98 1858.26 2278.24 1859.35 2277.5 1860.49 2276.91 1861.69 2276.47 1862.89 2276.02 1864.1 2275.8 1865.33 2275.8Z" fill="#0070C0" fill-rule="evenodd"/><text fill="#000000" fill-opacity="0" font-family="Arial,Arial_MSFontService,sans-serif" font-size="40.5469" x="1852.4" y="2311.28">ğ‘£</text><path d="M6.875-0.000334465 6.87694 39.8068-6.87306 39.8075-6.875 0.000334465ZM20.6266 32.9311 0.00360892 74.1822-20.6234 32.9332Z" fill="#92D050" transform="matrix(1 0 0 -1 1851 1965.18)"/><path d="M34.9114-5.03071 50.4423-3.70524 75.1791 0.110215 99.3176 5.25552 122.643 11.6746 144.96 19.2409 166.102 27.8121 176.301 32.4947 186.01 37.4129 195.397 42.5217 204.381 47.8478 212.846 53.3627 220.956 59.0272 228.519 64.9093 235.64 70.9299 242.242 77.1394 248.208 83.4986 253.667 90.01 258.528 96.6687 262.696 103.459 266.199 110.398 269.063 117.422 271.146 124.573 272.404 131.84 272.801 138.795 259.074 139.58 258.699 133.017 258.788 133.797 257.663 127.297 257.837 128.048 255.962 121.61 256.196 122.283 253.571 115.846 253.8 116.348 250.55 109.911 250.828 110.409 246.953 104.097 247.26 104.554 242.697 98.3036 242.982 98.667 237.794 92.4795 238.049 92.7663 232.361 86.7038 232.665 87.0078 226.352 81.0703 226.624 81.3126 219.749 75.5001 219.967 75.6768 212.654 69.9893 212.938 70.1989 205.063 64.6989 205.247 64.8228 196.997 59.4478 197.244 59.6013 188.494 54.4138 188.714 54.5387 179.526 49.5387 179.706 49.633 170.206 44.8205 170.444 44.9355 160.506 40.373 160.792 40.4963 139.98 32.0588 140.355 32.1985 118.418 24.761 118.801 24.8786 95.8633 18.5661 96.2542 18.6614 72.5042 13.5989 72.8895 13.6697 48.577 9.91965 49.0404 9.9751 33.7422 8.66949ZM40.1006 22.7794 0 0 42.2838-18.4128Z" fill="#92D050" transform="matrix(1 0 0 -1 1969 2034.15)"/><path d="M0 0C39.1529 0 78.3057 84.4984 78.3057 168.997" stroke="#92D050" stroke-width="13.75" stroke-miterlimit="8" fill="none" fill-rule="evenodd" transform="matrix(-1.83697e-16 -1 -1 1.83697e-16 2235 1754.31)"/><path d="M8.03592 34.1223 9.22804 69.281-4.51406 69.747-5.70618 34.5882ZM-19.2153 41.9252 0 0 22.011 40.5274Z" fill="#92D050" transform="matrix(-1 0 0 1 1851.36 2104)"/><path d="M0 0C71.395 0 142.79 161.928 142.79 323.856" stroke="#92D050" stroke-width="13.75" stroke-miterlimit="8" fill="none" fill-rule="evenodd" transform="matrix(1.83697e-16 1 1 -1.83697e-16 990 1891)"/><g clip-path="url(#clip1)"><g clip-path="url(#clip2)"><g clip-path="url(#clip3)"><path d="M2235.5 1871.5C2209.65 1871.5 2188.5 1850.35 2188.5 1824.5 2188.5 1798.65 2209.65 1777.5 2235.5 1777.5 2261.35 1777.5 2282.5 1798.65 2282.5 1824.5 2282.5 1850.35 2261.35 1871.5 2235.5 1871.5ZM2235.5 1768.69C2204.66 1768.69 2179.69 1793.66 2179.69 1824.5 2179.69 1855.34 2204.66 1880.31 2235.5 1880.31 2266.34 1880.31 2291.31 1855.34 2291.31 1824.5 2291.31 1793.66 2266.34 1768.69 2235.5 1768.69Z" fill="#FF8225"/><path d="M2238.44 1795.13 2232.56 1795.13 2232.56 1824.5C2232.56 1825.38 2232.86 1826.12 2233.44 1826.56L2254.15 1847.27 2258.27 1843.15 2238.44 1823.33 2238.44 1795.13Z" fill="#FF8225"/><path d="M2238.44 1786.31C2238.44 1787.93 2237.12 1789.25 2235.5 1789.25 2233.88 1789.25 2232.56 1787.93 2232.56 1786.31 2232.56 1784.69 2233.88 1783.38 2235.5 1783.38 2237.12 1783.38 2238.44 1784.69 2238.44 1786.31Z" fill="#FF8225"/><path d="M2238.44 1862.69C2238.44 1864.31 2237.12 1865.63 2235.5 1865.63 2233.88 1865.63 2232.56 1864.31 2232.56 1862.69 2232.56 1861.07 2233.88 1859.75 2235.5 1859.75 2237.12 1859.75 2238.44 1861.07 2238.44 1862.69Z" fill="#FF8225"/><path d="M2200.25 1824.5C2200.25 1826.12 2198.93 1827.44 2197.31 1827.44 2195.69 1827.44 2194.38 1826.12 2194.38 1824.5 2194.38 1822.88 2195.69 1821.56 2197.31 1821.56 2198.93 1821.56 2200.25 1822.88 2200.25 1824.5Z" fill="#FF8225"/><path d="M2276.62 1824.5C2276.62 1826.12 2275.31 1827.44 2273.69 1827.44 2272.07 1827.44 2270.75 1826.12 2270.75 1824.5 2270.75 1822.88 2272.07 1821.56 2273.69 1821.56 2275.31 1821.56 2276.62 1822.88 2276.62 1824.5Z" fill="#FF8225"/></g></g></g><path d="M2340.3 1800.73C2336.65 1800.73 2333.37 1802.21 2330.47 1805.16 2327.57 1808.12 2325.29 1812.1 2323.62 1817.11 2321.96 1822.13 2321.12 1827.12 2321.12 1832.1 2321.12 1835.82 2321.63 1838.61 2322.65 1840.45 2323.67 1842.29 2325.38 1843.22 2327.78 1843.22 2328.89 1843.22 2330.02 1842.97 2331.17 1842.49 2332.31 1842.01 2333.5 1841.23 2334.74 1840.15 2335.97 1839.08 2337.19 1837.77 2338.39 1836.23 2339.59 1834.69 2340.69 1833.15 2341.69 1831.59 2342.7 1830.03 2343.63 1828.19 2344.49 1826.06 2345.35 1823.93 2346.08 1821.36 2346.69 1818.35L2347.17 1816.04C2347.71 1813.46 2347.98 1811.03 2347.98 1808.73 2347.98 1805.94 2347.39 1803.91 2346.21 1802.64 2345.02 1801.37 2343.05 1800.73 2340.3 1800.73ZM2362.8 1771.94 2365.97 1771.94 2352.6 1831.4C2351.81 1834.91 2351.42 1837.56 2351.42 1839.35 2351.42 1840.78 2351.65 1841.82 2352.11 1842.46 2352.58 1843.11 2353.31 1843.43 2354.32 1843.43 2355.39 1843.43 2356.54 1842.99 2357.75 1842.12 2358.97 1841.24 2360.69 1839.56 2362.91 1837.09L2365.97 1840.1C2362.68 1843.57 2359.9 1846.03 2357.65 1847.46 2355.39 1848.89 2352.96 1849.61 2350.34 1849.61 2348.12 1849.61 2346.35 1848.87 2345.02 1847.41 2343.7 1845.94 2343.04 1843.99 2343.04 1841.55 2343.04 1839.58 2343.45 1837.49 2344.27 1835.27L2343.57 1835.05C2340.14 1840.07 2336.88 1843.74 2333.8 1846.06 2330.72 1848.39 2327.46 1849.55 2324.02 1849.55 2320.08 1849.55 2317.03 1848.07 2314.87 1845.1 2312.7 1842.12 2311.62 1837.95 2311.62 1832.58 2311.62 1826.42 2312.82 1820.51 2315.24 1814.83 2317.66 1809.15 2320.98 1804.68 2325.2 1801.4 2329.43 1798.13 2334.14 1796.49 2339.33 1796.49 2341.52 1796.49 2343.53 1796.71 2345.37 1797.16 2347.22 1797.61 2349.11 1798.39 2351.04 1799.5L2353.83 1787.09C2354.12 1785.91 2354.37 1784.6 2354.58 1783.17 2354.8 1781.74 2354.91 1780.48 2354.91 1779.41 2354.91 1778.33 2354.71 1777.52 2354.32 1776.96 2353.92 1776.41 2353.36 1776.01 2352.62 1775.76 2351.89 1775.5 2350.57 1775.33 2348.68 1775.22L2349.32 1772.43Z" fill="#6600CC" fill-rule="evenodd"/><text fill="#000000" fill-opacity="0" font-family="Arial,Arial_MSFontService,sans-serif" font-size="77.666" x="2311.62" y="1839.9">ğ‘‘</text><path d="M2420.43 1796.27C2423.01 1796.27 2424.87 1796.94 2426.02 1798.29 2427.17 1799.63 2427.74 1801.43 2427.74 1803.69 2427.74 1805.4 2427.43 1807.37 2426.83 1809.59 2426.22 1811.81 2425.36 1814.16 2424.25 1816.63 2423.14 1819.1 2421.81 1821.63 2420.27 1824.23 2418.73 1826.83 2417.03 1829.35 2415.17 1831.8 2413.31 1834.26 2411.32 1836.57 2409.21 1838.73 2407.1 1840.9 2404.9 1842.79 2402.63 1844.4 2400.36 1846.01 2398.05 1847.29 2395.7 1848.24 2393.35 1849.19 2391.02 1849.66 2388.69 1849.66 2387.65 1849.66 2386.78 1849.4 2386.09 1848.88 2385.39 1848.36 2384.82 1847.63 2384.39 1846.68 2383.96 1845.73 2383.66 1844.61 2383.48 1843.32 2383.3 1842.03 2383.21 1840.62 2383.21 1839.08 2383.21 1837.04 2383.34 1834.86 2383.59 1832.53 2383.84 1830.2 2384.16 1827.85 2384.56 1825.49L2386.81 1810.61C2386.95 1809.75 2387.07 1808.94 2387.16 1808.17 2387.25 1807.4 2387.29 1806.84 2387.29 1806.48 2387.29 1805.37 2387.12 1804.45 2386.76 1803.74 2386.4 1803.02 2385.79 1802.66 2384.93 1802.66 2384.25 1802.66 2383.52 1802.87 2382.73 1803.28 2381.94 1803.69 2381.14 1804.22 2380.34 1804.87 2379.53 1805.51 2378.75 1806.2 2378 1806.93 2377.25 1807.67 2376.55 1808.36 2375.91 1809L2373.33 1805.99C2374.44 1804.85 2375.62 1803.71 2376.87 1802.58 2378.13 1801.46 2379.45 1800.44 2380.85 1799.52 2382.25 1798.61 2383.71 1797.88 2385.25 1797.32 2386.79 1796.77 2388.37 1796.49 2389.98 1796.49 2391.34 1796.49 2392.45 1796.71 2393.31 1797.16 2394.17 1797.61 2394.84 1798.2 2395.32 1798.93 2395.81 1799.67 2396.14 1800.47 2396.32 1801.35 2396.5 1802.23 2396.59 1803.09 2396.59 1803.95 2396.59 1804.45 2396.57 1804.94 2396.53 1805.4 2396.5 1805.87 2396.44 1806.3 2396.37 1806.69L2393.36 1826.14C2393.04 1828.18 2392.77 1830.17 2392.56 1832.12 2392.34 1834.08 2392.24 1835.8 2392.24 1837.31 2392.24 1838.81 2392.33 1840.03 2392.5 1840.96 2392.68 1841.89 2393.02 1842.36 2393.53 1842.36 2394.71 1842.36 2396.19 1841.88 2397.98 1840.93 2399.77 1839.98 2401.65 1838.68 2403.62 1837.01 2405.59 1835.35 2407.56 1833.38 2409.53 1831.1 2411.5 1828.83 2413.27 1826.37 2414.85 1823.72 2416.42 1821.07 2417.7 1818.28 2418.69 1815.34 2419.67 1812.4 2420.17 1809.45 2420.17 1806.48 2420.17 1805.19 2419.89 1804.2 2419.33 1803.5 2418.78 1802.8 2417.91 1802.45 2416.73 1802.45 2415.22 1802.45 2413.84 1803.03 2412.57 1804.2 2411.29 1805.36 2409.98 1806.89 2408.62 1808.79L2405.56 1806.05C2406.42 1804.76 2407.43 1803.52 2408.59 1802.34 2409.75 1801.16 2410.99 1800.12 2412.3 1799.23 2413.6 1798.33 2414.96 1797.62 2416.35 1797.08 2417.75 1796.54 2419.11 1796.27 2420.43 1796.27Z" fill="#FFC000" fill-rule="evenodd"/><text fill="#000000" fill-opacity="0" font-family="Arial,Arial_MSFontService,sans-serif" font-size="53.3887" x="2373.33" y="1842.99">ğ‘£</text><path d="M2474.55 1771.14 2476 1775.27C2467.62 1778.03 2461.42 1783.41 2457.39 1791.41 2453.36 1799.42 2451.34 1809.47 2451.34 1821.57 2451.34 1834.1 2453.36 1844.43 2457.39 1852.56 2461.42 1860.69 2467.57 1866.13 2475.84 1868.89L2474.55 1873.03C2464.06 1870.27 2456.02 1864.33 2450.43 1855.22 2444.85 1846.11 2442.05 1835.07 2442.05 1822.11 2442.05 1809.18 2444.85 1798.14 2450.46 1789 2456.06 1779.85 2464.09 1773.89 2474.55 1771.14Z" fill="#FF8225" fill-rule="evenodd"/><text fill="#000000" fill-opacity="0" font-family="Arial,Arial_MSFontService,sans-serif" font-size="101.89" x="2442.05" y="1860.29">(</text><path d="M2499.22 1784.13 2506.63 1784.13 2503.68 1797.4 2520.01 1797.4 2518.82 1802.83 2502.5 1802.83 2497.72 1823.67C2496.78 1827.71 2496.19 1830.62 2495.94 1832.39 2495.69 1834.17 2495.57 1835.59 2495.57 1836.66 2495.57 1841.1 2497.41 1843.32 2501.1 1843.32 2502.67 1843.32 2504.35 1842.72 2506.12 1841.52 2507.89 1840.32 2510 1838.27 2512.43 1835.37L2515.55 1838.6C2512.43 1842.36 2509.43 1845.13 2506.55 1846.92 2503.67 1848.71 2500.65 1849.61 2497.5 1849.61 2490.02 1849.61 2486.27 1845.83 2486.27 1838.27 2486.27 1835.88 2486.58 1833.35 2487.19 1830.7L2493.53 1802.83 2484.5 1802.83 2485.31 1799.12C2487.42 1799.08 2489.02 1798.92 2490.11 1798.64 2491.21 1798.35 2492.12 1797.96 2492.85 1797.45 2493.59 1796.95 2494.26 1796.24 2494.87 1795.31 2495.48 1794.38 2496.07 1793.18 2496.64 1791.73 2497.21 1790.28 2498.07 1787.75 2499.22 1784.13Z" fill="#FF8225" fill-rule="evenodd"/><text fill="#000000" fill-opacity="0" font-family="Arial,Arial_MSFontService,sans-serif" font-size="65.4736" x="2484.5" y="1841.42">ğ‘¡</text><path d="M2556.9 1813.73 2623.07 1813.73 2623.07 1820.87 2556.9 1820.87Z" fill="#FF8225" fill-rule="evenodd"/><text fill="#000000" fill-opacity="0" font-family="Arial,Arial_MSFontService,sans-serif" font-size="7.14355" x="2556.9" y="1819.98">âˆ’</text><path d="M2676.76 1797.4 2704.9 1797.4 2703.29 1804.49 2686.48 1804.49 2680.41 1831.4C2679.62 1834.91 2679.23 1837.56 2679.23 1839.35 2679.23 1840.78 2679.46 1841.82 2679.93 1842.46 2680.39 1843.11 2681.12 1843.43 2682.13 1843.43 2683.35 1843.43 2684.67 1842.93 2686.1 1841.93 2687.53 1840.92 2689.16 1839.33 2690.99 1837.15L2694.11 1840.05C2691.03 1843.48 2688.28 1845.94 2685.86 1847.41 2683.44 1848.87 2680.96 1849.61 2678.42 1849.61 2675.88 1849.61 2673.87 1848.77 2672.41 1847.08 2670.94 1845.4 2670.2 1843.22 2670.2 1840.53 2670.2 1838.13 2670.71 1834.66 2671.71 1830.11L2672.46 1826.73C2673.03 1824.11 2673.88 1820.68 2675.01 1816.41 2676.14 1812.15 2677.28 1808.34 2678.42 1804.97L2678.15 1804.49 2673.53 1804.49C2671.17 1804.49 2669.35 1804.68 2668.08 1805.05 2666.81 1805.43 2665.57 1806.08 2664.35 1806.99 2663.13 1807.9 2661.86 1809.22 2660.54 1810.94L2657.15 1808.09C2659.09 1805.69 2660.78 1803.81 2662.23 1802.45 2663.68 1801.09 2665.07 1800.06 2666.39 1799.36 2667.72 1798.66 2669.15 1798.16 2670.69 1797.86 2672.23 1797.55 2674.25 1797.4 2676.76 1797.4Z" fill="#FF8225" fill-rule="evenodd"/><text fill="#000000" fill-opacity="0" font-family="Arial,Arial_MSFontService,sans-serif" font-size="52.207" x="2657.15" y="1843.08">ğœ</text><path d="M2729.51 1820.89 2731.9 1820.89C2731.84 1822.33 2731.8 1823.61 2731.78 1824.74 2731.75 1825.87 2731.73 1826.98 2731.72 1828.04 2731.71 1829.11 2731.7 1830.17 2731.7 1831.21L2731.7 1860.89C2731.7 1861.7 2731.73 1862.4 2731.78 1862.98 2731.83 1863.57 2731.91 1864.06 2732.03 1864.47 2732.15 1864.87 2732.31 1865.22 2732.5 1865.5 2732.7 1865.79 2732.92 1866.04 2733.18 1866.25 2733.5 1866.56 2733.91 1866.8 2734.43 1866.97 2734.95 1867.14 2735.62 1867.28 2736.43 1867.4 2737.23 1867.52 2738.2 1867.61 2739.34 1867.67 2740.47 1867.74 2741.83 1867.78 2743.42 1867.81L2743.42 1871.21 2712.44 1871.21 2712.44 1867.81C2713.98 1867.76 2715.28 1867.7 2716.35 1867.63 2717.42 1867.57 2718.33 1867.48 2719.08 1867.36 2719.84 1867.24 2720.44 1867.11 2720.9 1866.97 2721.35 1866.83 2721.75 1866.65 2722.09 1866.44 2722.45 1866.21 2722.77 1865.95 2723.03 1865.68 2723.29 1865.41 2723.5 1865.06 2723.65 1864.64 2723.81 1864.23 2723.93 1863.72 2724.02 1863.12 2724.11 1862.52 2724.16 1861.78 2724.16 1860.89L2724.16 1832.89C2724.16 1831.87 2723.97 1831.15 2723.57 1830.74 2723.18 1830.32 2722.62 1830.11 2721.9 1830.11 2721.09 1830.11 2719.89 1830.53 2718.3 1831.36 2716.71 1832.2 2714.66 1833.43 2712.13 1835.07 2711.79 1834.48 2711.48 1833.88 2711.19 1833.28 2710.91 1832.68 2710.61 1832.07 2710.29 1831.44 2713.52 1829.67 2716.72 1827.91 2719.88 1826.15 2723.05 1824.39 2726.26 1822.64 2729.51 1820.89Z" fill="#FF8225" fill-rule="evenodd"/><text fill="#000000" fill-opacity="0" font-family="Arial,Arial_MSFontService,sans-serif" font-size="50.3125" x="2710.29" y="1864.92">1</text><path d="M2757.6 1771.14C2768.06 1773.89 2776.09 1779.85 2781.69 1789 2787.3 1798.14 2790.1 1809.18 2790.1 1822.11 2790.1 1835.07 2787.3 1846.11 2781.72 1855.22 2776.13 1864.33 2768.09 1870.27 2757.6 1873.03L2756.31 1868.89C2764.59 1866.13 2770.74 1860.69 2774.76 1852.56 2778.79 1844.43 2780.81 1834.1 2780.81 1821.57 2780.81 1809.47 2778.8 1799.42 2774.79 1791.41 2770.78 1783.41 2764.57 1778.03 2756.15 1775.27Z" fill="#FF8225" fill-rule="evenodd"/><text fill="#000000" fill-opacity="0" font-family="Arial,Arial_MSFontService,sans-serif" font-size="101.89" x="2756.15" y="1860.29">)</text><path d="M149.149 1428.68C145.461 1428.68 142.149 1430.17 139.213 1433.14 136.277 1436.11 133.985 1440.1 132.338 1445.09 130.691 1450.09 129.867 1455.07 129.867 1460.05 129.867 1463.78 130.377 1466.56 131.398 1468.4 132.418 1470.25 134.128 1471.17 136.527 1471.17 138.891 1471.17 141.209 1470.15 143.483 1468.11 145.757 1466.07 148.102 1463.16 150.519 1459.38 152.936 1455.6 154.646 1451.24 155.648 1446.3L156.132 1443.99C156.454 1442.52 156.669 1441.25 156.776 1440.18 156.884 1439.1 156.937 1437.94 156.937 1436.69 156.937 1433.93 156.347 1431.91 155.165 1430.62 153.983 1429.33 151.978 1428.68 149.149 1428.68ZM148.075 1424.44C150.403 1424.44 152.578 1424.7 154.601 1425.22 156.624 1425.74 158.71 1426.66 160.858 1427.99L165.8 1424.44 169.237 1425.3 161.342 1459.35C160.554 1462.75 160.16 1465.4 160.16 1467.3 160.16 1468.73 160.393 1469.77 160.858 1470.42 161.324 1471.06 162.058 1471.38 163.06 1471.38 164.135 1471.38 165.281 1470.95 166.498 1470.07 167.715 1469.19 169.434 1467.52 171.654 1465.05L174.716 1468.05C171.493 1471.49 168.745 1473.94 166.471 1475.39 164.197 1476.84 161.736 1477.56 159.086 1477.56 156.866 1477.56 155.093 1476.83 153.768 1475.36 152.444 1473.89 151.781 1471.94 151.781 1469.5 151.781 1467.54 152.193 1465.44 153.017 1463.22L152.318 1463.01C148.881 1468.02 145.622 1471.69 142.543 1474.02 139.463 1476.34 136.205 1477.51 132.768 1477.51 128.829 1477.51 125.776 1476.02 123.61 1473.05 121.443 1470.08 120.36 1465.91 120.36 1460.53 120.36 1454.38 121.569 1448.46 123.986 1442.78 126.403 1437.11 129.724 1432.63 133.949 1429.36 138.174 1426.08 142.883 1424.44 148.075 1424.44Z" fill="#6600CC" fill-rule="evenodd"/><text fill="#000000" fill-opacity="0" font-family="Arial,Arial_MSFontService,sans-serif" font-size="53.1201" x="120.36" y="1470.92">ğ‘</text><path d="M193.371 1424.44C195.663 1424.44 197.471 1425.21 198.796 1426.75 200.121 1428.29 200.783 1430.37 200.783 1432.98 200.783 1435.81 200.228 1439.34 199.118 1443.56L196.755 1452.85C196.146 1455.22 195.708 1457.06 195.439 1458.39 195.171 1459.71 194.974 1460.86 194.848 1461.82 194.723 1462.79 194.66 1463.6 194.66 1464.24 194.66 1466.71 195.072 1468.49 195.896 1469.59 196.719 1470.68 198.062 1471.22 199.924 1471.22 201.428 1471.22 203.048 1470.62 204.785 1469.42 206.522 1468.22 208.366 1466.42 210.317 1464 212.269 1461.58 213.835 1459.24 215.017 1456.96 216.199 1454.69 217.165 1451.89 217.917 1448.56L223.02 1425.3 232.312 1425.3 224.47 1459.35C223.682 1462.79 223.288 1465.44 223.288 1467.3 223.288 1468.73 223.521 1469.77 223.987 1470.42 224.452 1471.06 225.186 1471.38 226.189 1471.38 227.263 1471.38 228.409 1470.95 229.626 1470.07 230.844 1469.19 232.562 1467.52 234.783 1465.05L237.844 1468.05C234.586 1471.53 231.81 1473.98 229.519 1475.41 227.227 1476.84 224.792 1477.56 222.214 1477.56 219.994 1477.56 218.222 1476.83 216.897 1475.36 215.572 1473.89 214.909 1471.94 214.909 1469.5 214.909 1467.57 215.339 1465.46 216.199 1463.17L215.554 1462.95C212.009 1467.93 208.652 1471.6 205.483 1473.96 202.314 1476.33 199.065 1477.51 195.735 1477.51 192.405 1477.51 189.844 1476.55 188.054 1474.63 186.264 1472.72 185.368 1470.06 185.368 1466.66 185.368 1464.4 185.888 1461.2 186.926 1457.04L190.417 1442.97C191.384 1439.07 191.867 1436.31 191.867 1434.7 191.867 1433.27 191.635 1432.23 191.169 1431.58 190.704 1430.94 189.97 1430.62 188.967 1430.62 187.857 1430.62 186.684 1431.07 185.449 1431.99 184.214 1432.9 182.522 1434.56 180.373 1436.96L177.312 1433.95C180.355 1430.87 182.647 1428.76 184.187 1427.61 185.727 1426.46 187.204 1425.65 188.618 1425.17 190.032 1424.68 191.617 1424.44 193.371 1424.44Z" fill="#FFC000" fill-rule="evenodd"/><text fill="#000000" fill-opacity="0" font-family="Arial,Arial_MSFontService,sans-serif" font-size="53.1201" x="177.312" y="1470.92">ğ‘¢</text><path d="M284.002 1399.09 285.453 1403.23C277.074 1405.98 270.87 1411.36 266.842 1419.37 262.814 1427.37 260.799 1437.42 260.799 1449.52 260.799 1462.06 262.814 1472.39 266.842 1480.52 270.87 1488.64 277.02 1494.09 285.292 1496.84L284.002 1500.98C273.511 1498.22 265.472 1492.29 259.886 1483.17 254.3 1474.06 251.507 1463.02 251.507 1450.06 251.507 1437.13 254.309 1426.1 259.913 1416.95 265.517 1407.8 273.547 1401.85 284.002 1399.09Z" fill="#FF8225" fill-rule="evenodd"/><text fill="#000000" fill-opacity="0" font-family="Arial,Arial_MSFontService,sans-serif" font-size="101.89" x="251.507" y="1488.24">(</text><path d="M308.674 1412.09 316.086 1412.09 313.132 1425.35 329.46 1425.35 328.278 1430.78 311.95 1430.78 307.17 1451.62C306.239 1455.67 305.648 1458.57 305.397 1460.35 305.147 1462.12 305.021 1463.54 305.021 1464.62 305.021 1469.06 306.865 1471.28 310.554 1471.28 312.129 1471.28 313.803 1470.68 315.576 1469.48 317.348 1468.28 319.452 1466.23 321.887 1463.33L325.002 1466.55C321.887 1470.31 318.888 1473.09 316.005 1474.88 313.123 1476.67 310.106 1477.56 306.955 1477.56 299.471 1477.56 295.729 1473.78 295.729 1466.23 295.729 1463.83 296.034 1461.3 296.642 1458.65L302.98 1430.78 293.957 1430.78 294.763 1427.07C296.875 1427.04 298.478 1426.88 299.57 1426.59 300.662 1426.3 301.575 1425.91 302.309 1425.41 303.043 1424.91 303.714 1424.19 304.323 1423.26 304.932 1422.33 305.523 1421.14 306.096 1419.69 306.668 1418.24 307.528 1415.7 308.674 1412.09Z" fill="#FF8225" fill-rule="evenodd"/><text fill="#000000" fill-opacity="0" font-family="Arial,Arial_MSFontService,sans-serif" font-size="65.4736" x="293.957" y="1469.38">ğ‘¡</text><path d="M366.351 1441.68 432.523 1441.68 432.523 1448.83 366.351 1448.83Z" fill="#FF8225" fill-rule="evenodd"/><text fill="#000000" fill-opacity="0" font-family="Arial,Arial_MSFontService,sans-serif" font-size="7.14355" x="366.351" y="1447.93">âˆ’</text><path d="M486.211 1425.35 514.356 1425.35 512.744 1432.44 495.933 1432.44 489.864 1459.35C489.076 1462.86 488.682 1465.51 488.682 1467.3 488.682 1468.73 488.915 1469.77 489.38 1470.42 489.846 1471.06 490.58 1471.38 491.582 1471.38 492.8 1471.38 494.125 1470.88 495.557 1469.88 496.989 1468.88 498.618 1467.28 500.445 1465.1L503.56 1468C500.48 1471.44 497.732 1473.89 495.315 1475.36 492.898 1476.83 490.419 1477.56 487.876 1477.56 485.334 1477.56 483.329 1476.72 481.861 1475.04 480.393 1473.35 479.659 1471.17 479.659 1468.48 479.659 1466.08 480.16 1462.61 481.162 1458.06L481.914 1454.68C482.487 1452.07 483.338 1448.63 484.466 1444.37 485.594 1440.11 486.73 1436.29 487.876 1432.93L487.608 1432.44 482.989 1432.44C480.625 1432.44 478.808 1432.63 477.537 1433.01 476.266 1433.38 475.021 1434.03 473.804 1434.94 472.587 1435.85 471.315 1437.17 469.991 1438.89L466.607 1436.04C468.54 1433.64 470.232 1431.76 471.682 1430.4 473.133 1429.04 474.52 1428.01 475.845 1427.31 477.17 1426.62 478.602 1426.11 480.142 1425.81 481.682 1425.51 483.705 1425.35 486.211 1425.35Z" fill="#FF8225" fill-rule="evenodd"/><text fill="#000000" fill-opacity="0" font-family="Arial,Arial_MSFontService,sans-serif" font-size="52.207" x="466.607" y="1471.04">ğœ</text><path d="M538.967 1448.85 541.35 1448.85C541.298 1450.28 541.259 1451.56 541.233 1452.7 541.207 1453.83 541.187 1454.93 541.174 1456 541.161 1457.06 541.154 1458.12 541.154 1459.16L541.154 1488.85C541.154 1489.65 541.181 1490.35 541.233 1490.94 541.285 1491.52 541.369 1492.02 541.487 1492.42 541.604 1492.83 541.76 1493.17 541.955 1493.46 542.151 1493.74 542.378 1493.99 542.639 1494.2 542.951 1494.51 543.368 1494.75 543.889 1494.92 544.41 1495.09 545.074 1495.23 545.881 1495.35 546.688 1495.47 547.658 1495.56 548.791 1495.62 549.924 1495.69 551.285 1495.74 552.873 1495.76L552.873 1499.16 521.897 1499.16 521.897 1495.76C523.433 1495.71 524.735 1495.65 525.803 1495.59 526.871 1495.52 527.782 1495.43 528.537 1495.31 529.292 1495.2 529.898 1495.06 530.354 1494.92 530.809 1494.78 531.207 1494.6 531.545 1494.39 531.91 1494.16 532.222 1493.91 532.483 1493.63 532.743 1493.36 532.951 1493.01 533.108 1492.6 533.264 1492.18 533.388 1491.67 533.479 1491.07 533.57 1490.48 533.615 1489.73 533.615 1488.85L533.615 1460.84C533.615 1459.82 533.42 1459.11 533.029 1458.69 532.639 1458.27 532.079 1458.07 531.35 1458.07 530.542 1458.07 529.345 1458.48 527.756 1459.32 526.167 1460.15 524.11 1461.39 521.584 1463.03 521.246 1462.43 520.933 1461.83 520.647 1461.23 520.36 1460.63 520.061 1460.02 519.748 1459.39 522.977 1457.62 526.174 1455.86 529.338 1454.1 532.502 1452.34 535.712 1450.59 538.967 1448.85Z" fill="#FF8225" fill-rule="evenodd"/><text fill="#000000" fill-opacity="0" font-family="Arial,Arial_MSFontService,sans-serif" font-size="50.3125" x="519.748" y="1492.87">1</text><path d="M567.058 1399.09C577.513 1401.85 585.543 1407.8 591.147 1416.95 596.751 1426.1 599.553 1437.13 599.553 1450.06 599.553 1463.02 596.76 1474.06 591.174 1483.17 585.588 1492.29 577.549 1498.22 567.058 1500.98L565.769 1496.84C574.04 1494.09 580.19 1488.64 584.218 1480.52 588.247 1472.39 590.261 1462.06 590.261 1449.52 590.261 1437.42 588.256 1427.37 584.245 1419.37 580.235 1411.36 574.022 1405.98 565.607 1403.23Z" fill="#FF8225" fill-rule="evenodd"/><text fill="#000000" fill-opacity="0" font-family="Arial,Arial_MSFontService,sans-serif" font-size="101.89" x="565.607" y="1488.24">)</text><g clip-path="url(#clip4)"><g clip-path="url(#clip5)"><g clip-path="url(#clip6)"><path d="M70.5 117.5C44.65 117.5 23.5 96.35 23.5 70.5 23.5 44.65 44.65 23.5 70.5 23.5 96.35 23.5 117.5 44.65 117.5 70.5 117.5 96.35 96.35 117.5 70.5 117.5ZM70.5 14.6875C39.6562 14.6875 14.6875 39.6562 14.6875 70.5 14.6875 101.344 39.6562 126.312 70.5 126.312 101.344 126.312 126.312 101.344 126.312 70.5 126.312 39.6562 101.344 14.6875 70.5 14.6875Z" fill="#FF8225" transform="matrix(1 0 0 1.00709 602 1382)"/><path d="M73.4375 41.125 67.5625 41.125 67.5625 70.5C67.5625 71.3812 67.8562 72.1156 68.4437 72.5562L89.1531 93.2656 93.2656 89.1531 73.4375 69.325 73.4375 41.125Z" fill="#FF8225" transform="matrix(1 0 0 1.00709 602 1382)"/><path d="M73.4375 32.3125C73.4375 33.9348 72.1223 35.25 70.5 35.25 68.8776 35.25 67.5625 33.9348 67.5625 32.3125 67.5625 30.6901 68.8776 29.375 70.5 29.375 72.1223 29.375 73.4375 30.6901 73.4375 32.3125Z" fill="#FF8225" transform="matrix(1 0 0 1.00709 602 1382)"/><path d="M73.4375 108.687C73.4375 110.31 72.1223 111.625 70.5 111.625 68.8776 111.625 67.5625 110.31 67.5625 108.687 67.5625 107.065 68.8776 105.75 70.5 105.75 72.1223 105.75 73.4375 107.065 73.4375 108.687Z" fill="#FF8225" transform="matrix(1 0 0 1.00709 602 1382)"/><path d="M35.25 70.5C35.25 72.1223 33.9348 73.4375 32.3125 73.4375 30.6901 73.4375 29.375 72.1223 29.375 70.5 29.375 68.8776 30.6901 67.5625 32.3125 67.5625 33.9348 67.5625 35.25 68.8776 35.25 70.5Z" fill="#FF8225" transform="matrix(1 0 0 1.00709 602 1382)"/><path d="M111.625 70.5C111.625 72.1223 110.31 73.4375 108.687 73.4375 107.065 73.4375 105.75 72.1223 105.75 70.5 105.75 68.8776 107.065 67.5625 108.687 67.5625 110.31 67.5625 111.625 68.8776 111.625 70.5Z" fill="#FF8225" transform="matrix(1 0 0 1.00709 602 1382)"/></g></g></g><g clip-path="url(#clip7)"><g clip-path="url(#clip8)"><g clip-path="url(#clip9)"><path d="M1505.5 1354.5C1479.65 1354.5 1458.5 1333.35 1458.5 1307.5 1458.5 1281.65 1479.65 1260.5 1505.5 1260.5 1531.35 1260.5 1552.5 1281.65 1552.5 1307.5 1552.5 1333.35 1531.35 1354.5 1505.5 1354.5ZM1505.5 1251.69C1474.66 1251.69 1449.69 1276.66 1449.69 1307.5 1449.69 1338.34 1474.66 1363.31 1505.5 1363.31 1536.34 1363.31 1561.31 1338.34 1561.31 1307.5 1561.31 1276.66 1536.34 1251.69 1505.5 1251.69Z" fill="#FF8225"/><path d="M1508.44 1278.13 1502.56 1278.13 1502.56 1307.5C1502.56 1308.38 1502.86 1309.12 1503.44 1309.56L1524.15 1330.27 1528.27 1326.15 1508.44 1306.33 1508.44 1278.13Z" fill="#FF8225"/><path d="M1508.44 1269.31C1508.44 1270.93 1507.12 1272.25 1505.5 1272.25 1503.88 1272.25 1502.56 1270.93 1502.56 1269.31 1502.56 1267.69 1503.88 1266.38 1505.5 1266.38 1507.12 1266.38 1508.44 1267.69 1508.44 1269.31Z" fill="#FF8225"/><path d="M1508.44 1345.69C1508.44 1347.31 1507.12 1348.63 1505.5 1348.63 1503.88 1348.63 1502.56 1347.31 1502.56 1345.69 1502.56 1344.07 1503.88 1342.75 1505.5 1342.75 1507.12 1342.75 1508.44 1344.07 1508.44 1345.69Z" fill="#FF8225"/><path d="M1470.25 1307.5C1470.25 1309.12 1468.93 1310.44 1467.31 1310.44 1465.69 1310.44 1464.38 1309.12 1464.38 1307.5 1464.38 1305.88 1465.69 1304.56 1467.31 1304.56 1468.93 1304.56 1470.25 1305.88 1470.25 1307.5Z" fill="#FF8225"/><path d="M1546.63 1307.5C1546.63 1309.12 1545.31 1310.44 1543.69 1310.44 1542.07 1310.44 1540.75 1309.12 1540.75 1307.5 1540.75 1305.88 1542.07 1304.56 1543.69 1304.56 1545.31 1304.56 1546.63 1305.88 1546.63 1307.5Z" fill="#FF8225"/></g></g></g><path d="M1294.03 1188.33C1292.31 1188.33 1290.62 1188.88 1288.95 1189.97 1287.29 1191.06 1285.43 1192.87 1283.39 1195.39 1281.35 1197.92 1279.69 1200.5 1278.4 1203.15 1277.11 1205.8 1276.02 1209.19 1275.12 1213.31L1274.64 1215.56C1274.1 1218.07 1273.83 1220.5 1273.83 1222.87 1273.83 1225.69 1274.45 1227.74 1275.68 1228.99 1276.92 1230.24 1278.97 1230.87 1281.83 1230.87 1283.3 1230.87 1284.7 1230.63 1286.02 1230.14 1287.35 1229.66 1288.7 1228.86 1290.08 1227.75 1291.46 1226.64 1292.76 1225.18 1294 1223.38 1295.24 1221.57 1296.37 1219.34 1297.41 1216.69 1298.45 1214.04 1299.25 1211.2 1299.83 1208.18 1300.4 1205.15 1300.69 1202.26 1300.69 1199.5 1300.69 1195.78 1300.16 1192.98 1299.1 1191.12 1298.05 1189.26 1296.35 1188.33 1294.03 1188.33ZM1284.63 1157.45 1287.74 1157.45 1278.29 1195.04 1278.99 1195.26C1282.46 1190.6 1285.72 1187.24 1288.76 1185.16 1291.81 1183.08 1294.85 1182.05 1297.89 1182.05 1301.8 1182.05 1304.83 1183.53 1307 1186.5 1309.16 1189.48 1310.25 1193.66 1310.25 1199.07 1310.25 1204.98 1309.06 1210.79 1306.68 1216.5 1304.29 1222.21 1300.99 1226.74 1296.77 1230.09 1292.54 1233.44 1287.81 1235.11 1282.59 1235.11 1277.82 1235.11 1273.6 1233.95 1269.91 1231.62L1264.97 1235.11 1261.53 1234.25 1275.44 1172.86C1276.27 1169.21 1276.68 1166.56 1276.68 1164.91 1276.68 1163.41 1276.22 1162.35 1275.31 1161.74 1274.4 1161.13 1272.76 1160.79 1270.39 1160.72L1271.04 1157.93Z" fill="#6600CC" fill-rule="evenodd"/><text fill="#000000" fill-opacity="0" font-family="Arial,Arial_MSFontService,sans-serif" font-size="77.666" x="1261.53" y="1225.4">ğ‘</text><path d="M1367.04 1181.78C1369.62 1181.78 1371.48 1182.45 1372.62 1183.79 1373.77 1185.13 1374.34 1186.93 1374.34 1189.19 1374.34 1190.91 1374.04 1192.88 1373.43 1195.1 1372.82 1197.32 1371.96 1199.66 1370.85 1202.13 1369.74 1204.6 1368.42 1207.14 1366.88 1209.73 1365.34 1212.33 1363.64 1214.85 1361.77 1217.31 1359.91 1219.76 1357.92 1222.07 1355.81 1224.24 1353.7 1226.4 1351.51 1228.29 1349.23 1229.9 1346.96 1231.51 1344.65 1232.79 1342.3 1233.74 1339.96 1234.69 1337.62 1235.17 1335.29 1235.17 1334.26 1235.17 1333.39 1234.91 1332.69 1234.39 1331.99 1233.87 1331.43 1233.13 1331 1232.18 1330.57 1231.24 1330.26 1230.12 1330.08 1228.83 1329.91 1227.54 1329.82 1226.12 1329.82 1224.58 1329.82 1222.54 1329.94 1220.36 1330.19 1218.03 1330.44 1215.7 1330.76 1213.36 1331.16 1211L1333.41 1196.12C1333.56 1195.26 1333.67 1194.44 1333.76 1193.67 1333.85 1192.9 1333.9 1192.34 1333.9 1191.98 1333.9 1190.87 1333.72 1189.96 1333.36 1189.24 1333 1188.53 1332.39 1188.17 1331.53 1188.17 1330.85 1188.17 1330.12 1188.37 1329.33 1188.79 1328.54 1189.2 1327.75 1189.73 1326.94 1190.37 1326.14 1191.02 1325.36 1191.7 1324.61 1192.44 1323.85 1193.17 1323.16 1193.86 1322.51 1194.51L1319.93 1191.5C1321.04 1190.35 1322.22 1189.22 1323.48 1188.09 1324.73 1186.96 1326.06 1185.94 1327.45 1185.03 1328.85 1184.11 1330.32 1183.38 1331.86 1182.82 1333.4 1182.27 1334.97 1181.99 1336.58 1181.99 1337.94 1181.99 1339.05 1182.22 1339.91 1182.66 1340.77 1183.11 1341.44 1183.7 1341.93 1184.44 1342.41 1185.17 1342.74 1185.98 1342.92 1186.85 1343.1 1187.73 1343.19 1188.6 1343.19 1189.46 1343.19 1189.96 1343.17 1190.44 1343.14 1190.91 1343.1 1191.37 1343.05 1191.8 1342.98 1192.2L1339.97 1211.64C1339.65 1213.68 1339.38 1215.68 1339.16 1217.63 1338.95 1219.58 1338.84 1221.31 1338.84 1222.81 1338.84 1224.32 1338.93 1225.53 1339.11 1226.46 1339.29 1227.4 1339.63 1227.86 1340.13 1227.86 1341.31 1227.86 1342.8 1227.39 1344.59 1226.44 1346.38 1225.49 1348.26 1224.18 1350.23 1222.52 1352.2 1220.85 1354.16 1218.88 1356.13 1216.61 1358.1 1214.33 1359.88 1211.87 1361.45 1209.22 1363.03 1206.57 1364.31 1203.78 1365.29 1200.84 1366.28 1197.91 1366.77 1194.95 1366.77 1191.98 1366.77 1190.69 1366.49 1189.7 1365.94 1189 1365.38 1188.3 1364.51 1187.95 1363.33 1187.95 1361.83 1187.95 1360.44 1188.54 1359.17 1189.7 1357.9 1190.86 1356.58 1192.39 1355.22 1194.29L1352.16 1191.55C1353.02 1190.26 1354.03 1189.03 1355.19 1187.85 1356.36 1186.66 1357.59 1185.63 1358.9 1184.73 1360.21 1183.84 1361.56 1183.12 1362.96 1182.58 1364.35 1182.05 1365.71 1181.78 1367.04 1181.78Z" fill="#FFC000" fill-rule="evenodd"/><text fill="#000000" fill-opacity="0" font-family="Arial,Arial_MSFontService,sans-serif" font-size="53.3887" x="1319.93" y="1228.49">ğ‘£</text><path d="M1421.15 1156.64 1422.6 1160.78C1414.22 1163.53 1408.02 1168.91 1403.99 1176.92 1399.96 1184.92 1397.95 1194.97 1397.95 1207.07 1397.95 1219.61 1399.96 1229.94 1403.99 1238.07 1408.02 1246.19 1414.17 1251.64 1422.44 1254.39L1421.15 1258.53C1410.66 1255.77 1402.62 1249.84 1397.03 1240.72 1391.45 1231.61 1388.66 1220.57 1388.66 1207.61 1388.66 1194.69 1391.46 1183.65 1397.06 1174.5 1402.67 1165.35 1410.7 1159.4 1421.15 1156.64Z" fill="#FF8225" fill-rule="evenodd"/><text fill="#000000" fill-opacity="0" font-family="Arial,Arial_MSFontService,sans-serif" font-size="101.89" x="1388.66" y="1245.79">(</text><path d="M1445.82 1169.64 1453.23 1169.64 1450.28 1182.9 1466.61 1182.9 1465.43 1188.33 1449.1 1188.33 1444.32 1209.17C1443.39 1213.22 1442.8 1216.12 1442.55 1217.9 1442.3 1219.67 1442.17 1221.09 1442.17 1222.17 1442.17 1226.61 1444.01 1228.83 1447.7 1228.83 1449.28 1228.83 1450.95 1228.23 1452.72 1227.03 1454.5 1225.83 1456.6 1223.78 1459.04 1220.88L1462.15 1224.1C1459.04 1227.86 1456.04 1230.64 1453.15 1232.43 1450.27 1234.22 1447.25 1235.11 1444.1 1235.11 1436.62 1235.11 1432.88 1231.33 1432.88 1223.78 1432.88 1221.38 1433.18 1218.86 1433.79 1216.21L1440.13 1188.33 1431.11 1188.33 1431.91 1184.62C1434.02 1184.59 1435.63 1184.43 1436.72 1184.14 1437.81 1183.85 1438.72 1183.46 1439.46 1182.96 1440.19 1182.46 1440.86 1181.74 1441.47 1180.81 1442.08 1179.88 1442.67 1178.69 1443.24 1177.24 1443.82 1175.79 1444.68 1173.25 1445.82 1169.64Z" fill="#FF8225" fill-rule="evenodd"/><text fill="#000000" fill-opacity="0" font-family="Arial,Arial_MSFontService,sans-serif" font-size="65.4736" x="1431.11" y="1226.93">ğ‘¡</text><path d="M1503.5 1199.23 1569.67 1199.23 1569.67 1206.38 1503.5 1206.38Z" fill="#FF8225" fill-rule="evenodd"/><text fill="#000000" fill-opacity="0" font-family="Arial,Arial_MSFontService,sans-serif" font-size="7.14355" x="1503.5" y="1205.48">âˆ’</text><path d="M1623.36 1182.9 1651.5 1182.9 1649.89 1189.99 1633.08 1189.99 1627.01 1216.9C1626.22 1220.41 1625.83 1223.06 1625.83 1224.85 1625.83 1226.29 1626.06 1227.32 1626.53 1227.97 1626.99 1228.61 1627.73 1228.94 1628.73 1228.94 1629.95 1228.94 1631.27 1228.43 1632.71 1227.43 1634.14 1226.43 1635.77 1224.84 1637.59 1222.65L1640.71 1225.55C1637.63 1228.99 1634.88 1231.44 1632.46 1232.91 1630.05 1234.38 1627.57 1235.11 1625.02 1235.11 1622.48 1235.11 1620.48 1234.27 1619.01 1232.59 1617.54 1230.9 1616.81 1228.72 1616.81 1226.03 1616.81 1223.64 1617.31 1220.16 1618.31 1215.61L1619.06 1212.23C1619.64 1209.62 1620.49 1206.18 1621.61 1201.92 1622.74 1197.66 1623.88 1193.84 1625.02 1190.48L1624.76 1189.99 1620.14 1189.99C1617.77 1189.99 1615.96 1190.18 1614.69 1190.56 1613.41 1190.93 1612.17 1191.58 1610.95 1192.49 1609.74 1193.41 1608.46 1194.72 1607.14 1196.44L1603.76 1193.59C1605.69 1191.19 1607.38 1189.31 1608.83 1187.95 1610.28 1186.59 1611.67 1185.56 1612.99 1184.87 1614.32 1184.17 1615.75 1183.67 1617.29 1183.36 1618.83 1183.06 1620.85 1182.9 1623.36 1182.9Z" fill="#FF8225" fill-rule="evenodd"/><text fill="#000000" fill-opacity="0" font-family="Arial,Arial_MSFontService,sans-serif" font-size="52.207" x="1603.76" y="1228.59">ğœ</text><path d="M1675.61 1206.12C1678.32 1206.12 1680.63 1206.43 1682.55 1207.04 1684.46 1207.65 1686.02 1208.48 1687.21 1209.52 1688.41 1210.56 1689.28 1211.81 1689.81 1213.27 1690.35 1214.73 1690.61 1216.31 1690.61 1218 1690.61 1219.02 1690.54 1219.96 1690.4 1220.83 1690.25 1221.7 1690.01 1222.56 1689.66 1223.41 1689.3 1224.26 1688.84 1225.11 1688.27 1225.97 1687.7 1226.83 1686.98 1227.74 1686.12 1228.7 1685.47 1229.54 1684.62 1230.5 1683.58 1231.59 1682.54 1232.69 1681.4 1233.86 1680.16 1235.11 1678.93 1236.36 1677.63 1237.66 1676.28 1239.02 1674.92 1240.37 1673.61 1241.71 1672.33 1243.04 1671.06 1244.37 1669.88 1245.66 1668.82 1246.91 1667.75 1248.16 1666.88 1249.3 1666.2 1250.34L1680.65 1250.34C1681.88 1250.34 1682.85 1250.3 1683.58 1250.21 1684.31 1250.12 1684.92 1249.91 1685.4 1249.6 1685.88 1249.29 1686.29 1248.81 1686.63 1248.18 1686.97 1247.54 1687.36 1246.66 1687.8 1245.54L1691.43 1245.54C1691.3 1247.39 1691.18 1249.25 1691.06 1251.12 1690.94 1253 1690.82 1254.86 1690.69 1256.71L1657.6 1256.71 1657.6 1254.68C1658.23 1253.27 1658.96 1251.89 1659.79 1250.52 1660.63 1249.15 1661.56 1247.77 1662.6 1246.36 1663.65 1244.95 1664.83 1243.5 1666.16 1242 1667.49 1240.51 1668.96 1238.95 1670.57 1237.34 1673.02 1234.89 1675.01 1232.8 1676.55 1231.07 1678.09 1229.33 1679.3 1227.79 1680.18 1226.44 1681.07 1225.08 1681.67 1223.83 1682 1222.69 1682.32 1221.54 1682.49 1220.32 1682.49 1219.02 1682.49 1217.69 1682.3 1216.46 1681.92 1215.34 1681.54 1214.22 1681 1213.27 1680.3 1212.49 1679.6 1211.71 1678.7 1211.1 1677.62 1210.66 1676.54 1210.21 1675.3 1209.99 1673.89 1209.99 1671.47 1209.99 1669.44 1210.65 1667.8 1211.96 1666.16 1213.28 1664.88 1215.19 1663.97 1217.69L1658.85 1217.69 1658.85 1210.07C1662.19 1208.69 1665.25 1207.69 1668.05 1207.06 1670.85 1206.44 1673.37 1206.12 1675.61 1206.12Z" fill="#FF8225" fill-rule="evenodd"/><text fill="#000000" fill-opacity="0" font-family="Arial,Arial_MSFontService,sans-serif" font-size="50.5859" x="1657.6" y="1250.39">2</text><path d="M1706.75 1156.64C1717.21 1159.4 1725.24 1165.35 1730.84 1174.5 1736.44 1183.65 1739.25 1194.69 1739.25 1207.61 1739.25 1220.57 1736.45 1231.61 1730.87 1240.72 1725.28 1249.84 1717.24 1255.77 1706.75 1258.53L1705.46 1254.39C1713.73 1251.64 1719.88 1246.19 1723.91 1238.07 1727.94 1229.94 1729.95 1219.61 1729.95 1207.07 1729.95 1194.97 1727.95 1184.92 1723.94 1176.92 1719.93 1168.91 1713.71 1163.53 1705.3 1160.78Z" fill="#FF8225" fill-rule="evenodd"/><text fill="#000000" fill-opacity="0" font-family="Arial,Arial_MSFontService,sans-serif" font-size="101.89" x="1705.3" y="1245.79">)</text><g clip-path="url(#clip10)"><g clip-path="url(#clip11)"><g clip-path="url(#clip12)"><path d="M1384.5 2080.5C1358.65 2080.5 1337.5 2059.35 1337.5 2033.5 1337.5 2007.65 1358.65 1986.5 1384.5 1986.5 1410.35 1986.5 1431.5 2007.65 1431.5 2033.5 1431.5 2059.35 1410.35 2080.5 1384.5 2080.5ZM1384.5 1977.69C1353.66 1977.69 1328.69 2002.66 1328.69 2033.5 1328.69 2064.34 1353.66 2089.31 1384.5 2089.31 1415.34 2089.31 1440.31 2064.34 1440.31 2033.5 1440.31 2002.66 1415.34 1977.69 1384.5 1977.69Z" fill="#FF8225"/><path d="M1387.44 2004.13 1381.56 2004.13 1381.56 2033.5C1381.56 2034.38 1381.86 2035.12 1382.44 2035.56L1403.15 2056.27 1407.27 2052.15 1387.44 2032.33 1387.44 2004.13Z" fill="#FF8225"/><path d="M1387.44 1995.31C1387.44 1996.93 1386.12 1998.25 1384.5 1998.25 1382.88 1998.25 1381.56 1996.93 1381.56 1995.31 1381.56 1993.69 1382.88 1992.38 1384.5 1992.38 1386.12 1992.38 1387.44 1993.69 1387.44 1995.31Z" fill="#FF8225"/><path d="M1387.44 2071.69C1387.44 2073.31 1386.12 2074.62 1384.5 2074.62 1382.88 2074.62 1381.56 2073.31 1381.56 2071.69 1381.56 2070.07 1382.88 2068.75 1384.5 2068.75 1386.12 2068.75 1387.44 2070.07 1387.44 2071.69Z" fill="#FF8225"/><path d="M1349.25 2033.5C1349.25 2035.12 1347.93 2036.44 1346.31 2036.44 1344.69 2036.44 1343.38 2035.12 1343.38 2033.5 1343.38 2031.88 1344.69 2030.56 1346.31 2030.56 1347.93 2030.56 1349.25 2031.88 1349.25 2033.5Z" fill="#FF8225"/><path d="M1425.63 2033.5C1425.63 2035.12 1424.31 2036.44 1422.69 2036.44 1421.07 2036.44 1419.75 2035.12 1419.75 2033.5 1419.75 2031.88 1421.07 2030.56 1422.69 2030.56 1424.31 2030.56 1425.63 2031.88 1425.63 2033.5Z" fill="#FF8225"/></g></g></g><path d="M1176.46 2115.8C1181.23 2115.8 1185.61 2116.34 1189.62 2117.42L1186.99 2129.55 1181.35 2129.55C1181.28 2126.83 1181.06 2124.86 1180.68 2123.65 1180.31 2122.43 1179.7 2121.52 1178.86 2120.91 1178.01 2120.3 1176.82 2119.99 1175.28 2119.99 1171.67 2119.99 1168.42 2121.43 1165.53 2124.32 1162.65 2127.2 1160.3 2131.28 1158.47 2136.56 1156.65 2141.84 1155.73 2146.92 1155.73 2151.79 1155.73 2155.44 1156.45 2158.16 1157.88 2159.93 1159.31 2161.7 1161.46 2162.59 1164.33 2162.59 1167.58 2162.59 1170.4 2161.97 1172.79 2160.73 1175.17 2159.5 1177.68 2157.56 1180.33 2154.91L1183.61 2158.18C1180.24 2161.91 1176.85 2164.63 1173.43 2166.35 1170.01 2168.06 1166.33 2168.92 1162.39 2168.92 1157.2 2168.92 1153.26 2167.38 1150.58 2164.3 1147.89 2161.23 1146.55 2156.75 1146.55 2150.88 1146.55 2147.05 1147.26 2142.84 1148.7 2138.26 1150.13 2133.67 1152.22 2129.64 1154.98 2126.17 1157.74 2122.7 1160.96 2120.1 1164.65 2118.38 1168.34 2116.66 1172.28 2115.8 1176.46 2115.8Z" fill="#6600CC" fill-rule="evenodd"/><text fill="#000000" fill-opacity="0" font-family="Arial,Arial_MSFontService,sans-serif" font-size="53.1201" x="1146.55" y="2162.28">ğ‘</text><path d="M1208.67 2115.75C1210.97 2115.75 1212.77 2116.52 1214.1 2118.06 1215.42 2119.6 1216.09 2121.68 1216.09 2124.29 1216.09 2127.12 1215.53 2130.65 1214.42 2134.87L1212.06 2144.16C1211.45 2146.53 1211.01 2148.37 1210.74 2149.7 1210.47 2151.02 1210.28 2152.17 1210.15 2153.13 1210.03 2154.1 1209.96 2154.91 1209.96 2155.55 1209.96 2158.02 1210.37 2159.8 1211.2 2160.89 1212.02 2161.99 1213.36 2162.53 1215.23 2162.53 1216.73 2162.53 1218.35 2161.93 1220.09 2160.73 1221.82 2159.53 1223.67 2157.73 1225.62 2155.31 1227.57 2152.89 1229.14 2150.55 1230.32 2148.27 1231.5 2146 1232.47 2143.2 1233.22 2139.87L1238.32 2116.61 1247.61 2116.61 1239.77 2150.66C1238.98 2154.1 1238.59 2156.75 1238.59 2158.61 1238.59 2160.04 1238.82 2161.08 1239.29 2161.73 1239.75 2162.37 1240.49 2162.69 1241.49 2162.69 1242.57 2162.69 1243.71 2162.25 1244.93 2161.38 1246.15 2160.5 1247.86 2158.83 1250.08 2156.36L1253.15 2159.36C1249.89 2162.84 1247.11 2165.29 1244.82 2166.72 1242.53 2168.15 1240.09 2168.87 1237.52 2168.87 1235.3 2168.87 1233.52 2168.14 1232.2 2166.67 1230.87 2165.2 1230.21 2163.25 1230.21 2160.81 1230.21 2158.88 1230.64 2156.77 1231.5 2154.48L1230.86 2154.26C1227.31 2159.24 1223.95 2162.91 1220.79 2165.27 1217.62 2167.64 1214.37 2168.82 1211.04 2168.82 1207.71 2168.82 1205.15 2167.86 1203.36 2165.94 1201.57 2164.03 1200.67 2161.37 1200.67 2157.97 1200.67 2155.71 1201.19 2152.51 1202.23 2148.35L1205.72 2134.28C1206.69 2130.38 1207.17 2127.62 1207.17 2126.01 1207.17 2124.58 1206.94 2123.54 1206.47 2122.89 1206.01 2122.25 1205.27 2121.93 1204.27 2121.93 1203.16 2121.93 1201.99 2122.38 1200.75 2123.3 1199.52 2124.21 1197.82 2125.87 1195.68 2128.26L1192.61 2125.26C1195.66 2122.18 1197.95 2120.06 1199.49 2118.92 1201.03 2117.77 1202.51 2116.96 1203.92 2116.48 1205.33 2115.99 1206.92 2115.75 1208.67 2115.75Z" fill="#FFC000" fill-rule="evenodd"/><text fill="#000000" fill-opacity="0" font-family="Arial,Arial_MSFontService,sans-serif" font-size="53.1201" x="1192.61" y="2162.23">ğ‘¢</text><path d="M1299.3 2090.4 1300.76 2094.53C1292.38 2097.29 1286.17 2102.67 1282.14 2110.67 1278.12 2118.68 1276.1 2128.73 1276.1 2140.83 1276.1 2153.37 1278.12 2163.7 1282.14 2171.82 1286.17 2179.95 1292.32 2185.4 1300.59 2188.15L1299.3 2192.29C1288.81 2189.53 1280.77 2183.6 1275.19 2174.48 1269.6 2165.37 1266.81 2154.33 1266.81 2141.37 1266.81 2128.44 1269.61 2117.41 1275.22 2108.26 1280.82 2099.11 1288.85 2093.16 1299.3 2090.4Z" fill="#FF8225" fill-rule="evenodd"/><text fill="#000000" fill-opacity="0" font-family="Arial,Arial_MSFontService,sans-serif" font-size="101.89" x="1266.81" y="2179.55">(</text><path d="M1323.98 2103.4 1331.39 2103.4 1328.43 2116.66 1344.76 2116.66 1343.58 2122.09 1327.25 2122.09 1322.47 2142.93C1321.54 2146.97 1320.95 2149.88 1320.7 2151.66 1320.45 2153.43 1320.32 2154.85 1320.32 2155.93 1320.32 2160.37 1322.17 2162.59 1325.86 2162.59 1327.43 2162.59 1329.11 2161.99 1330.88 2160.79 1332.65 2159.59 1334.75 2157.54 1337.19 2154.64L1340.3 2157.86C1337.19 2161.62 1334.19 2164.39 1331.31 2166.18 1328.43 2167.98 1325.41 2168.87 1322.26 2168.87 1314.77 2168.87 1311.03 2165.09 1311.03 2157.54 1311.03 2155.14 1311.34 2152.61 1311.94 2149.96L1318.28 2122.09 1309.26 2122.09 1310.06 2118.38C1312.18 2118.35 1313.78 2118.19 1314.87 2117.9 1315.96 2117.61 1316.88 2117.22 1317.61 2116.72 1318.35 2116.22 1319.02 2115.5 1319.63 2114.57 1320.23 2113.64 1320.82 2112.45 1321.4 2111 1321.97 2109.55 1322.83 2107.01 1323.98 2103.4Z" fill="#FF8225" fill-rule="evenodd"/><text fill="#000000" fill-opacity="0" font-family="Arial,Arial_MSFontService,sans-serif" font-size="65.4736" x="1309.26" y="2160.69">ğ‘¡</text><path d="M1381.65 2132.99 1447.82 2132.99 1447.82 2140.14 1381.65 2140.14Z" fill="#FF8225" fill-rule="evenodd"/><text fill="#000000" fill-opacity="0" font-family="Arial,Arial_MSFontService,sans-serif" font-size="7.14355" x="1381.65" y="2139.24">âˆ’</text><path d="M1501.51 2116.66 1529.66 2116.66 1528.05 2123.75 1511.24 2123.75 1505.17 2150.66C1504.38 2154.17 1503.98 2156.82 1503.98 2158.61 1503.98 2160.04 1504.22 2161.08 1504.68 2161.73 1505.15 2162.37 1505.88 2162.69 1506.88 2162.69 1508.1 2162.69 1509.43 2162.19 1510.86 2161.19 1512.29 2160.19 1513.92 2158.59 1515.75 2156.41L1518.86 2159.31C1515.78 2162.75 1513.03 2165.2 1510.62 2166.67 1508.2 2168.14 1505.72 2168.87 1503.18 2168.87 1500.64 2168.87 1498.63 2168.03 1497.16 2166.35 1495.69 2164.66 1494.96 2162.48 1494.96 2159.79 1494.96 2157.39 1495.46 2153.92 1496.46 2149.37L1497.22 2145.99C1497.79 2143.38 1498.64 2139.94 1499.77 2135.68 1500.9 2131.42 1502.03 2127.6 1503.18 2124.24L1502.91 2123.75 1498.29 2123.75C1495.93 2123.75 1494.11 2123.94 1492.84 2124.32 1491.57 2124.69 1490.32 2125.34 1489.11 2126.25 1487.89 2127.16 1486.62 2128.48 1485.29 2130.2L1481.91 2127.35C1483.84 2124.95 1485.53 2123.07 1486.98 2121.71 1488.43 2120.35 1489.82 2119.32 1491.15 2118.62 1492.47 2117.93 1493.9 2117.42 1495.44 2117.12 1496.98 2116.82 1499.01 2116.66 1501.51 2116.66Z" fill="#FF8225" fill-rule="evenodd"/><text fill="#000000" fill-opacity="0" font-family="Arial,Arial_MSFontService,sans-serif" font-size="52.207" x="1481.91" y="2162.34">ğœ</text><path d="M1553.77 2139.88C1556.47 2139.88 1558.79 2140.19 1560.7 2140.8 1562.61 2141.41 1564.17 2142.24 1565.37 2143.28 1566.57 2144.32 1567.43 2145.57 1567.97 2147.03 1568.5 2148.49 1568.77 2150.07 1568.77 2151.76 1568.77 2152.77 1568.69 2153.72 1568.55 2154.59 1568.41 2155.46 1568.16 2156.32 1567.81 2157.17 1567.46 2158.01 1567 2158.87 1566.42 2159.73 1565.85 2160.59 1565.13 2161.5 1564.27 2162.46 1563.62 2163.29 1562.78 2164.26 1561.73 2165.35 1560.69 2166.45 1559.55 2167.62 1558.32 2168.87 1557.08 2170.12 1555.78 2171.42 1554.43 2172.77 1553.08 2174.13 1551.76 2175.47 1550.48 2176.8 1549.21 2178.13 1548.04 2179.41 1546.97 2180.66 1545.9 2181.91 1545.03 2183.06 1544.35 2184.1L1558.81 2184.1C1560.03 2184.1 1561.01 2184.06 1561.73 2183.97 1562.46 2183.87 1563.07 2183.67 1563.55 2183.36 1564.03 2183.05 1564.44 2182.57 1564.78 2181.93 1565.12 2181.3 1565.51 2180.42 1565.95 2179.3L1569.59 2179.3C1569.46 2181.15 1569.33 2183.01 1569.22 2184.88 1569.1 2186.76 1568.97 2188.62 1568.84 2190.47L1535.76 2190.47 1535.76 2188.44C1536.38 2187.03 1537.11 2185.65 1537.95 2184.28 1538.78 2182.91 1539.72 2181.52 1540.76 2180.12 1541.8 2178.71 1542.98 2177.26 1544.31 2175.76 1545.64 2174.26 1547.11 2172.71 1548.73 2171.09 1551.17 2168.65 1553.17 2166.56 1554.7 2164.82 1556.24 2163.09 1557.45 2161.55 1558.34 2160.2 1559.22 2158.84 1559.83 2157.59 1560.15 2156.45 1560.48 2155.3 1560.64 2154.08 1560.64 2152.77 1560.64 2151.45 1560.45 2150.22 1560.07 2149.1 1559.7 2147.98 1559.16 2147.03 1558.45 2146.25 1557.75 2145.47 1556.86 2144.86 1555.78 2144.41 1554.7 2143.97 1553.45 2143.75 1552.05 2143.75 1549.63 2143.75 1547.59 2144.41 1545.95 2145.72 1544.31 2147.04 1543.04 2148.95 1542.13 2151.45L1537.01 2151.45 1537.01 2143.83C1540.34 2142.45 1543.41 2141.45 1546.21 2140.82 1549.01 2140.2 1551.53 2139.88 1553.77 2139.88Z" fill="#FF8225" fill-rule="evenodd"/><text fill="#000000" fill-opacity="0" font-family="Arial,Arial_MSFontService,sans-serif" font-size="50.5859" x="1535.76" y="2184.15">2</text><path d="M1584.9 2090.4C1595.36 2093.16 1603.39 2099.11 1608.99 2108.26 1614.6 2117.41 1617.4 2128.44 1617.4 2141.37 1617.4 2154.33 1614.61 2165.37 1609.02 2174.48 1603.43 2183.6 1595.4 2189.53 1584.9 2192.29L1583.61 2188.15C1591.89 2185.4 1598.04 2179.95 1602.06 2171.82 1606.09 2163.7 1608.11 2153.37 1608.11 2140.83 1608.11 2128.73 1606.1 2118.68 1602.09 2110.67 1598.08 2102.67 1591.87 2097.29 1583.45 2094.53Z" fill="#FF8225" fill-rule="evenodd"/><text fill="#000000" fill-opacity="0" font-family="Arial,Arial_MSFontService,sans-serif" font-size="101.89" x="1583.45" y="2179.55">)</text><path d="M5.00409-4.71431 33.2899 25.3102 23.2818 34.7388-5.00409 4.71431ZM42.7186 35.3184 71.0044 65.3429 60.9962 74.7716 32.7104 44.747ZM83.2723 58.313 96.5459 102.48 53.2478 86.5988Z" fill="#FF0000" transform="matrix(1 0 0 -1 2003 1523.48)"/><path d="M2155.22 1402.02 2134.47 1450.41C2136.66 1451.44 2139.16 1451.99 2141.95 1452.06 2148.11 1452.23 2152.83 1450.02 2156.12 1445.43 2159.42 1440.84 2161.18 1434.02 2161.43 1424.97 2161.71 1414.48 2159.64 1406.83 2155.22 1402.02ZM2142.94 1396.85C2136.79 1396.69 2132.07 1398.89 2128.8 1403.46 2125.52 1408.03 2123.76 1414.86 2123.52 1423.95 2123.24 1434.51 2125.29 1442.18 2129.67 1446.95L2150.42 1398.5C2148.12 1397.48 2145.63 1396.93 2142.94 1396.85ZM2157.87 1381.13 2164.1 1381.3 2158.66 1393.94C2162.7 1396.74 2165.73 1400.81 2167.73 1406.17 2169.74 1411.52 2170.64 1417.87 2170.45 1425.21 2170.26 1432.37 2169.02 1438.56 2166.75 1443.78 2164.48 1449 2161.19 1452.97 2156.87 1455.68 2152.55 1458.4 2147.35 1459.67 2141.27 1459.51 2137.62 1459.41 2134.32 1458.81 2131.38 1457.69L2127.08 1467.73 2120.85 1467.56 2126.23 1455.03C2122.23 1452.23 2119.22 1448.18 2117.21 1442.86 2115.2 1437.54 2114.3 1431.15 2114.5 1423.71 2114.69 1416.55 2115.92 1410.36 2118.19 1405.14 2120.47 1399.91 2123.76 1395.95 2128.08 1393.23 2132.39 1390.52 2137.6 1389.24 2143.68 1389.4 2147.37 1389.5 2150.65 1390.11 2153.52 1391.23Z" fill-rule="evenodd"/><text fill="#000000" fill-opacity="0" font-family="Arial,Arial_MSFontService,sans-serif" font-size="86.5944" x="2114.47" y="1456.9">âˆ…</text><rect x="1733.5" y="1965.5" width="236" height="139" stroke="#000000" stroke-width="4.58333" stroke-miterlimit="8" fill="#FFFFFF"/><rect x="1771" y="1975" width="67" height="100" fill="#FFFFFF"/><path d="M1818.77 1996.88C1821.42 1996.88 1823.7 1997.09 1825.62 1997.52L1824.04 2004.41 1820.47 2004.41C1820.09 2002.87 1819.6 2001.77 1818.99 2001.09 1818.38 2000.41 1817.49 2000.08 1816.3 2000.08 1814.76 2000.08 1813.45 2000.5 1812.39 2001.35 1811.32 2002.2 1810.41 2003.47 1809.65 2005.14 1808.89 2006.82 1808.19 2009.07 1807.54 2011.91L1806.53 2016.33 1816.94 2016.33 1816.05 2020.42 1805.6 2020.42 1798.06 2055.76C1796.82 2061.62 1794.91 2065.99 1792.34 2068.87 1789.78 2071.75 1786.55 2073.19 1782.66 2073.19 1781.52 2073.19 1780.63 2073.12 1779.98 2072.99L1780.67 2069.42C1780.94 2069.5 1781.58 2069.54 1782.58 2069.54 1783.79 2069.54 1784.83 2069.23 1785.7 2068.61 1786.56 2067.99 1787.37 2066.91 1788.11 2065.37 1788.85 2063.83 1789.53 2061.69 1790.16 2058.96L1798.87 2020.42 1792.02 2020.42 1792.63 2017.63C1794.44 2017.52 1795.74 2017.37 1796.54 2017.18 1797.34 2016.99 1797.96 2016.71 1798.4 2016.33 1798.85 2015.95 1799.23 2015.46 1799.54 2014.85 1799.85 2014.24 1800.25 2013.13 1800.73 2011.51 1802.17 2006.64 1804.37 2002.99 1807.36 2000.54 1810.35 1998.1 1814.15 1996.88 1818.77 1996.88Z" fill-rule="evenodd"/><text fill="#000000" fill-opacity="0" font-family="Arial,Arial_MSFontService,sans-serif" font-size="76.313" x="1779.98" y="2063.65">ğ‘“</text><path d="M0 0C13.0687 0 26.1375 12.7713 26.1375 25.5425 26.1375 38.3138 39.2062 51.085 52.2749 51.085" stroke="#000000" stroke-width="10.3125" stroke-miterlimit="8" fill="none" fill-rule="evenodd" transform="matrix(1 0 0 -1 1877 2053.08)"/><path d="M0 0 71.2474 1.16929" stroke="#595959" stroke-width="6.875" stroke-miterlimit="8" fill="none" fill-rule="evenodd" transform="matrix(-1 0 0 1 1935.75 2066.5)"/><path d="M1868.5 2000.5 1868.5 2068.78" stroke="#595959" stroke-width="6.875" stroke-miterlimit="8" fill="none" fill-rule="evenodd"/><rect x="874.5" y="1241.5" width="236" height="140" stroke="#000000" stroke-width="4.58333" stroke-miterlimit="8" fill="#FFFFFF"/><rect x="912" y="1252" width="67.0001" height="100" fill="#FFFFFF"/><path d="M959.673 1273.4C962.321 1273.4 964.604 1273.62 966.522 1274.05L964.941 1280.94 961.375 1280.94C960.997 1279.4 960.504 1278.29 959.896 1277.62 959.288 1276.94 958.389 1276.6 957.201 1276.6 955.661 1276.6 954.357 1277.03 953.29 1277.88 952.223 1278.73 951.311 1280 950.554 1281.67 949.798 1283.35 949.095 1285.6 948.447 1288.44L947.434 1292.86 957.849 1292.86 956.958 1296.95 946.501 1296.95 938.963 1332.29C937.721 1338.15 935.816 1342.52 933.249 1345.4 930.682 1348.28 927.454 1349.72 923.563 1349.72 922.428 1349.72 921.537 1349.65 920.888 1349.51L921.577 1345.95C921.847 1346.03 922.482 1346.07 923.482 1346.07 924.698 1346.07 925.738 1345.76 926.603 1345.14 927.467 1344.51 928.271 1343.43 929.014 1341.89 929.757 1340.35 930.439 1338.22 931.061 1335.49L939.774 1296.95 932.925 1296.95 933.533 1294.15C935.343 1294.04 936.647 1293.9 937.444 1293.71 938.241 1293.52 938.862 1293.23 939.308 1292.86 939.754 1292.48 940.132 1291.98 940.443 1291.38 940.753 1290.77 941.152 1289.65 941.638 1288.03 943.07 1283.17 945.279 1279.52 948.264 1277.07 951.25 1274.63 955.053 1273.4 959.673 1273.4Z" fill-rule="evenodd"/><text fill="#000000" fill-opacity="0" font-family="Arial,Arial_MSFontService,sans-serif" font-size="76.313" x="920.888" y="1340.18">ğ‘“</text><path d="M0 0C13.0687 0 26.1375 12.7713 26.1375 25.5425 26.1375 38.3138 39.2062 51.085 52.2749 51.085" stroke="#000000" stroke-width="10.3125" stroke-miterlimit="8" fill="none" fill-rule="evenodd" transform="matrix(1 0 0 -1 1018 1329.09)"/><path d="M0 0 71.2474 1.16929" stroke="#595959" stroke-width="6.875" stroke-miterlimit="8" fill="none" fill-rule="evenodd" transform="matrix(-1 0 0 1 1076.75 1343.5)"/><path d="M1009.5 1277.5 1009.5 1345.78" stroke="#595959" stroke-width="6.875" stroke-miterlimit="8" fill="none" fill-rule="evenodd"/></g></svg>